%
T1C.01181F095S3
X001378Y005709
X004331Y002559
X009843Y003937
X014173Y005118
X015079Y004803
X015157Y000787
X016457Y005315
X017205Y003189
X017244Y005315
X018504Y002874
X018858Y004252
X018858Y003898
X019291Y004252
X019291Y003898
X019724Y004252
X019724Y003898
X020945Y002874
X021024Y004921
X021102Y004173
X02126Y004488
X021535Y004724
X021535Y005354
X022795Y005433
X023346Y005709
X025197Y005118
X025591Y005669
X026102Y005315
X028071Y003622
X028425Y005354
X028819Y004921
X029921Y002874
X030276Y004213
X030276Y003858
X030709Y004213
X030709Y003858
X031142Y004213
X031142Y003858
X031496Y000787
X032323Y002874
X032402Y004213
X032835Y00563
X03315Y005354
X033228Y004921
X034567Y004606
X034646Y005512
X035197Y004016
X035354Y003661
X036024Y003543
X041142Y004331
X042913Y000787
X043622Y001535
X04378Y000984
X049213Y004921
X050394Y002559
X05063Y004055
X050709Y003583
X051024Y004055
X051339Y004055
X052323Y00378
X052323Y003465
X052323Y002638
X052362Y005472
X052717Y003465
X052717Y002638
X052717Y00378
X052717Y005472
X053661Y003622
X053661Y004055
X053976Y003622
X054016Y004055
X054291Y002638
X056496Y002362
X056929Y003031
X056969Y003465
X060039Y003268
X060984Y00248
X061772Y004213
X061772Y003898
X062205Y004213
X062205Y003898
X062638Y003898
X062638Y004213
X063346Y002441
X063898Y004213
X064409Y004843
X064724Y00437
X064764Y005197
X065039Y003976
X067087Y005472
X06752Y002953
X067717Y004921
X067992Y005709
X070984Y005709
X071457Y005118
X071614Y005472
X072126Y005
X072638Y003228
X072835Y005236
X073661Y00248
X07437Y003898
X07437Y004252
X074803Y004252
X074803Y003898
X074803Y002953
X075236Y003898
X075236Y004252
X075945Y00248
X076535Y004213
X077087Y005079
X07752Y004961
X077795Y005551
X078465Y005276
X078937Y004646
X079134Y005512
X07937Y00437
X079528Y001772
X08563Y002559
X090945Y00689
X085433Y007087
X079488Y008228
X079134Y007283
X079055Y007992
X078307Y006299
X077913Y006299
X07748Y007677
X076969Y007756
X076181Y007087
X075236Y006339
X075236Y005984
X074803Y006339
X074803Y005984
X07437Y006339
X07437Y005984
X074016Y007992
X07374Y008228
X07315Y008189
X072362Y008031
X070276Y00689
X065157Y00689
X062638Y006339
X062638Y005984
X062205Y005984
X062205Y006339
X061772Y005984
X061772Y006339
X060591Y007992
X060276Y008189
X059567Y006063
X059409Y00815
X059331Y005827
X058858Y008228
X058071Y006496
X052953Y006457
X052559Y007283
X05248Y006457
X052047Y006457
X046654Y006693
X039764Y007283
X033268Y006929
X032756Y006614
X031142Y006339
X031142Y005984
X030709Y006339
X030709Y005984
X030276Y006339
X030276Y005984
X027953Y00748
X022126Y007992
X022047Y00748
X021693Y008228
X019724Y005984
X019724Y006339
X019567Y007953
X019291Y005984
X019291Y006339
X019213Y007913
X018858Y005984
X018858Y006339
X01811Y007283
X017165Y005787
X01378Y00748
X013504Y007992
X013228Y008228
X006693Y008071
X-001772Y007677
X-005118Y013976
X-004843Y022402
X-001969Y01378
X-001969Y019685
X000591Y016732
X04626Y021654
X046457Y01122
X090748Y013583
X090945Y026181
X090748Y038976
X046457Y035433
X002598Y040709
X002559Y031299
X002559Y05063
X003819Y051142
X018071Y052913
X018071Y053268
X018504Y052913
X018504Y053268
X018937Y053268
X018937Y052913
X020866Y052165
X02811Y052402
X030276Y052913
X030276Y053268
X030709Y052913
X030709Y053268
X031142Y052913
X031142Y053268
X043071Y052717
X046654Y049016
X048543Y052913
X055787Y052402
X061772Y052953
X061772Y053268
X062205Y052953
X062205Y053268
X062638Y052953
X062638Y053268
X063189Y052087
X064291Y052008
X064724Y052126
X065394Y05252
X069921Y052559
X072953Y052559
X07437Y052913
X07437Y053268
X074803Y052913
X074803Y053268
X075236Y052913
X075236Y053268
X07626Y05252
X076811Y052835
X077165Y053228
X077874Y053228
X079961Y052126
X080118Y052756
X080551Y05185
X084803Y052402
X090748Y051772
X088031Y054685
X078622Y053898
X077756Y054173
X077323Y053701
X076929Y053504
X075236Y055
X075236Y055354
X074803Y055
X074803Y055354
X07437Y055
X07437Y055354
X073071Y055039
X072205Y053543
X071299Y053583
X070157Y054528
X069803Y054764
X069724Y055354
X069488Y054213
X069094Y054331
X068425Y054409
X066614Y054094
X065945Y053976
X065354Y054567
X064724Y054213
X064291Y054016
X062638Y055
X062638Y055354
X062205Y055
X062205Y055354
X061772Y055
X061772Y055354
X060512Y055039
X060354Y05437
X060276Y054055
X059606Y053583
X059331Y053937
X058465Y053898
X055472Y053898
X054213Y054803
X053819Y054961
X053189Y054488
X051024Y053307
X044882Y055039
X042913Y054016
X042717Y055118
X04248Y054016
X042323Y055118
X042047Y054016
X040197Y055591
X039843Y053504
X03626Y055669
X035984Y054567
X035866Y055079
X034094Y054449
X03374Y054016
X032913Y054252
X031142Y055354
X031142Y055
X030709Y055354
X030709Y055
X030276Y055354
X030276Y055
X028937Y055039
X027677Y053937
X027441Y054488
X027323Y054094
X027205Y055591
X027087Y054331
X026575Y055512
X025984Y055669
X025197Y055591
X023976Y053898
X023425Y053622
X022874Y053583
X018937Y055039
X018937Y055394
X018504Y055394
X018504Y055039
X018071Y055039
X018071Y055394
X016811Y055039
X016181Y054173
X016024Y053858
X01563Y053543
X015354Y05378
X015236Y055591
X013937Y054961
X013071Y053701
X008858Y054567
X008425Y054803
X00689Y054134
X005512Y058071
X011457Y056732
X014134Y058228
X014606Y055827
X014724Y057441
X014724Y058268
X014764Y05689
X017717Y056378
X020118Y056378
X020669Y055984
X024173Y058268
X027126Y056063
X029567Y056732
X031772Y05815
X03189Y056811
X032835Y055984
X03815Y057913
X040551Y057638
X040984Y05748
X041063Y056496
X041063Y056929
X041378Y056496
X041378Y056929
X042323Y057087
X042323Y057913
X042323Y056772
X042677Y057087
X042677Y056772
X042717Y057913
X043701Y056496
X043976Y056929
X044016Y056496
X056969Y056929
X061063Y056772
X063386Y056772
X06437Y055945
X070787Y057165
X073622Y056772
X074961Y056457
X076024Y056772
X076929Y055945
X079173Y057205
X081811Y057087
X087165Y057087
X049921Y058543
X019173Y058307
T2C.01575F095S3
X011266Y007198
X011732Y006732
X011772Y008622
X012198Y007198
X017835Y008622
X024921Y008622
X032008Y008622
X039094Y008622
X049843Y008622
X050394Y008622
X050787Y005039
X050787Y004528
X054843Y008622
X061929Y008622
X069016Y008622
X076102Y008622
X080833Y007277
X08122Y008622
X081299Y006811
X081765Y007277
X001063Y022244
X000945Y021575
X000945Y022913
X000315Y022913
X000315Y021457
X-000157Y025079
X-000236Y021457
X-003268Y024134
X-003268Y02311
X001496Y026417
X001496Y04063
X002362Y028622
X002677Y027953
X002677Y027402
X081765Y052683
X081299Y05315
X08126Y051378
X080833Y052683
X076102Y051378
X069016Y051378
X061929Y051378
X054843Y051378
X044055Y051378
X043504Y051378
X038898Y051378
X031811Y051378
X024843Y051378
X017638Y051378
X012238Y052723
X011772Y053189
X011306Y052723
X010551Y051378
X00063Y056339
X002087Y054449
X043504Y053898
X043937Y053898
T3C.02165F197S55
X-00123Y025226G85X-00123Y02497
X-004281Y025226G85X-004281Y02497
T4C.0315F197S55
X-00374Y024016
X-001772Y024016
T5C.032F197S55
X009736Y015354
X010736Y015354
X016823Y015354
X017823Y015354
X023909Y015354
X024909Y015354
X030996Y015354
X031996Y015354
X038083Y015354
X039083Y015354
X053831Y015354
X054831Y015354
X060917Y015354
X061917Y015354
X068004Y015354
X069004Y015354
X075091Y015354
X076091Y015354
X082177Y015354
X083177Y015354
X083177Y018504
X082177Y018504
X076091Y018504
X075091Y018504
X069004Y018504
X068004Y018504
X061917Y018504
X060917Y018504
X054831Y018504
X053831Y018504
X039083Y018504
X038083Y018504
X031996Y018504
X030996Y018504
X024909Y018504
X023909Y018504
X017823Y018504
X016823Y018504
X010736Y018504
X009736Y018504
X009736Y024016
X010736Y024016
X016823Y024016
X017823Y024016
X023909Y024016
X024909Y024016
X030996Y024016
X031996Y024016
X038083Y024016
X039083Y024016
X053831Y024016
X054831Y024016
X060917Y024016
X061917Y024016
X068004Y024016
X069004Y024016
X075091Y024016
X076091Y024016
X082177Y024016
X083177Y024016
X083177Y027165
X082177Y027165
X076091Y027165
X075091Y027165
X069004Y027165
X068004Y027165
X061917Y027165
X060917Y027165
X054831Y027165
X053831Y027165
X039083Y027165
X038083Y027165
X031996Y027165
X030996Y027165
X024909Y027165
X023909Y027165
X017823Y027165
X016823Y027165
X010736Y027165
X009736Y027165
X009736Y032677
X010736Y032677
X016823Y032677
X017823Y032677
X023909Y032677
X024909Y032677
X030996Y032677
X031996Y032677
X038083Y032677
X039083Y032677
X053831Y032677
X054831Y032677
X060917Y032677
X061917Y032677
X068004Y032677
X069004Y032677
X075091Y032677
X076091Y032677
X082177Y032677
X083177Y032677
X083177Y035827
X082177Y035827
X076091Y035827
X075091Y035827
X069004Y035827
X068004Y035827
X061917Y035827
X060917Y035827
X054831Y035827
X053831Y035827
X039083Y035827
X038083Y035827
X031996Y035827
X030996Y035827
X024909Y035827
X023909Y035827
X017823Y035827
X016823Y035827
X010736Y035827
X009736Y035827
X009736Y041339
X009736Y044488
X010736Y041339
X010736Y044488
X016823Y041339
X016823Y044488
X017823Y041339
X017823Y044488
X023909Y041339
X023909Y044488
X024909Y041339
X024909Y044488
X030996Y041339
X030996Y044488
X031996Y041339
X031996Y044488
X038083Y041339
X038083Y044488
X039083Y041339
X039083Y044488
X053831Y041339
X053831Y044488
X054831Y041339
X054831Y044488
X060917Y044488
X060917Y041339
X061917Y041339
X061917Y044488
X068004Y041339
X068004Y044488
X069004Y041339
X069004Y044488
X075091Y041339
X075091Y044488
X076091Y041339
X076091Y044488
X082177Y041339
X082177Y044488
X083177Y041339
X083177Y044488
T6C.03346F197S55
X-001289Y02373G85X-001289Y023514
X-004222Y02373G85X-004222Y023514
T7C.04F139S55
X-0055Y007598
X-0055Y008598
X-0055Y018598
X-0055Y019598
X-0055Y020598
X0005Y019598
X0005Y018598
X0005Y008598
X0005Y007598
X0005Y020598
T8C.11811F069S658
X001575Y001575
X046457Y001575
X091339Y001575
X091339Y058268
X046457Y058268
X001575Y058268
M30
