*
*
G04 PADS VX.1.2 Build Number: 698008 generated Gerber (RS-274-X) file*
G04 PC Version=2.1*
*
%IN "LED drive11.pcb"*%
*
%MOIN*%
*
%FSLAX35Y35*%
*
*
*
*
G04 PC Standard Apertures*
*
*
G04 Thermal Relief Aperture macro.*
%AMTER*
1,1,$1,0,0*
1,0,$1-$2,0,0*
21,0,$3,$4,0,0,45*
21,0,$3,$4,0,0,135*
%
*
*
G04 Annular Aperture macro.*
%AMANN*
1,1,$1,0,0*
1,0,$2,0,0*
%
*
*
G04 Odd Aperture macro.*
%AMODD*
1,1,$1,0,0*
1,0,$1-0.005,0,0*
%
*
*
G04 PC Custom Aperture Macros*
*
*
*
*
*
*
G04 PC Aperture Table*
*
%ADD010C,0.001*%
%ADD031C,0.008*%
%ADD042C,0.007*%
%ADD065C,0.00394*%
%ADD066C,0.00197*%
%ADD067C,0.00591*%
*
*
*
*
G04 PC Circuitry*
G04 Layer Name LED drive11.pcb - circuitry*
%LPD*%
*
*
G04 PC Custom Flashes*
G04 Layer Name LED drive11.pcb - flashes*
%LPD*%
*
*
G04 PC Circuitry*
G04 Layer Name LED drive11.pcb - circuitry*
%LPD*%
*
G54D10*
G54D31*
G01X491339Y814830D02*
Y810236D01*
Y814830D02*
X492452D01*
X492929Y814611*
X493248Y814174*
X493407Y813736*
X493566Y813080*
Y811986*
X493407Y811330*
X493248Y810892*
X492929Y810455*
X492452Y810236*
X491339*
X494998Y814830D02*
Y810236D01*
Y814830D02*
X496429D01*
X496907Y814611*
X497066Y814392*
X497225Y813955*
Y813517*
X497066Y813080*
X496907Y812861*
X496429Y812642*
X494998*
X496111D02*
X497225Y810236D01*
X498657Y814830D02*
Y810236D01*
X500089Y814830D02*
Y810236D01*
X501998*
X503429Y814830D02*
Y810236D01*
X505339*
X506770Y814830D02*
Y810236D01*
X508202Y814830D02*
Y810236D01*
Y814830D02*
X510429Y810236D01*
Y814830D02*
Y810236D01*
X514248Y813736D02*
X514089Y814174D01*
X513770Y814611*
X513452Y814830*
X512816*
X512498Y814611*
X512179Y814174*
X512020Y813736*
X511861Y813080*
Y811986*
X512020Y811330*
X512179Y810892*
X512498Y810455*
X512816Y810236*
X513452*
X513770Y810455*
X514089Y810892*
X514248Y811330*
Y811986*
X513452D02*
X514248D01*
G54D42*
X487402Y825599D02*
Y825932D01*
X487583Y826099*
X487826*
X488008Y825932*
Y825599*
X487826Y825432*
X487583*
X487402Y825599*
X489523Y829266D02*
Y824016D01*
Y829266D02*
X491886D01*
X489523Y826766D02*
X490977D01*
X493523Y829266D02*
Y824016D01*
Y829266D02*
X495159D01*
X495705Y829016*
X495886Y828766*
X496068Y828266*
Y827766*
X495886Y827266*
X495705Y827016*
X495159Y826766*
X493523*
X494796D02*
X496068Y824016D01*
X497705Y826266D02*
X500977D01*
X504432Y829266D02*
X502614Y825766D01*
X505341*
X504432Y829266D02*
Y824016D01*
X507341Y824266D02*
X507159Y824016D01*
X506977Y824266*
X507159Y824516*
X507341Y824266*
Y823766*
X507159Y823266*
X506977Y823016*
X513159Y828266D02*
X513523Y828516D01*
X514068Y829266*
Y824016*
X515886Y824516D02*
X515705Y824266D01*
X515886Y824016*
X516068Y824266*
X515886Y824516*
X519886Y828516D02*
X519705Y829016D01*
X519159Y829266*
X518796*
X518250Y829016*
X517886Y828266*
X517705Y827016*
Y825766*
X517886Y824766*
X518250Y824266*
X518796Y824016*
X518977*
X519523Y824266*
X519886Y824766*
X520068Y825516*
Y825766*
X519886Y826516*
X519523Y827016*
X518977Y827266*
X518796*
X518250Y827016*
X517886Y826516*
X517705Y825766*
X525886Y827516D02*
Y824016D01*
Y826516D02*
X526432Y827266D01*
X526796Y827516*
X527341*
X527705Y827266*
X527886Y826516*
Y824016*
Y826516D02*
X528432Y827266D01*
X528796Y827516*
X529341*
X529705Y827266*
X529886Y826516*
Y824016*
X531523Y827516D02*
Y824016D01*
Y826516D02*
X532068Y827266D01*
X532432Y827516*
X532977*
X533341Y827266*
X533523Y826516*
Y824016*
Y826516D02*
X534068Y827266D01*
X534432Y827516*
X534977*
X535341Y827266*
X535523Y826516*
Y824016*
X541886Y829266D02*
Y825016D01*
X542068Y824266*
X542432Y824016*
X542796*
X541341Y827516D02*
X542614D01*
X544432Y829266D02*
Y824016D01*
Y826516D02*
X544977Y827266D01*
X545341Y827516*
X545886*
X546250Y827266*
X546432Y826516*
Y824016*
X548068Y829266D02*
X548250Y829016D01*
X548432Y829266*
X548250Y829516*
X548068Y829266*
X548250Y827516D02*
Y824016D01*
X552250Y826766D02*
X551886Y827266D01*
X551523Y827516*
X550977*
X550614Y827266*
X550250Y826766*
X550068Y826016*
Y825516*
X550250Y824766*
X550614Y824266*
X550977Y824016*
X551523*
X551886Y824266*
X552250Y824766*
X553886Y829266D02*
Y824016D01*
X555705Y827516D02*
X553886Y825016D01*
X554614Y826016D02*
X555886Y824016D01*
X487402Y837410D02*
Y837743D01*
X487583Y837910*
X487826*
X488008Y837743*
Y837410*
X487826Y837243*
X487583*
X487402Y837410*
X489705Y839827D02*
Y840077D01*
X489886Y840577*
X490068Y840827*
X490432Y841077*
X491159*
X491523Y840827*
X491705Y840577*
X491886Y840077*
Y839577*
X491705Y839077*
X491341Y838327*
X489523Y835827*
X492068*
X498796Y839327D02*
X498432Y839077D01*
X498068Y838577*
X497886Y837827*
Y837327*
X498068Y836577*
X498432Y836077*
X498796Y835827*
X499341*
X499705Y836077*
X500068Y836577*
X500250Y837327*
Y837827*
X500068Y838577*
X499705Y839077*
X499341Y839327*
X498796*
X503886D02*
X501886Y835827D01*
Y839327D02*
X503886D01*
X501886Y835827D02*
X503886D01*
X511886Y838577D02*
X511523Y839077D01*
X511159Y839327*
X510614*
X510250Y839077*
X509886Y838577*
X509705Y837827*
Y837327*
X509886Y836577*
X510250Y836077*
X510614Y835827*
X511159*
X511523Y836077*
X511886Y836577*
X514432Y839327D02*
X514068Y839077D01*
X513705Y838577*
X513523Y837827*
Y837327*
X513705Y836577*
X514068Y836077*
X514432Y835827*
X514977*
X515341Y836077*
X515705Y836577*
X515886Y837327*
Y837827*
X515705Y838577*
X515341Y839077*
X514977Y839327*
X514432*
X517523D02*
Y834077D01*
Y838577D02*
X517886Y839077D01*
X518250Y839327*
X518796*
X519159Y839077*
X519523Y838577*
X519705Y837827*
Y837327*
X519523Y836577*
X519159Y836077*
X518796Y835827*
X518250*
X517886Y836077*
X517523Y836577*
X521341Y839327D02*
Y834077D01*
Y838577D02*
X521705Y839077D01*
X522068Y839327*
X522614*
X522977Y839077*
X523341Y838577*
X523523Y837827*
Y837327*
X523341Y836577*
X522977Y836077*
X522614Y835827*
X522068*
X521705Y836077*
X521341Y836577*
X525159Y837827D02*
X527341D01*
Y838327*
X527159Y838827*
X526977Y839077*
X526614Y839327*
X526068*
X525705Y839077*
X525341Y838577*
X525159Y837827*
Y837327*
X525341Y836577*
X525705Y836077*
X526068Y835827*
X526614*
X526977Y836077*
X527341Y836577*
X528977Y839327D02*
Y835827D01*
Y837827D02*
X529159Y838577D01*
X529523Y839077*
X529886Y839327*
X530432*
X537159D02*
X536796Y839077D01*
X536432Y838577*
X536250Y837827*
Y837327*
X536432Y836577*
X536796Y836077*
X537159Y835827*
X537705*
X538068Y836077*
X538432Y836577*
X538614Y837327*
Y837827*
X538432Y838577*
X538068Y839077*
X537705Y839327*
X537159*
X540250D02*
Y835827D01*
Y838327D02*
X540796Y839077D01*
X541159Y839327*
X541705*
X542068Y839077*
X542250Y838327*
Y835827*
X548068Y841077D02*
Y835827D01*
Y838577D02*
X548432Y839077D01*
X548796Y839327*
X549341*
X549705Y839077*
X550068Y838577*
X550250Y837827*
Y837327*
X550068Y836577*
X549705Y836077*
X549341Y835827*
X548796*
X548432Y836077*
X548068Y836577*
X552796Y839327D02*
X552432Y839077D01*
X552068Y838577*
X551886Y837827*
Y837327*
X552068Y836577*
X552432Y836077*
X552796Y835827*
X553341*
X553705Y836077*
X554068Y836577*
X554250Y837327*
Y837827*
X554068Y838577*
X553705Y839077*
X553341Y839327*
X552796*
X556432Y841077D02*
Y836827D01*
X556614Y836077*
X556977Y835827*
X557341*
X555886Y839327D02*
X557159D01*
X558977Y841077D02*
Y835827D01*
Y838327D02*
X559523Y839077D01*
X559886Y839327*
X560432*
X560796Y839077*
X560977Y838327*
Y835827*
X568796Y838577D02*
X568614Y839077D01*
X568068Y839327*
X567523*
X566977Y839077*
X566796Y838577*
X566977Y838077*
X567341Y837827*
X568250Y837577*
X568614Y837327*
X568796Y836827*
Y836577*
X568614Y836077*
X568068Y835827*
X567523*
X566977Y836077*
X566796Y836577*
X570432Y841077D02*
X570614Y840827D01*
X570796Y841077*
X570614Y841327*
X570432Y841077*
X570614Y839327D02*
Y835827D01*
X574614Y841077D02*
Y835827D01*
Y838577D02*
X574250Y839077D01*
X573886Y839327*
X573341*
X572977Y839077*
X572614Y838577*
X572432Y837827*
Y837327*
X572614Y836577*
X572977Y836077*
X573341Y835827*
X573886*
X574250Y836077*
X574614Y836577*
X576250Y837827D02*
X578432D01*
Y838327*
X578250Y838827*
X578068Y839077*
X577705Y839327*
X577159*
X576796Y839077*
X576432Y838577*
X576250Y837827*
Y837327*
X576432Y836577*
X576796Y836077*
X577159Y835827*
X577705*
X578068Y836077*
X578432Y836577*
X582068Y838577D02*
X581886Y839077D01*
X581341Y839327*
X580796*
X580250Y839077*
X580068Y838577*
X580250Y838077*
X580614Y837827*
X581523Y837577*
X581886Y837327*
X582068Y836827*
Y836577*
X581886Y836077*
X581341Y835827*
X580796*
X580250Y836077*
X580068Y836577*
X487402Y847253D02*
Y847586D01*
X487583Y847753*
X487826*
X488008Y847586*
Y847253*
X487826Y847086*
X487583*
X487402Y847253*
X489523Y850919D02*
Y845669D01*
Y850919D02*
X491886D01*
X489523Y848419D02*
X490977D01*
X489523Y845669D02*
X491886D01*
X493523Y850919D02*
Y845669D01*
Y850919D02*
X496068Y845669D01*
Y850919D02*
Y845669D01*
X497705Y850919D02*
Y845669D01*
X502068Y849669D02*
X501886Y850169D01*
X501523Y850669*
X501159Y850919*
X500432*
X500068Y850669*
X499705Y850169*
X499523Y849669*
X499341Y848919*
Y847669*
X499523Y846919*
X499705Y846419*
X500068Y845919*
X500432Y845669*
X501159*
X501523Y845919*
X501886Y846419*
X502068Y846919*
Y847669*
X501159D02*
X502068D01*
X509341Y850919D02*
X508977D01*
X508614Y850669*
X508432Y849919*
Y845669*
X507886Y849169D02*
X509159D01*
X510977Y850919D02*
X511159Y850669D01*
X511341Y850919*
X511159Y851169*
X510977Y850919*
X511159Y849169D02*
Y845669D01*
X512977Y849169D02*
Y845669D01*
Y848169D02*
X513523Y848919D01*
X513886Y849169*
X514432*
X514796Y848919*
X514977Y848169*
Y845669*
X516614Y850919D02*
X516796Y850669D01*
X516977Y850919*
X516796Y851169*
X516614Y850919*
X516796Y849169D02*
Y845669D01*
X520614Y848419D02*
X520432Y848919D01*
X519886Y849169*
X519341*
X518796Y848919*
X518614Y848419*
X518796Y847919*
X519159Y847669*
X520068Y847419*
X520432Y847169*
X520614Y846669*
Y846419*
X520432Y845919*
X519886Y845669*
X519341*
X518796Y845919*
X518614Y846419*
X522250Y850919D02*
Y845669D01*
Y848169D02*
X522796Y848919D01*
X523159Y849169*
X523705*
X524068Y848919*
X524250Y848169*
Y845669*
X526250Y845919D02*
X526068Y845669D01*
X525886Y845919*
X526068Y846169*
X526250Y845919*
Y845419*
X526068Y844919*
X525886Y844669*
X532068Y849169D02*
X532796Y845669D01*
X533523Y849169D02*
X532796Y845669D01*
X533523Y849169D02*
X534250Y845669D01*
X534977Y849169D02*
X534250Y845669D01*
X536614Y850919D02*
Y845669D01*
Y848169D02*
X537159Y848919D01*
X537523Y849169*
X538068*
X538432Y848919*
X538614Y848169*
Y845669*
X540250Y850919D02*
X540432Y850669D01*
X540614Y850919*
X540432Y851169*
X540250Y850919*
X540432Y849169D02*
Y845669D01*
X542796Y850919D02*
Y846669D01*
X542977Y845919*
X543341Y845669*
X543705*
X542250Y849169D02*
X543523D01*
X545341Y847669D02*
X547523D01*
Y848169*
X547341Y848669*
X547159Y848919*
X546796Y849169*
X546250*
X545886Y848919*
X545523Y848419*
X545341Y847669*
Y847169*
X545523Y846419*
X545886Y845919*
X546250Y845669*
X546796*
X547159Y845919*
X547523Y846419*
X553341Y850919D02*
X553523Y850669D01*
X553705Y850919*
X553523Y851169*
X553341Y850919*
X553523Y849169D02*
Y845669D01*
X555341Y849169D02*
Y845669D01*
Y848169D02*
X555886Y848919D01*
X556250Y849169*
X556796*
X557159Y848919*
X557341Y848169*
Y845669*
X558977Y850919D02*
Y845669D01*
X560796Y849169D02*
X558977Y846669D01*
X559705Y847669D02*
X560977Y845669D01*
X568250Y850919D02*
X567886D01*
X567523Y850669*
X567341Y849919*
Y845669*
X566796Y849169D02*
X568068D01*
X570796D02*
X570432Y848919D01*
X570068Y848419*
X569886Y847669*
Y847169*
X570068Y846419*
X570432Y845919*
X570796Y845669*
X571341*
X571705Y845919*
X572068Y846419*
X572250Y847169*
Y847669*
X572068Y848419*
X571705Y848919*
X571341Y849169*
X570796*
X573886D02*
Y845669D01*
Y847669D02*
X574068Y848419D01*
X574432Y848919*
X574796Y849169*
X575341*
X583159Y848419D02*
X582977Y848919D01*
X582432Y849169*
X581886*
X581341Y848919*
X581159Y848419*
X581341Y847919*
X581705Y847669*
X582614Y847419*
X582977Y847169*
X583159Y846669*
Y846419*
X582977Y845919*
X582432Y845669*
X581886*
X581341Y845919*
X581159Y846419*
X586977Y848419D02*
X586614Y848919D01*
X586250Y849169*
X585705*
X585341Y848919*
X584977Y848419*
X584796Y847669*
Y847169*
X584977Y846419*
X585341Y845919*
X585705Y845669*
X586250*
X586614Y845919*
X586977Y846419*
X588614Y849169D02*
Y845669D01*
Y847669D02*
X588796Y848419D01*
X589159Y848919*
X589523Y849169*
X590068*
X591705Y847669D02*
X593886D01*
Y848169*
X593705Y848669*
X593523Y848919*
X593159Y849169*
X592614*
X592250Y848919*
X591886Y848419*
X591705Y847669*
Y847169*
X591886Y846419*
X592250Y845919*
X592614Y845669*
X593159*
X593523Y845919*
X593886Y846419*
X595523Y847669D02*
X597705D01*
Y848169*
X597523Y848669*
X597341Y848919*
X596977Y849169*
X596432*
X596068Y848919*
X595705Y848419*
X595523Y847669*
Y847169*
X595705Y846419*
X596068Y845919*
X596432Y845669*
X596977*
X597341Y845919*
X597705Y846419*
X599341Y849169D02*
Y845669D01*
Y848169D02*
X599886Y848919D01*
X600250Y849169*
X600796*
X601159Y848919*
X601341Y848169*
Y845669*
X188189Y197376D02*
Y195626D01*
X189644Y197376D02*
Y195626D01*
X192371Y197376D02*
X191825Y197126D01*
X191462Y196376*
X191280Y195126*
Y194376*
X191462Y193126*
X191825Y192376*
X192371Y192126*
X192734*
X193280Y192376*
X193644Y193126*
X193825Y194376*
Y195126*
X193644Y196376*
X193280Y197126*
X192734Y197376*
X192371*
X195462D02*
Y195626D01*
X196916Y197376D02*
Y195626D01*
X135039Y251494D02*
X135403Y251744D01*
X135948Y252494*
Y247244*
X139767Y251744D02*
X139585Y252244D01*
X139039Y252494*
X138676*
X138130Y252244*
X137767Y251494*
X137585Y250244*
Y248994*
X137767Y247994*
X138130Y247494*
X138676Y247244*
X138858*
X139403Y247494*
X139767Y247994*
X139948Y248744*
Y248994*
X139767Y249744*
X139403Y250244*
X138858Y250494*
X138676*
X138130Y250244*
X137767Y249744*
X137585Y248994*
X115354Y265274D02*
X115718Y265524D01*
X116263Y266274*
Y261024*
X120082Y265524D02*
X119900Y266024D01*
X119354Y266274*
X118991*
X118445Y266024*
X118082Y265274*
X117900Y264024*
Y262774*
X118082Y261774*
X118445Y261274*
X118991Y261024*
X119173*
X119718Y261274*
X120082Y261774*
X120263Y262524*
Y262774*
X120082Y263524*
X119718Y264024*
X119173Y264274*
X118991*
X118445Y264024*
X118082Y263524*
X117900Y262774*
X113599Y462374D02*
X113417Y462874D01*
X112872Y463124*
X112508*
X111963Y462874*
X111599Y462124*
X111417Y460874*
Y459624*
X111599Y458624*
X111963Y458124*
X112508Y457874*
X112690*
X113236Y458124*
X113599Y458624*
X113781Y459374*
Y459624*
X113599Y460374*
X113236Y460874*
X112690Y461124*
X112508*
X111963Y460874*
X111599Y460374*
X111417Y459624*
X117599Y462374D02*
X117417Y462874D01*
X116872Y463124*
X116508*
X115963Y462874*
X115599Y462124*
X115417Y460874*
Y459624*
X115599Y458624*
X115963Y458124*
X116508Y457874*
X116690*
X117236Y458124*
X117599Y458624*
X117781Y459374*
Y459624*
X117599Y460374*
X117236Y460874*
X116690Y461124*
X116508*
X115963Y460874*
X115599Y460374*
X115417Y459624*
X168504Y800707D02*
X168868Y800957D01*
X169413Y801707*
Y796457*
X173413Y801707D02*
X171595D01*
X171413Y799457*
X171595Y799707*
X172140Y799957*
X172686*
X173231Y799707*
X173595Y799207*
X173777Y798457*
X173595Y797957*
X173413Y797207*
X173049Y796707*
X172504Y796457*
X171958*
X171413Y796707*
X171231Y796957*
X171049Y797457*
X175595Y800457D02*
Y800707D01*
X175777Y801207*
X175958Y801457*
X176322Y801707*
X177049*
X177413Y801457*
X177595Y801207*
X177777Y800707*
Y800207*
X177595Y799707*
X177231Y798957*
X175413Y796457*
X177958*
X1127102Y816324D02*
X1126852D01*
X1126352Y816505*
X1126102Y816687*
X1125852Y817051*
Y817778*
X1126102Y818142*
X1126352Y818324*
X1126852Y818505*
X1127352*
X1127852Y818324*
X1128602Y817960*
X1131102Y816142*
Y818687*
X1125852Y820687D02*
Y822687D01*
X1127852Y821596*
Y822142*
X1128102Y822505*
X1128352Y822687*
X1129102Y822869*
X1129602*
X1130352Y822687*
X1130852Y822324*
X1131102Y821778*
Y821233*
X1130852Y820687*
X1130602Y820505*
X1130102Y820324*
X1126602Y826687D02*
X1126102Y826505D01*
X1125852Y825960*
Y825596*
X1126102Y825051*
X1126852Y824687*
X1128102Y824505*
X1129352*
X1130352Y824687*
X1130852Y825051*
X1131102Y825596*
Y825778*
X1130852Y826324*
X1130352Y826687*
X1129602Y826869*
X1129352*
X1128602Y826687*
X1128102Y826324*
X1127852Y825778*
Y825596*
X1128102Y825051*
X1128602Y824687*
X1129352Y824505*
X190007Y213124D02*
X188189Y209624D01*
X190916*
X190007Y213124D02*
Y207874D01*
X219535Y197376D02*
X217717Y193876D01*
X220444*
X219535Y197376D02*
Y192126D01*
G54D65*
X184154Y434350D02*
X190059Y440256D01*
Y434350*
X184154Y440256*
Y434350*
Y432185D02*
X190059Y438091D01*
Y432185*
X184154Y438091*
Y432185*
X188780Y437303D02*
G75*
G03X185433I-1674J0D01*
G01Y435138*
G03X188780I1673J-0*
G01Y437303*
X154823Y434350D02*
X160728Y440256D01*
Y434350*
X154823Y440256*
Y434350*
Y432185D02*
X160728Y438091D01*
Y432185*
X154823Y438091*
Y432185*
X159449Y437303D02*
G03X156102I-1673J0D01*
G01Y435138*
G03X159449I1674J-0*
G01Y437303*
X184744Y452264D02*
X190650D01*
X187697Y449311D02*
Y455217D01*
X189173Y457021D02*
Y453740D01*
Y457021D02*
X190196D01*
X190537Y456865*
X190651Y456709*
X190651D02*
X190764Y456396D01*
Y456084*
X190651Y455771*
X190651D02*
X190537Y455615D01*
X190196Y455459*
X189173D02*
X190196D01*
X190537Y455303*
X190651Y455146*
X190651D02*
X190764Y454834D01*
Y454365*
X190651Y454053*
X190651D02*
X190537Y453896D01*
X190196Y453740*
X189173*
X184744Y449705D02*
X190650D01*
X187697Y446752D02*
Y452657D01*
X189173Y454462D02*
Y451181D01*
Y454462D02*
X190196D01*
X190537Y454306*
X190651Y454150*
X190651D02*
X190764Y453837D01*
Y453525*
X190651Y453212*
X190651D02*
X190537Y453056D01*
X190196Y452900*
X189173D02*
X190196D01*
X190537Y452744*
X190651Y452587*
X190651D02*
X190764Y452275D01*
Y451806*
X190651Y451494*
X190651D02*
X190537Y451337D01*
X190196Y451181*
X189173*
X188780Y452264D02*
G03X186614I-1083J-0D01*
G01Y449705*
G03X188780I1083J-0*
G01Y452264*
X154232D02*
X160138D01*
X157185Y449311D02*
Y455217D01*
X158661Y457021D02*
Y453740D01*
Y457021D02*
X159684D01*
X160025Y456865*
X160139Y456709*
X160252Y456396*
Y456084*
X160139Y455771*
X160025Y455615*
X159684Y455459*
X158661D02*
X159684D01*
X160025Y455303*
X160139Y455146*
X160252Y454834*
Y454365*
X160139Y454053*
X160025Y453896*
X159684Y453740*
X158661*
X154232Y449705D02*
X160138D01*
X157185Y446752D02*
Y452657D01*
X158661Y454462D02*
Y451181D01*
Y454462D02*
X159684D01*
X160025Y454306*
X160139Y454150*
X160252Y453837*
Y453525*
X160139Y453212*
X160025Y453056*
X159684Y452900*
X158661D02*
X159684D01*
X160025Y452744*
X160139Y452587*
X160252Y452275*
Y451806*
X160139Y451494*
X160025Y451337*
X159684Y451181*
X158661*
X158268Y452264D02*
G03X156102I-1083J-0D01*
G01Y449705*
G03X158268I1083J-0*
G01Y452264*
X205000Y403031D02*
X207953Y405984D01*
X205000Y408937*
X202047Y405984*
X205000Y403031*
Y405984D02*
Y408937D01*
Y393031D02*
X207953Y395984D01*
X205000Y398937*
X202047Y395984*
X205000Y393031*
Y395984D02*
Y398937D01*
Y383031D02*
X207953Y385984D01*
X205000Y388937*
X202047Y385984*
X205000Y383031*
Y385984D02*
Y388937D01*
Y283031D02*
X207953Y285984D01*
X205000Y288937*
X202047Y285984*
X205000Y283031*
Y285984D02*
Y288937D01*
Y273031D02*
X207953Y275984D01*
X205000Y278937*
X202047Y275984*
X205000Y273031*
Y275984D02*
Y278937D01*
X145000Y273031D02*
X147953Y275984D01*
X145000Y278937*
X142047Y275984*
X145000Y273031*
Y275984D02*
Y278937D01*
Y283031D02*
X147953Y285984D01*
X145000Y288937*
X142047Y285984*
X145000Y283031*
Y285984D02*
Y288937D01*
Y383031D02*
X147953Y385984D01*
X145000Y388937*
X142047Y385984*
X145000Y383031*
Y385984D02*
Y388937D01*
Y393031D02*
X147953Y395984D01*
X145000Y398937*
X142047Y395984*
X145000Y393031*
Y395984D02*
Y398937D01*
Y403031D02*
X147953Y405984D01*
X145000Y408937*
X142047Y405984*
X145000Y403031*
Y405984D02*
Y408937D01*
X304409Y641929D02*
X310315D01*
X304409Y647835*
X310315*
X304409Y641929*
X294409D02*
X300315D01*
X294409Y647835*
X300315*
X294409Y641929*
X179331Y440157D02*
X185236D01*
X182283Y437205D02*
Y443110D01*
X184669Y444915D02*
X183760Y441634D01*
X184669Y444915D02*
X185578Y441634D01*
X184101Y442728D02*
X185237D01*
X159646Y440157D02*
X165551D01*
X162598Y437205D02*
Y443110D01*
X164984Y444915D02*
X164075Y441634D01*
X164984Y444915D02*
X165893Y441634D01*
X164416Y442728D02*
X165552D01*
X304409Y610433D02*
X310315D01*
X304409Y616339*
X310315*
X304409Y610433*
X294409D02*
X300315D01*
X294409Y616339*
X300315*
X294409Y610433*
X375276Y641929D02*
X381181D01*
X375276Y647835*
X381181*
X375276Y641929*
X365276D02*
X371181D01*
X365276Y647835*
X371181*
X365276Y641929*
X375276Y610433D02*
X381181D01*
X375276Y616339*
X381181*
X375276Y610433*
X365276D02*
X371181D01*
X365276Y616339*
X371181*
X365276Y610433*
X446142Y641929D02*
X452047D01*
X446142Y647835*
X452047*
X446142Y641929*
X436142D02*
X442047D01*
X436142Y647835*
X442047*
X436142Y641929*
X446142Y610433D02*
X452047D01*
X446142Y616339*
X452047*
X446142Y610433*
X436142D02*
X442047D01*
X436142Y616339*
X442047*
X436142Y610433*
X517008Y641929D02*
X522913D01*
X517008Y647835*
X522913*
X517008Y641929*
X507008D02*
X512913D01*
X507008Y647835*
X512913*
X507008Y641929*
X517008Y610433D02*
X522913D01*
X517008Y616339*
X522913*
X517008Y610433*
X507008D02*
X512913D01*
X507008Y616339*
X512913*
X507008Y610433*
X587874Y641929D02*
X593780D01*
X587874Y647835*
X593780*
X587874Y641929*
X577874D02*
X583780D01*
X577874Y647835*
X583780*
X577874Y641929*
X587874Y610433D02*
X593780D01*
X587874Y616339*
X593780*
X587874Y610433*
X577874D02*
X583780D01*
X577874Y616339*
X583780*
X577874Y610433*
X304409Y555315D02*
X310315D01*
X304409Y561220*
X310315*
X304409Y555315*
X294409D02*
X300315D01*
X294409Y561220*
X300315*
X294409Y555315*
X304409Y523819D02*
X310315D01*
X304409Y529724*
X310315*
X304409Y523819*
X294409D02*
X300315D01*
X294409Y529724*
X300315*
X294409Y523819*
X375276Y555315D02*
X381181D01*
X375276Y561220*
X381181*
X375276Y555315*
X365276D02*
X371181D01*
X365276Y561220*
X371181*
X365276Y555315*
X375276Y523819D02*
X381181D01*
X375276Y529724*
X381181*
X375276Y523819*
X365276D02*
X371181D01*
X365276Y529724*
X371181*
X365276Y523819*
X446142Y555315D02*
X452047D01*
X446142Y561220*
X452047*
X446142Y555315*
X436142D02*
X442047D01*
X436142Y561220*
X442047*
X436142Y555315*
X446142Y523819D02*
X452047D01*
X446142Y529724*
X452047*
X446142Y523819*
X436142D02*
X442047D01*
X436142Y529724*
X442047*
X436142Y523819*
X517008Y555315D02*
X522913D01*
X517008Y561220*
X522913*
X517008Y555315*
X507008D02*
X512913D01*
X507008Y561220*
X512913*
X507008Y555315*
X517008Y523819D02*
X522913D01*
X517008Y529724*
X522913*
X517008Y523819*
X507008D02*
X512913D01*
X507008Y529724*
X512913*
X507008Y523819*
X587874Y555315D02*
X593780D01*
X587874Y561220*
X593780*
X587874Y555315*
X577874D02*
X583780D01*
X577874Y561220*
X583780*
X577874Y555315*
X587874Y523819D02*
X593780D01*
X587874Y529724*
X593780*
X587874Y523819*
X577874D02*
X583780D01*
X577874Y529724*
X583780*
X577874Y523819*
X745354Y641929D02*
X751260D01*
X745354Y647835*
X751260*
X745354Y641929*
X735354D02*
X741260D01*
X735354Y647835*
X741260*
X735354Y641929*
X745354Y610433D02*
X751260D01*
X745354Y616339*
X751260*
X745354Y610433*
X735354D02*
X741260D01*
X735354Y616339*
X741260*
X735354Y610433*
X816220Y641929D02*
X822126D01*
X816220Y647835*
X822126*
X816220Y641929*
X806220D02*
X812126D01*
X806220Y647835*
X812126*
X806220Y641929*
X816220Y610433D02*
X822126D01*
X816220Y616339*
X822126*
X816220Y610433*
X806220D02*
X812126D01*
X806220Y616339*
X812126*
X806220Y610433*
X887087Y641929D02*
X892992D01*
X887087Y647835*
X892992*
X887087Y641929*
X877087D02*
X882992D01*
X877087Y647835*
X882992*
X877087Y641929*
X887087Y610433D02*
X892992D01*
X887087Y616339*
X892992*
X887087Y610433*
X877087D02*
X882992D01*
X877087Y616339*
X882992*
X877087Y610433*
X957953Y641929D02*
X963858D01*
X957953Y647835*
X963858*
X957953Y641929*
X947953D02*
X953858D01*
X947953Y647835*
X953858*
X947953Y641929*
X957953Y610433D02*
X963858D01*
X957953Y616339*
X963858*
X957953Y610433*
X947953D02*
X953858D01*
X947953Y616339*
X953858*
X947953Y610433*
X1028819Y641929D02*
X1034724D01*
X1028819Y647835*
X1034724*
X1028819Y641929*
X1018819D02*
X1024724D01*
X1018819Y647835*
X1024724*
X1018819Y641929*
X1028819Y610433D02*
X1034724D01*
X1028819Y616339*
X1034724*
X1028819Y610433*
X1018819D02*
X1024724D01*
X1018819Y616339*
X1024724*
X1018819Y610433*
X745354Y555315D02*
X751260D01*
X745354Y561220*
X751260*
X745354Y555315*
X735354D02*
X741260D01*
X735354Y561220*
X741260*
X735354Y555315*
X745354Y523819D02*
X751260D01*
X745354Y529724*
X751260*
X745354Y523819*
X735354D02*
X741260D01*
X735354Y529724*
X741260*
X735354Y523819*
X816220Y555315D02*
X822126D01*
X816220Y561220*
X822126*
X816220Y555315*
X806220D02*
X812126D01*
X806220Y561220*
X812126*
X806220Y555315*
X816220Y523819D02*
X822126D01*
X816220Y529724*
X822126*
X816220Y523819*
X806220D02*
X812126D01*
X806220Y529724*
X812126*
X806220Y523819*
X887087Y555315D02*
X892992D01*
X887087Y561220*
X892992*
X887087Y555315*
X877087D02*
X882992D01*
X877087Y561220*
X882992*
X877087Y555315*
X887087Y523819D02*
X892992D01*
X887087Y529724*
X892992*
X887087Y523819*
X877087D02*
X882992D01*
X877087Y529724*
X882992*
X877087Y523819*
X957953Y555315D02*
X963858D01*
X957953Y561220*
X963858*
X957953Y555315*
X947953D02*
X953858D01*
X947953Y561220*
X953858*
X947953Y555315*
X957953Y523819D02*
X963858D01*
X957953Y529724*
X963858*
X957953Y523819*
X947953D02*
X953858D01*
X947953Y529724*
X953858*
X947953Y523819*
X1028819Y555315D02*
X1034724D01*
X1028819Y561220*
X1034724*
X1028819Y555315*
X1018819D02*
X1024724D01*
X1018819Y561220*
X1024724*
X1018819Y555315*
X1028819Y523819D02*
X1034724D01*
X1028819Y529724*
X1034724*
X1028819Y523819*
X1018819D02*
X1024724D01*
X1018819Y529724*
X1024724*
X1018819Y523819*
X745354Y468701D02*
X751260D01*
X745354Y474606*
X751260*
X745354Y468701*
X735354D02*
X741260D01*
X735354Y474606*
X741260*
X735354Y468701*
X745354Y437205D02*
X751260D01*
X745354Y443110*
X751260*
X745354Y437205*
X735354D02*
X741260D01*
X735354Y443110*
X741260*
X735354Y437205*
X816220Y468701D02*
X822126D01*
X816220Y474606*
X822126*
X816220Y468701*
X806220D02*
X812126D01*
X806220Y474606*
X812126*
X806220Y468701*
X816220Y437205D02*
X822126D01*
X816220Y443110*
X822126*
X816220Y437205*
X806220D02*
X812126D01*
X806220Y443110*
X812126*
X806220Y437205*
X887087Y468701D02*
X892992D01*
X887087Y474606*
X892992*
X887087Y468701*
X877087D02*
X882992D01*
X877087Y474606*
X882992*
X877087Y468701*
X887087Y437205D02*
X892992D01*
X887087Y443110*
X892992*
X887087Y437205*
X877087D02*
X882992D01*
X877087Y443110*
X882992*
X877087Y437205*
X957953Y468701D02*
X963858D01*
X957953Y474606*
X963858*
X957953Y468701*
X947953D02*
X953858D01*
X947953Y474606*
X953858*
X947953Y468701*
X957953Y437205D02*
X963858D01*
X957953Y443110*
X963858*
X957953Y437205*
X947953D02*
X953858D01*
X947953Y443110*
X953858*
X947953Y437205*
X1028819Y468701D02*
X1034724D01*
X1028819Y474606*
X1034724*
X1028819Y468701*
X1018819D02*
X1024724D01*
X1018819Y474606*
X1024724*
X1018819Y468701*
X1028819Y437205D02*
X1034724D01*
X1028819Y443110*
X1034724*
X1028819Y437205*
X1018819D02*
X1024724D01*
X1018819Y443110*
X1024724*
X1018819Y437205*
X745354Y382087D02*
X751260D01*
X745354Y387992*
X751260*
X745354Y382087*
X735354D02*
X741260D01*
X735354Y387992*
X741260*
X735354Y382087*
X745354Y350591D02*
X751260D01*
X745354Y356496*
X751260*
X745354Y350591*
X735354D02*
X741260D01*
X735354Y356496*
X741260*
X735354Y350591*
X816220Y382087D02*
X822126D01*
X816220Y387992*
X822126*
X816220Y382087*
X806220D02*
X812126D01*
X806220Y387992*
X812126*
X806220Y382087*
X816220Y350591D02*
X822126D01*
X816220Y356496*
X822126*
X816220Y350591*
X806220D02*
X812126D01*
X806220Y356496*
X812126*
X806220Y350591*
X887087Y382087D02*
X892992D01*
X887087Y387992*
X892992*
X887087Y382087*
X877087D02*
X882992D01*
X877087Y387992*
X882992*
X877087Y382087*
X887087Y350591D02*
X892992D01*
X887087Y356496*
X892992*
X887087Y350591*
X877087D02*
X882992D01*
X877087Y356496*
X882992*
X877087Y350591*
X957953Y382087D02*
X963858D01*
X957953Y387992*
X963858*
X957953Y382087*
X947953D02*
X953858D01*
X947953Y387992*
X953858*
X947953Y382087*
X957953Y350591D02*
X963858D01*
X957953Y356496*
X963858*
X957953Y350591*
X947953D02*
X953858D01*
X947953Y356496*
X953858*
X947953Y350591*
X1028819Y382087D02*
X1034724D01*
X1028819Y387992*
X1034724*
X1028819Y382087*
X1018819D02*
X1024724D01*
X1018819Y387992*
X1024724*
X1018819Y382087*
X1028819Y350591D02*
X1034724D01*
X1028819Y356496*
X1034724*
X1028819Y350591*
X1018819D02*
X1024724D01*
X1018819Y356496*
X1024724*
X1018819Y350591*
X304409Y468701D02*
X310315D01*
X304409Y474606*
X310315*
X304409Y468701*
X294409D02*
X300315D01*
X294409Y474606*
X300315*
X294409Y468701*
X304409Y437205D02*
X310315D01*
X304409Y443110*
X310315*
X304409Y437205*
X294409D02*
X300315D01*
X294409Y443110*
X300315*
X294409Y437205*
X375276Y468701D02*
X381181D01*
X375276Y474606*
X381181*
X375276Y468701*
X365276D02*
X371181D01*
X365276Y474606*
X371181*
X365276Y468701*
X375276Y437205D02*
X381181D01*
X375276Y443110*
X381181*
X375276Y437205*
X365276D02*
X371181D01*
X365276Y443110*
X371181*
X365276Y437205*
X446142Y468701D02*
X452047D01*
X446142Y474606*
X452047*
X446142Y468701*
X436142D02*
X442047D01*
X436142Y474606*
X442047*
X436142Y468701*
X446142Y437205D02*
X452047D01*
X446142Y443110*
X452047*
X446142Y437205*
X436142D02*
X442047D01*
X436142Y443110*
X442047*
X436142Y437205*
X517008Y468701D02*
X522913D01*
X517008Y474606*
X522913*
X517008Y468701*
X507008D02*
X512913D01*
X507008Y474606*
X512913*
X507008Y468701*
X517008Y437205D02*
X522913D01*
X517008Y443110*
X522913*
X517008Y437205*
X507008D02*
X512913D01*
X507008Y443110*
X512913*
X507008Y437205*
X587874Y468701D02*
X593780D01*
X587874Y474606*
X593780*
X587874Y468701*
X577874D02*
X583780D01*
X577874Y474606*
X583780*
X577874Y468701*
X587874Y437205D02*
X593780D01*
X587874Y443110*
X593780*
X587874Y437205*
X577874D02*
X583780D01*
X577874Y443110*
X583780*
X577874Y437205*
X304409Y382087D02*
X310315D01*
X304409Y387992*
X310315*
X304409Y382087*
X294409D02*
X300315D01*
X294409Y387992*
X300315*
X294409Y382087*
X304409Y350591D02*
X310315D01*
X304409Y356496*
X310315*
X304409Y350591*
X294409D02*
X300315D01*
X294409Y356496*
X300315*
X294409Y350591*
X375276Y382087D02*
X381181D01*
X375276Y387992*
X381181*
X375276Y382087*
X365276D02*
X371181D01*
X365276Y387992*
X371181*
X365276Y382087*
X375276Y350591D02*
X381181D01*
X375276Y356496*
X381181*
X375276Y350591*
X365276D02*
X371181D01*
X365276Y356496*
X371181*
X365276Y350591*
X446142Y382087D02*
X452047D01*
X446142Y387992*
X452047*
X446142Y382087*
X436142D02*
X442047D01*
X436142Y387992*
X442047*
X436142Y382087*
X446142Y350591D02*
X452047D01*
X446142Y356496*
X452047*
X446142Y350591*
X436142D02*
X442047D01*
X436142Y356496*
X442047*
X436142Y350591*
X517008Y382087D02*
X522913D01*
X517008Y387992*
X522913*
X517008Y382087*
X507008D02*
X512913D01*
X507008Y387992*
X512913*
X507008Y382087*
X517008Y350591D02*
X522913D01*
X517008Y356496*
X522913*
X517008Y350591*
X507008D02*
X512913D01*
X507008Y356496*
X512913*
X507008Y350591*
X587874Y382087D02*
X593780D01*
X587874Y387992*
X593780*
X587874Y382087*
X577874D02*
X583780D01*
X577874Y387992*
X583780*
X577874Y382087*
X587874Y350591D02*
X593780D01*
X587874Y356496*
X593780*
X587874Y350591*
X577874D02*
X583780D01*
X577874Y356496*
X583780*
X577874Y350591*
X212795Y215748D02*
X218701D01*
X215748Y212795D02*
Y218701D01*
X1110433Y215748D02*
X1116339D01*
X1113386Y212795D02*
Y218701D01*
X1110433Y782677D02*
X1116339D01*
X1113386Y779724D02*
Y785630D01*
X212795Y782677D02*
X218701D01*
X215748Y779724D02*
Y785630D01*
X661614Y782677D02*
X667520D01*
X664567Y779724D02*
Y785630D01*
X661614Y215748D02*
X667520D01*
X664567Y212795D02*
Y218701D01*
X348622Y204921D02*
X354528Y210827D01*
X348622D02*
X354528Y204921D01*
X512008D02*
X517913Y210827D01*
X512008D02*
X517913Y204921D01*
X626181D02*
X632087Y210827D01*
X626181D02*
X632087Y204921D01*
X634843Y206890D02*
X640748Y212795D01*
X634843D02*
X640748Y206890D01*
X633268Y212402D02*
X639173Y218307D01*
X633268D02*
X639173Y212402D01*
X240354Y222638D02*
X246260Y228543D01*
X240354D02*
X246260Y222638D01*
X700984D02*
X706890Y228543D01*
X700984D02*
X706890Y222638D01*
X720276Y223425D02*
X726181Y229331D01*
X720276D02*
X726181Y223425D01*
X724213D02*
X730118Y229331D01*
X724213D02*
X730118Y223425D01*
X739961D02*
X745866Y229331D01*
X739961D02*
X745866Y223425D01*
X762008Y220669D02*
X767913Y226575D01*
X762008D02*
X767913Y220669D01*
X806890Y221850D02*
X812795Y227756D01*
X806890D02*
X812795Y221850D01*
X830512Y221457D02*
X836417Y227362D01*
X830512D02*
X836417Y221457D01*
X933661Y221850D02*
X939567Y227756D01*
X933661D02*
X939567Y221850D01*
X956496D02*
X962402Y227756D01*
X956496D02*
X962402Y221850D01*
X992323Y214764D02*
X998228Y220669D01*
X992323D02*
X998228Y214764D01*
X1053346Y222638D02*
X1059252Y228543D01*
X1053346D02*
X1059252Y222638D01*
X369094Y228937D02*
X375000Y234843D01*
X369094D02*
X375000Y228937D01*
X382087Y225787D02*
X387992Y231693D01*
X382087D02*
X387992Y225787D01*
X406496D02*
X412402Y231693D01*
X406496D02*
X412402Y225787D01*
X477756Y233268D02*
X483661Y239173D01*
X477756D02*
X483661Y233268D01*
X496260Y225787D02*
X502165Y231693D01*
X496260D02*
X502165Y225787D01*
X520276D02*
X526181Y231693D01*
X520276D02*
X526181Y225787D01*
X550591Y233661D02*
X556496Y239567D01*
X550591D02*
X556496Y233661D01*
X557283Y232480D02*
X563189Y238386D01*
X557283D02*
X563189Y232480D01*
X704134Y232874D02*
X710039Y238780D01*
X704134D02*
X710039Y232874D01*
X720276Y231693D02*
X726181Y237598D01*
X720276D02*
X726181Y231693D01*
X724213D02*
X730118Y237598D01*
X724213D02*
X730118Y231693D01*
X736811Y233268D02*
X742717Y239173D01*
X736811D02*
X742717Y233268D01*
X733661D02*
X739567Y239173D01*
X733661D02*
X739567Y233268D01*
X766339Y227362D02*
X772244Y233268D01*
X766339D02*
X772244Y227362D01*
X766732Y231693D02*
X772638Y237598D01*
X766732D02*
X772638Y231693D01*
X797441Y229724D02*
X803346Y235630D01*
X797441D02*
X803346Y229724D01*
X872244Y226575D02*
X878150Y232480D01*
X872244D02*
X878150Y226575D01*
X923425Y229331D02*
X929331Y235236D01*
X923425D02*
X929331Y229331D01*
X945079Y226575D02*
X950984Y232480D01*
X945079D02*
X950984Y226575D01*
X295472Y236417D02*
X301378Y242323D01*
X295472D02*
X301378Y236417D01*
X385630Y239567D02*
X391535Y245472D01*
X385630D02*
X391535Y239567D01*
X389961D02*
X395866Y245472D01*
X389961D02*
X395866Y239567D01*
X385630Y236024D02*
X391535Y241929D01*
X385630D02*
X391535Y236024D01*
X389961D02*
X395866Y241929D01*
X389961D02*
X395866Y236024D01*
X394291Y239567D02*
X400197Y245472D01*
X394291D02*
X400197Y239567D01*
X394291Y236024D02*
X400197Y241929D01*
X394291D02*
X400197Y236024D01*
X409646Y241929D02*
X415551Y247835D01*
X409646D02*
X415551Y241929D01*
X408071Y238780D02*
X413976Y244685D01*
X408071D02*
X413976Y238780D01*
X412402Y244291D02*
X418307Y250197D01*
X412402D02*
X418307Y244291D01*
X499803Y239173D02*
X505709Y245079D01*
X499803D02*
X505709Y239173D01*
X499803Y235630D02*
X505709Y241535D01*
X499803D02*
X505709Y235630D01*
X504134Y239173D02*
X510039Y245079D01*
X504134D02*
X510039Y239173D01*
X508465D02*
X514370Y245079D01*
X508465D02*
X514370Y239173D01*
X504134Y235630D02*
X510039Y241535D01*
X504134D02*
X510039Y235630D01*
X508465D02*
X514370Y241535D01*
X508465D02*
X514370Y235630D01*
X521063Y239173D02*
X526969Y245079D01*
X521063D02*
X526969Y239173D01*
X549016Y237205D02*
X554921Y243110D01*
X549016D02*
X554921Y237205D01*
X542717Y243110D02*
X548622Y249016D01*
X542717D02*
X548622Y243110D01*
X608465Y240354D02*
X614370Y246260D01*
X608465D02*
X614370Y240354D01*
X704921Y242323D02*
X710827D01*
Y248228*
X704921*
Y242323*
X707874Y245276D02*
Y248228D01*
X703346Y237598D02*
X709252Y243504D01*
X703346D02*
X709252Y237598D01*
X707283D02*
X713189Y243504D01*
X707283D02*
X713189Y237598D01*
X710433D02*
X716339Y243504D01*
X710433D02*
X716339Y237598D01*
X720276Y234843D02*
X726181Y240748D01*
X720276D02*
X726181Y234843D01*
X724213D02*
X730118Y240748D01*
X724213D02*
X730118Y234843D01*
X733661Y237598D02*
X739567Y243504D01*
X733661D02*
X739567Y237598D01*
X737205D02*
X743110Y243504D01*
X737205D02*
X743110Y237598D01*
X814764Y239173D02*
X820669Y245079D01*
X814764D02*
X820669Y239173D01*
X819094D02*
X825000Y245079D01*
X819094D02*
X825000Y239173D01*
X814764Y236024D02*
X820669Y241929D01*
X814764D02*
X820669Y236024D01*
X819094D02*
X825000Y241929D01*
X819094D02*
X825000Y236024D01*
X823425Y239173D02*
X829331Y245079D01*
X823425D02*
X829331Y239173D01*
X823425Y236024D02*
X829331Y241929D01*
X823425D02*
X829331Y236024D01*
X836024Y239173D02*
X841929Y245079D01*
X836024D02*
X841929Y239173D01*
X847441Y236811D02*
X853346Y242717D01*
X847441D02*
X853346Y236811D01*
X844291Y240748D02*
X850197Y246654D01*
X844291D02*
X850197Y240748D01*
X940748Y239567D02*
X946654Y245472D01*
X940748D02*
X946654Y239567D01*
X940748Y236024D02*
X946654Y241929D01*
X940748D02*
X946654Y236024D01*
X945079Y239567D02*
X950984Y245472D01*
X945079D02*
X950984Y239567D01*
X949409D02*
X955315Y245472D01*
X949409D02*
X955315Y239567D01*
X945079Y236024D02*
X950984Y241929D01*
X945079D02*
X950984Y236024D01*
X949409D02*
X955315Y241929D01*
X949409D02*
X955315Y236024D01*
X962402Y239173D02*
X968307Y245079D01*
X962402D02*
X968307Y239173D01*
X990748Y240748D02*
X996654Y246654D01*
X990748D02*
X996654Y240748D01*
X986417Y243504D02*
X992323Y249409D01*
X986417D02*
X992323Y243504D01*
X210827Y254134D02*
X216732Y260039D01*
X210827D02*
X216732Y254134D01*
X338780Y248228D02*
X344685Y254134D01*
X338780D02*
X344685Y248228D01*
X347835Y245079D02*
X353740Y250984D01*
X347835D02*
X353740Y245079D01*
X361614Y250197D02*
X367520Y256102D01*
X361614D02*
X367520Y250197D01*
X369488D02*
X375394Y256102D01*
X369488D02*
X375394Y250197D01*
X407283Y246260D02*
X413189Y252165D01*
X407283D02*
X413189Y246260D01*
X412402Y250591D02*
X418307Y256496D01*
X412402D02*
X418307Y250591D01*
X430512Y254134D02*
X436417Y260039D01*
X430512D02*
X436417Y254134D01*
X425000Y251378D02*
X430906Y257283D01*
X425000D02*
X430906Y251378D01*
X449016Y248228D02*
X454921Y254134D01*
X449016D02*
X454921Y248228D01*
X458071Y250197D02*
X463976Y256102D01*
X458071D02*
X463976Y250197D01*
X452953Y253740D02*
X458858Y259646D01*
X452953D02*
X458858Y253740D01*
X481299Y250591D02*
X487205Y256496D01*
X481299D02*
X487205Y250591D01*
X485236Y246260D02*
X491142Y252165D01*
X485236D02*
X491142Y246260D01*
X525394Y253346D02*
X531299Y259252D01*
X525394D02*
X531299Y253346D01*
X528543Y250591D02*
X534449Y256496D01*
X528543D02*
X534449Y250591D01*
X529331Y246260D02*
X535236Y252165D01*
X529331D02*
X535236Y246260D01*
X543504Y252165D02*
X549409Y258071D01*
X543504D02*
X549409Y252165D01*
X689173Y246260D02*
X695079Y252165D01*
X689173D02*
X695079Y246260D01*
X704921Y247441D02*
X710827D01*
Y253346*
X704921*
Y247441*
X707874Y250394D02*
Y253346D01*
X720669Y251772D02*
X726575Y257677D01*
X720669D02*
X726575Y251772D01*
X724213D02*
X730118Y257677D01*
X724213D02*
X730118Y251772D01*
X841142Y245472D02*
X847047Y251378D01*
X841142D02*
X847047Y245472D01*
X844685Y249016D02*
X850591Y254921D01*
X844685D02*
X850591Y249016D01*
X867913Y251772D02*
X873819Y257677D01*
X867913D02*
X873819Y251772D01*
X874213Y246260D02*
X880118Y252165D01*
X874213D02*
X880118Y246260D01*
X876969Y254134D02*
X882874Y260039D01*
X876969D02*
X882874Y254134D01*
X906890D02*
X912795Y260039D01*
X906890D02*
X912795Y254134D01*
X911614Y248228D02*
X917520Y254134D01*
X911614D02*
X917520Y248228D01*
X918307Y247047D02*
X924213Y252953D01*
X918307D02*
X924213Y247047D01*
X913189Y251772D02*
X919094Y257677D01*
X913189D02*
X919094Y251772D01*
X925394Y249409D02*
X931299Y255315D01*
X925394D02*
X931299Y249409D01*
X967913Y247835D02*
X973819Y253740D01*
X967913D02*
X973819Y247835D01*
X975000Y252559D02*
X980906Y258465D01*
X975000D02*
X980906Y252559D01*
X972244Y246654D02*
X978150Y252559D01*
X972244D02*
X978150Y246654D01*
X988386Y252165D02*
X994291Y258071D01*
X988386D02*
X994291Y252165D01*
X981693Y249803D02*
X987598Y255709D01*
X981693D02*
X987598Y249803D01*
X314370Y264370D02*
X320276D01*
Y270276*
X314370*
Y264370*
X317323Y267323D02*
Y270276D01*
X368701Y254921D02*
X374606Y260827D01*
X368701D02*
X374606Y254921D01*
X385630Y260433D02*
X391535Y266339D01*
X385630D02*
X391535Y260433D01*
X389961D02*
X395866Y266339D01*
X389961D02*
X395866Y260433D01*
X385630Y256890D02*
X391535Y262795D01*
X385630D02*
X391535Y256890D01*
X389961D02*
X395866Y262795D01*
X389961D02*
X395866Y256890D01*
X394291Y260433D02*
X400197Y266339D01*
X394291D02*
X400197Y260433D01*
X394291Y256890D02*
X400197Y262795D01*
X394291D02*
X400197Y256890D01*
X499803Y260433D02*
X505709Y266339D01*
X499803D02*
X505709Y260433D01*
X499803Y256890D02*
X505709Y262795D01*
X499803D02*
X505709Y256890D01*
X504134Y260433D02*
X510039Y266339D01*
X504134D02*
X510039Y260433D01*
X508465D02*
X514370Y266339D01*
X508465D02*
X514370Y260433D01*
X504134Y256890D02*
X510039Y262795D01*
X504134D02*
X510039Y256890D01*
X508465D02*
X514370Y262795D01*
X508465D02*
X514370Y256890D01*
X524606Y263189D02*
X530512Y269094D01*
X524606D02*
X530512Y263189D01*
X663583Y263976D02*
X669488Y269882D01*
X663583D02*
X669488Y263976D01*
X717520Y261614D02*
X723425Y267520D01*
X717520D02*
X723425Y261614D01*
X726575D02*
X732480Y267520D01*
X726575D02*
X732480Y261614D01*
X721850D02*
X727756Y267520D01*
X721850D02*
X727756Y261614D01*
X777756Y262008D02*
X783661Y267913D01*
X777756D02*
X783661Y262008D01*
X790354Y255315D02*
X796260Y261220D01*
X790354D02*
X796260Y255315D01*
X792717Y257677D02*
X798622Y263583D01*
X792717D02*
X798622Y257677D01*
X814764Y260433D02*
X820669Y266339D01*
X814764D02*
X820669Y260433D01*
X819094D02*
X825000Y266339D01*
X819094D02*
X825000Y260433D01*
X814764Y256890D02*
X820669Y262795D01*
X814764D02*
X820669Y256890D01*
X819094D02*
X825000Y262795D01*
X819094D02*
X825000Y256890D01*
X823425Y260433D02*
X829331Y266339D01*
X823425D02*
X829331Y260433D01*
X823425Y256890D02*
X829331Y262795D01*
X823425D02*
X829331Y256890D01*
X940748Y260433D02*
X946654Y266339D01*
X940748D02*
X946654Y260433D01*
X940748Y256890D02*
X946654Y262795D01*
X940748D02*
X946654Y256890D01*
X945079Y260433D02*
X950984Y266339D01*
X945079D02*
X950984Y260433D01*
X949409D02*
X955315Y266339D01*
X949409D02*
X955315Y260433D01*
X945079Y256890D02*
X950984Y262795D01*
X945079D02*
X950984Y256890D01*
X949409D02*
X955315Y262795D01*
X949409D02*
X955315Y256890D01*
X976181Y260039D02*
X982087Y265945D01*
X976181D02*
X982087Y260039D01*
X980118D02*
X986024Y265945D01*
X980118D02*
X986024Y260039D01*
X179331Y273819D02*
X185236Y279724D01*
X179331D02*
X185236Y273819D01*
X309709Y269031D02*
X315614D01*
Y274937*
X309709*
Y269031*
X312661Y271984D02*
Y274937D01*
X319031Y269031D02*
X324937D01*
Y274937*
X319031*
Y269031*
X321984Y271984D02*
Y274937D01*
X334843Y271850D02*
X340748Y277756D01*
X334843D02*
X340748Y271850D01*
X378150Y269882D02*
X384055Y275787D01*
X378150D02*
X384055Y269882D01*
X417520Y271850D02*
X423425Y277756D01*
X417520D02*
X423425Y271850D01*
X476575D02*
X482480Y277756D01*
X476575D02*
X482480Y271850D01*
X529724Y266339D02*
X535630Y272244D01*
X529724D02*
X535630Y266339D01*
X594685Y269882D02*
X600591Y275787D01*
X594685D02*
X600591Y269882D01*
X722638D02*
X728543Y275787D01*
X722638D02*
X728543Y269882D01*
X848622Y265945D02*
X854528Y271850D01*
X848622D02*
X854528Y265945D01*
X899803D02*
X905709Y271850D01*
X899803D02*
X905709Y265945D01*
X958858Y267913D02*
X964764Y273819D01*
X958858D02*
X964764Y267913D01*
X971850Y273819D02*
X977756Y279724D01*
X971850D02*
X977756Y273819D01*
X988386Y269882D02*
X994291Y275787D01*
X988386D02*
X994291Y269882D01*
X1010039Y265157D02*
X1015945D01*
Y271063*
X1010039*
Y265157*
X1012992Y268110D02*
Y271063D01*
X1005378Y269819D02*
X1011283D01*
Y275724*
X1005378*
Y269819*
X1008331Y272772D02*
Y275724D01*
X1014701Y269819D02*
X1020606D01*
Y275724*
X1014701*
Y269819*
X1017654Y272772D02*
Y275724D01*
X1051378Y267913D02*
X1057283Y273819D01*
X1051378D02*
X1057283Y267913D01*
X1106496Y265945D02*
X1112402Y271850D01*
X1106496D02*
X1112402Y265945D01*
X263976Y277756D02*
X269882Y283661D01*
X263976D02*
X269882Y277756D01*
X314764Y283268D02*
X320669D01*
Y289173*
X314764*
Y283268*
X317717Y286220D02*
Y289173D01*
X329331Y279331D02*
X335236Y285236D01*
X329331D02*
X335236Y279331D01*
X332087Y276969D02*
X337992Y282874D01*
X332087D02*
X337992Y276969D01*
X375394Y283268D02*
X381299D01*
Y289173*
X375394*
Y283268*
X378346Y286220D02*
Y289173D01*
X389173Y276181D02*
X395079Y282087D01*
X389173D02*
X395079Y276181D01*
X392717Y276575D02*
X398622Y282480D01*
X392717D02*
X398622Y276575D01*
X418307Y276969D02*
X424213Y282874D01*
X418307D02*
X424213Y276969D01*
X413976Y279331D02*
X419882Y285236D01*
X413976D02*
X419882Y279331D01*
X446260Y283268D02*
X452165D01*
Y289173*
X446260*
Y283268*
X449213Y286220D02*
Y289173D01*
X517126Y283268D02*
X523031D01*
Y289173*
X517126*
Y283268*
X520079Y286220D02*
Y289173D01*
X587992Y283268D02*
X593898D01*
Y289173*
X587992*
Y283268*
X590945Y286220D02*
Y289173D01*
X695472Y283268D02*
X701378D01*
Y289173*
X695472*
Y283268*
X698425Y286220D02*
Y289173D01*
X700984Y283268D02*
X706890D01*
Y289173*
X700984*
Y283268*
X703937Y286220D02*
Y289173D01*
X745472Y283268D02*
X751378D01*
Y289173*
X745472*
Y283268*
X748425Y286220D02*
Y289173D01*
X791142Y278543D02*
X797047Y284449D01*
X791142D02*
X797047Y278543D01*
X785630Y279331D02*
X791535Y285236D01*
X785630D02*
X791535Y279331D01*
X799803Y278937D02*
X805709Y284843D01*
X799803D02*
X805709Y278937D01*
X802953Y276969D02*
X808858Y282874D01*
X802953D02*
X808858Y276969D01*
X816339Y283268D02*
X822244D01*
Y289173*
X816339*
Y283268*
X819291Y286220D02*
Y289173D01*
X887205Y283268D02*
X893110D01*
Y289173*
X887205*
Y283268*
X890157Y286220D02*
Y289173D01*
X920669Y277362D02*
X926575Y283268D01*
X920669D02*
X926575Y277362D01*
X928543Y278937D02*
X934449Y284843D01*
X928543D02*
X934449Y278937D01*
Y279331D02*
X940354Y285236D01*
X934449D02*
X940354Y279331D01*
X937205Y276969D02*
X943110Y282874D01*
X937205D02*
X943110Y276969D01*
X958071Y283268D02*
X963976D01*
Y289173*
X958071*
Y283268*
X961024Y286220D02*
Y289173D01*
X966732Y274606D02*
X972638Y280512D01*
X966732D02*
X972638Y274606D01*
X987598Y276969D02*
X993504Y282874D01*
X987598D02*
X993504Y276969D01*
X991929Y279331D02*
X997835Y285236D01*
X991929D02*
X997835Y279331D01*
X1009252Y283268D02*
X1015157D01*
Y289173*
X1009252*
Y283268*
X1012205Y286220D02*
Y289173D01*
X661614Y309252D02*
X667520Y315157D01*
X661614D02*
X667520Y309252D01*
X1104528Y332874D02*
X1110433Y338780D01*
X1104528D02*
X1110433Y332874D01*
X145866Y336811D02*
X151772Y342717D01*
X145866D02*
X151772Y336811D01*
X177362Y334843D02*
X183268Y340748D01*
X177362D02*
X183268Y334843D01*
X202953Y364370D02*
X208858Y370276D01*
X202953D02*
X208858Y364370D01*
X177362Y393898D02*
X183268Y399803D01*
X177362D02*
X183268Y393898D01*
X194685Y411614D02*
X200591D01*
Y417520*
X194685*
Y411614*
X197638Y414567D02*
Y417520D01*
X200197Y411614D02*
X206102D01*
Y417520*
X200197*
Y411614*
X203150Y414567D02*
Y417520D01*
X206496Y412795D02*
X212402D01*
Y418701*
X206496*
Y412795*
X209449Y415748D02*
Y418701D01*
X659646Y413583D02*
X665551Y419488D01*
X659646D02*
X665551Y413583D01*
X148622Y421063D02*
X154528Y426969D01*
X148622D02*
X154528Y421063D01*
X207677Y419488D02*
X213583D01*
Y425394*
X207677*
Y419488*
X210630Y422441D02*
Y425394D01*
X164370Y428150D02*
X170276D01*
Y434055*
X164370*
Y428150*
X167323Y431102D02*
Y434055D01*
X200197Y426181D02*
X206102D01*
Y432087*
X200197*
Y426181*
X203150Y429134D02*
Y432087D01*
X206496Y426181D02*
X212402D01*
Y432087*
X206496*
Y426181*
X209449Y429134D02*
Y432087D01*
X164370Y438386D02*
X170276D01*
Y444291*
X164370*
Y438386*
X167323Y441339D02*
Y444291D01*
X195472Y447835D02*
X201378D01*
Y453740*
X195472*
Y447835*
X198425Y450787D02*
Y453740D01*
X212008Y461220D02*
X217913D01*
Y467126*
X212008*
Y461220*
X214961Y464173D02*
Y467126D01*
X1106496Y458858D02*
X1112402Y464764D01*
X1106496D02*
X1112402Y458858D01*
X223819Y471063D02*
X229724D01*
Y476969*
X223819*
Y471063*
X226772Y474016D02*
Y476969D01*
X220669Y483268D02*
X226575D01*
Y489173*
X220669*
Y483268*
X223622Y486220D02*
Y489173D01*
X223819Y476575D02*
X229724D01*
Y482480*
X223819*
Y476575*
X226772Y479528D02*
Y482480D01*
X222638Y510039D02*
X228543Y515945D01*
X222638D02*
X228543Y510039D01*
X223031Y604134D02*
X228937Y610039D01*
X223031D02*
X228937Y604134D01*
X212008Y603346D02*
X217913D01*
Y609252*
X212008*
Y603346*
X214961Y606299D02*
Y609252D01*
X661614Y551378D02*
X667520Y557283D01*
X661614D02*
X667520Y551378D01*
X1104528Y586811D02*
X1110433Y592717D01*
X1104528D02*
X1110433Y586811D01*
X265945Y738386D02*
X271850Y744291D01*
X265945D02*
X271850Y738386D01*
X222638Y703346D02*
X228543Y709252D01*
X222638D02*
X228543Y703346D01*
X235236Y708465D02*
X241142Y714370D01*
X235236D02*
X241142Y708465D01*
X281299Y745079D02*
X287205Y750984D01*
X281299D02*
X287205Y745079D01*
X217913Y741535D02*
X223819D01*
Y747441*
X217913*
Y741535*
X220866Y744488D02*
Y747441D01*
X203346Y760433D02*
X209252D01*
Y766339*
X203346*
Y760433*
X206299Y763386D02*
Y766339D01*
X285630Y742717D02*
X291535Y748622D01*
X285630D02*
X291535Y742717D01*
X327756Y734055D02*
X333661Y739961D01*
X327756D02*
X333661Y734055D01*
X311614Y764370D02*
X317520Y770276D01*
X311614D02*
X317520Y764370D01*
X336417Y746654D02*
X342323Y752559D01*
X336417D02*
X342323Y746654D01*
X302559Y710827D02*
X308465D01*
Y716732*
X302559*
Y710827*
X305512Y713780D02*
Y716732D01*
X349409Y752953D02*
X355315Y758858D01*
X349409D02*
X355315Y752953D01*
X343110Y755315D02*
X349016Y761220D01*
X343110D02*
X349016Y755315D01*
X353346Y732480D02*
X359252Y738386D01*
X353346D02*
X359252Y732480D01*
X350591Y734843D02*
X356496Y740748D01*
X350591D02*
X356496Y734843D01*
X357283Y735630D02*
X363189Y741535D01*
X357283D02*
X363189Y735630D01*
X358858Y738780D02*
X364764Y744685D01*
X358858D02*
X364764Y738780D01*
X319425Y724276D02*
X325331D01*
Y730181*
X319425*
Y724276*
X322378Y727228D02*
Y730181D01*
X310102Y724276D02*
X316008D01*
Y730181*
X310102*
Y724276*
X313055Y727228D02*
Y730181D01*
X314764Y728937D02*
X320669D01*
Y734843*
X314764*
Y728937*
X317717Y731890D02*
Y734843D01*
X425787Y732874D02*
X431693Y738780D01*
X425787D02*
X431693Y732874D01*
X405709Y718701D02*
X411614Y724606D01*
X405709D02*
X411614Y718701D01*
X373425Y710827D02*
X379331D01*
Y716732*
X373425*
Y710827*
X376378Y713780D02*
Y716732D01*
X431299Y733268D02*
X437205Y739173D01*
X431299D02*
X437205Y733268D01*
X436811Y736024D02*
X442717Y741929D01*
X436811D02*
X442717Y736024D01*
X386417Y726181D02*
X392323Y732087D01*
X386417D02*
X392323Y726181D01*
X382087D02*
X387992Y732087D01*
X382087D02*
X387992Y726181D01*
X377756D02*
X383661Y732087D01*
X377756D02*
X383661Y726181D01*
X377756Y729724D02*
X383661Y735630D01*
X377756D02*
X383661Y729724D01*
X386417D02*
X392323Y735630D01*
X386417D02*
X392323Y729724D01*
X382087D02*
X387992Y735630D01*
X382087D02*
X387992Y729724D01*
X377756Y750984D02*
X383661Y756890D01*
X377756D02*
X383661Y750984D01*
X382087D02*
X387992Y756890D01*
X382087D02*
X387992Y750984D01*
X386417D02*
X392323Y756890D01*
X386417D02*
X392323Y750984D01*
X386417Y747441D02*
X392323Y753346D01*
X386417D02*
X392323Y747441D01*
X377756D02*
X383661Y753346D01*
X377756D02*
X383661Y747441D01*
X403740Y756890D02*
X409646Y762795D01*
X403740D02*
X409646Y756890D01*
X398228Y760827D02*
X404134Y766732D01*
X398228D02*
X404134Y760827D01*
X365157Y747441D02*
X371063Y753346D01*
X365157D02*
X371063Y747441D01*
X374213Y760827D02*
X380118Y766732D01*
X374213D02*
X380118Y760827D01*
X382087Y747441D02*
X387992Y753346D01*
X382087D02*
X387992Y747441D01*
X478150Y721063D02*
X484055Y726969D01*
X478150D02*
X484055Y721063D01*
X449016Y752953D02*
X454921Y758858D01*
X449016D02*
X454921Y752953D01*
X515157Y710827D02*
X521063D01*
Y716732*
X515157*
Y710827*
X518110Y713780D02*
Y716732D01*
X445472Y710827D02*
X451378D01*
Y716732*
X445472*
Y710827*
X448425Y713780D02*
Y716732D01*
X468307Y757677D02*
X474213Y763583D01*
X468307D02*
X474213Y757677D01*
X469094Y752953D02*
X475000Y758858D01*
X469094D02*
X475000Y752953D01*
X462795Y752165D02*
X468701Y758071D01*
X462795D02*
X468701Y752165D01*
X456890Y753740D02*
X462795Y759646D01*
X456890D02*
X462795Y753740D01*
X471457Y741929D02*
X477362Y747835D01*
X471457D02*
X477362Y741929D01*
X467913Y740354D02*
X473819Y746260D01*
X467913D02*
X473819Y740354D01*
X470276Y737992D02*
X476181Y743898D01*
X470276D02*
X476181Y737992D01*
X473819Y736417D02*
X479724Y742323D01*
X473819D02*
X479724Y736417D01*
X499803Y726181D02*
X505709Y732087D01*
X499803D02*
X505709Y726181D01*
X504134D02*
X510039Y732087D01*
X504134D02*
X510039Y726181D01*
X508465D02*
X514370Y732087D01*
X508465D02*
X514370Y726181D01*
X499803Y729724D02*
X505709Y735630D01*
X499803D02*
X505709Y729724D01*
X504134D02*
X510039Y735630D01*
X504134D02*
X510039Y729724D01*
X508465D02*
X514370Y735630D01*
X508465D02*
X514370Y729724D01*
X499803Y750591D02*
X505709Y756496D01*
X499803D02*
X505709Y750591D01*
X504134D02*
X510039Y756496D01*
X504134D02*
X510039Y750591D01*
X508465D02*
X514370Y756496D01*
X508465D02*
X514370Y750591D01*
X499803Y747047D02*
X505709Y752953D01*
X499803D02*
X505709Y747047D01*
X504134D02*
X510039Y752953D01*
X504134D02*
X510039Y747047D01*
X508465D02*
X514370Y752953D01*
X508465D02*
X514370Y747047D01*
X486417Y747441D02*
X492323Y753346D01*
X486417D02*
X492323Y747441D01*
X492717Y764370D02*
X498622Y770276D01*
X492717D02*
X498622Y764370D01*
X595472Y732087D02*
X601378Y737992D01*
X595472D02*
X601378Y732087D01*
X599016Y752953D02*
X604921Y758858D01*
X599016D02*
X604921Y752953D01*
X559646Y753740D02*
X565551Y759646D01*
X559646D02*
X565551Y753740D01*
X537992Y741535D02*
X543898Y747441D01*
X537992D02*
X543898Y741535D01*
X586024Y710827D02*
X591929D01*
Y716732*
X586024*
Y710827*
X588976Y713780D02*
Y716732D01*
X526181Y739567D02*
X532087Y745472D01*
X526181D02*
X532087Y739567D01*
X534449Y737205D02*
X540354Y743110D01*
X534449D02*
X540354Y737205D01*
X555709Y747835D02*
X561614Y753740D01*
X555709D02*
X561614Y747835D01*
X556890Y742717D02*
X562795Y748622D01*
X556890D02*
X562795Y742717D01*
X525394Y756890D02*
X531299Y762795D01*
X525394D02*
X531299Y756890D01*
X645866Y747441D02*
X651772Y753346D01*
X645866D02*
X651772Y747441D01*
X627756Y724213D02*
X633661Y730118D01*
X627756D02*
X633661Y724213D01*
X663583Y687205D02*
X669488Y693110D01*
X663583D02*
X669488Y687205D01*
X632087Y736024D02*
X637992D01*
Y741929*
X632087*
Y736024*
X635039Y738976D02*
Y741929D01*
X636417Y736024D02*
X642323D01*
Y741929*
X636417*
Y736024*
X639370Y738976D02*
Y741929D01*
X632087Y710827D02*
X637992D01*
Y716732*
X632087*
Y710827*
X635039Y713780D02*
Y716732D01*
X637598Y710827D02*
X643504D01*
Y716732*
X637598*
Y710827*
X640551Y713780D02*
Y716732D01*
X617520Y737205D02*
X623425Y743110D01*
X617520D02*
X623425Y737205D01*
X626181D02*
X632087Y743110D01*
X626181D02*
X632087Y737205D01*
X621850D02*
X627756Y743110D01*
X621850D02*
X627756Y737205D01*
X620276Y748228D02*
X626181Y754134D01*
X620276D02*
X626181Y748228D01*
X634055Y762008D02*
X639961Y767913D01*
X634055D02*
X639961Y762008D01*
X624213Y748228D02*
X630118Y754134D01*
X624213D02*
X630118Y748228D01*
X610827Y762008D02*
X616732Y767913D01*
X610827D02*
X616732Y762008D01*
X637205D02*
X643110Y767913D01*
X637205D02*
X643110Y762008D01*
X607677D02*
X613583Y767913D01*
X607677D02*
X613583Y762008D01*
X754921Y721063D02*
X760827Y726969D01*
X754921D02*
X760827Y721063D01*
X751772Y736024D02*
X757677Y741929D01*
X751772D02*
X757677Y736024D01*
X735236Y746654D02*
X741142Y752559D01*
X735236D02*
X741142Y746654D01*
X707283Y730118D02*
X713189Y736024D01*
X707283D02*
X713189Y730118D01*
X682480Y726181D02*
X688386Y732087D01*
X682480D02*
X688386Y726181D01*
X745472Y710827D02*
X751378D01*
Y716732*
X745472*
Y710827*
X748425Y713780D02*
Y716732D01*
X739173Y745079D02*
X745079Y750984D01*
X739173D02*
X745079Y745079D01*
X728937Y741929D02*
X734843Y747835D01*
X728937D02*
X734843Y741929D01*
X828937Y717913D02*
X834843Y723819D01*
X828937D02*
X834843Y717913D01*
X781693Y736024D02*
X787598Y741929D01*
X781693D02*
X787598Y736024D01*
X816339Y710827D02*
X822244D01*
Y716732*
X816339*
Y710827*
X819291Y713780D02*
Y716732D01*
X839961Y737205D02*
X845866Y743110D01*
X839961D02*
X845866Y737205D01*
X839961Y717126D02*
X845866Y723031D01*
X839961D02*
X845866Y717126D01*
X793110Y732874D02*
X799016Y738780D01*
X793110D02*
X799016Y732874D01*
X790354Y736417D02*
X796260Y742323D01*
X790354D02*
X796260Y736417D01*
X799803Y737598D02*
X805709Y743504D01*
X799803D02*
X805709Y737598D01*
X800591Y740748D02*
X806496Y746654D01*
X800591D02*
X806496Y740748D01*
X814764Y726575D02*
X820669Y732480D01*
X814764D02*
X820669Y726575D01*
X819094D02*
X825000Y732480D01*
X819094D02*
X825000Y726575D01*
X823425D02*
X829331Y732480D01*
X823425D02*
X829331Y726575D01*
X814764Y729724D02*
X820669Y735630D01*
X814764D02*
X820669Y729724D01*
X819094D02*
X825000Y735630D01*
X819094D02*
X825000Y729724D01*
X823425D02*
X829331Y735630D01*
X823425D02*
X829331Y729724D01*
X814764Y747047D02*
X820669Y752953D01*
X814764D02*
X820669Y747047D01*
X819094D02*
X825000Y752953D01*
X819094D02*
X825000Y747047D01*
X823425D02*
X829331Y752953D01*
X823425D02*
X829331Y747047D01*
X814764Y750591D02*
X820669Y756496D01*
X814764D02*
X820669Y750591D01*
X819094D02*
X825000Y756496D01*
X819094D02*
X825000Y750591D01*
X823425D02*
X829331Y756496D01*
X823425D02*
X829331Y750591D01*
X802165Y747441D02*
X808071Y753346D01*
X802165D02*
X808071Y747441D01*
X840748Y756496D02*
X846654Y762402D01*
X840748D02*
X846654Y756496D01*
X850984Y722244D02*
X856890Y728150D01*
X850984D02*
X856890Y722244D01*
X896260Y722638D02*
X902165Y728543D01*
X896260D02*
X902165Y722638D01*
X894291Y750591D02*
X900197Y756496D01*
X894291D02*
X900197Y750591D01*
X881299Y741142D02*
X887205Y747047D01*
X881299D02*
X887205Y741142D01*
X850591Y742717D02*
X856496Y748622D01*
X850591D02*
X856496Y742717D01*
X887205Y710827D02*
X893110D01*
Y716732*
X887205*
Y710827*
X890157Y713780D02*
Y716732D01*
X895079Y744685D02*
X900984Y750591D01*
X895079D02*
X900984Y744685D01*
X898622Y742323D02*
X904528Y748228D01*
X898622D02*
X904528Y742323D01*
X856496Y736811D02*
X862402Y742717D01*
X856496D02*
X862402Y736811D01*
X863189Y737992D02*
X869094Y743898D01*
X863189D02*
X869094Y737992D01*
X891929Y739173D02*
X897835Y745079D01*
X891929D02*
X897835Y739173D01*
X887992Y740354D02*
X893898Y746260D01*
X887992D02*
X893898Y740354D01*
X844291Y739173D02*
X850197Y745079D01*
X844291D02*
X850197Y739173D01*
X844291Y718307D02*
X850197Y724213D01*
X844291D02*
X850197Y718307D01*
X910039Y732874D02*
X915945Y738780D01*
X910039D02*
X915945Y732874D01*
X919094Y732480D02*
X925000Y738386D01*
X919094D02*
X925000Y732480D01*
X959646Y722244D02*
X965551Y728150D01*
X959646D02*
X965551Y722244D01*
X946654Y761614D02*
X952559Y767520D01*
X946654D02*
X952559Y761614D01*
X998228Y724606D02*
X1004134Y730512D01*
X998228D02*
X1004134Y724606D01*
X975787Y729331D02*
X981693Y735236D01*
X975787D02*
X981693Y729331D01*
X926575Y722638D02*
X932480Y728543D01*
X926575D02*
X932480Y722638D01*
X958071Y710827D02*
X963976D01*
Y716732*
X958071*
Y710827*
X961024Y713780D02*
Y716732D01*
X974606Y738780D02*
X980512Y744685D01*
X974606D02*
X980512Y738780D01*
X983268Y736024D02*
X989173Y741929D01*
X983268D02*
X989173Y736024D01*
X970276Y734055D02*
X976181Y739961D01*
X970276D02*
X976181Y734055D01*
X966339Y732087D02*
X972244Y737992D01*
X966339D02*
X972244Y732087D01*
X996654Y718307D02*
X1002559Y724213D01*
X996654D02*
X1002559Y718307D01*
X965157Y725394D02*
X971063Y731299D01*
X965157D02*
X971063Y725394D01*
X968701Y729331D02*
X974606Y735236D01*
X968701D02*
X974606Y729331D01*
X940748Y726181D02*
X946654Y732087D01*
X940748D02*
X946654Y726181D01*
X945079D02*
X950984Y732087D01*
X945079D02*
X950984Y726181D01*
X949409D02*
X955315Y732087D01*
X949409D02*
X955315Y726181D01*
X940748Y729724D02*
X946654Y735630D01*
X940748D02*
X946654Y729724D01*
X945079D02*
X950984Y735630D01*
X945079D02*
X950984Y729724D01*
X949409D02*
X955315Y735630D01*
X949409D02*
X955315Y729724D01*
X940748Y747047D02*
X946654Y752953D01*
X940748D02*
X946654Y747047D01*
X945079D02*
X950984Y752953D01*
X945079D02*
X950984Y747047D01*
X949409D02*
X955315Y752953D01*
X949409D02*
X955315Y747047D01*
X940748Y750591D02*
X946654Y756496D01*
X940748D02*
X946654Y750591D01*
X945079D02*
X950984Y756496D01*
X945079D02*
X950984Y750591D01*
X949409D02*
X955315Y756496D01*
X949409D02*
X955315Y750591D01*
X927756Y747441D02*
X933661Y753346D01*
X927756D02*
X933661Y747441D01*
X966339Y756496D02*
X972244Y762402D01*
X966339D02*
X972244Y756496D01*
X1077362Y743898D02*
X1083268Y749803D01*
X1077362D02*
X1083268Y743898D01*
X1045079Y721063D02*
X1050984Y726969D01*
X1045079D02*
X1050984Y721063D01*
X1009646Y710827D02*
X1015551D01*
Y716732*
X1009646*
Y710827*
X1012598Y713780D02*
Y716732D01*
X1002559Y715551D02*
X1008465Y721457D01*
X1002559D02*
X1008465Y715551D01*
X1010039Y728543D02*
X1015945D01*
Y734449*
X1010039*
Y728543*
X1012992Y731496D02*
Y734449D01*
X1005378Y723882D02*
X1011283D01*
Y729787*
X1005378*
Y723882*
X1008331Y726835D02*
Y729787D01*
X1014701Y723882D02*
X1020606D01*
Y729787*
X1014701*
Y723882*
X1017654Y726835D02*
Y729787D01*
X1104528Y714764D02*
X1110433Y720669D01*
X1104528D02*
X1110433Y714764D01*
X252165Y777756D02*
X258071Y783661D01*
X252165D02*
X258071Y777756D01*
X338386Y779331D02*
X344291Y785236D01*
X338386D02*
X344291Y779331D01*
X344685Y765945D02*
X350591Y771850D01*
X344685D02*
X350591Y765945D01*
X344291Y771457D02*
X350197Y777362D01*
X344291D02*
X350197Y771457D01*
X344291Y779724D02*
X350197Y785630D01*
X344291D02*
X350197Y779724D01*
X388780Y780118D02*
X394685Y786024D01*
X388780D02*
X394685Y780118D01*
X438780Y779724D02*
X444685Y785630D01*
X438780D02*
X444685Y779724D01*
X514764Y778543D02*
X520669Y784449D01*
X514764D02*
X520669Y778543D01*
X515945Y765157D02*
X521850Y771063D01*
X515945D02*
X521850Y765157D01*
X578543Y776181D02*
X584449Y782087D01*
X578543D02*
X584449Y776181D01*
X623819Y767913D02*
X629724Y773819D01*
X623819D02*
X629724Y767913D01*
X602559Y773425D02*
X608465Y779331D01*
X602559D02*
X608465Y773425D01*
X620276Y767913D02*
X626181Y773819D01*
X620276D02*
X626181Y767913D01*
X606890Y771850D02*
X612795Y777756D01*
X606890D02*
X612795Y771850D01*
X636811Y766339D02*
X642717Y772244D01*
X636811D02*
X642717Y766339D01*
X620276Y776181D02*
X626181Y782087D01*
X620276D02*
X626181Y776181D01*
X624213D02*
X630118Y782087D01*
X624213D02*
X630118Y776181D01*
X620276Y764764D02*
X626181Y770669D01*
X620276D02*
X626181Y764764D01*
X610827Y766339D02*
X616732Y772244D01*
X610827D02*
X616732Y766339D01*
X607677D02*
X613583Y772244D01*
X607677D02*
X613583Y766339D01*
X623819Y764764D02*
X629724Y770669D01*
X623819D02*
X629724Y764764D01*
X696260Y782480D02*
X702165Y788386D01*
X696260D02*
X702165Y782480D01*
X766732Y766339D02*
X772638Y772244D01*
X766732D02*
X772638Y766339D01*
X830906Y764764D02*
X836811Y770669D01*
X830906D02*
X836811Y764764D01*
X807677D02*
X813583Y770669D01*
X807677D02*
X813583Y764764D01*
X904921Y768701D02*
X910827Y774606D01*
X904921D02*
X910827Y768701D01*
X988780Y769094D02*
X994685Y775000D01*
X988780D02*
X994685Y769094D01*
X933268Y764764D02*
X939173Y770669D01*
X933268D02*
X939173Y764764D01*
X957283D02*
X963189Y770669D01*
X957283D02*
X963189Y764764D01*
X1068701Y767913D02*
X1074606Y773819D01*
X1068701D02*
X1074606Y767913D01*
X1015157D02*
X1021063Y773819D01*
X1015157D02*
X1021063Y767913D01*
X200000Y200000D02*
Y262992D01*
X137008*
Y459843*
X200000*
Y798425*
X1129134*
Y200000*
X200000*
X1207677Y334350D02*
X1207319Y334843D01*
X1206782Y335089*
X1206067*
X1205530Y334843*
X1205172Y334350*
Y333858*
X1205351Y333366*
X1205530Y333120*
X1205888Y332874*
X1206961Y332382*
X1207319Y332136*
X1207498Y331890*
X1207677Y331398*
Y330659*
X1207319Y330167*
X1206782Y329921*
X1206067*
X1205530Y330167*
X1205172Y330659*
X1209288Y335089D02*
Y329921D01*
X1213404Y335089D02*
X1210898Y329921D01*
Y335089D02*
X1213404D01*
X1210898Y329921D02*
X1213404D01*
X1215014Y335089D02*
Y329921D01*
Y335089D02*
X1217341D01*
X1215014Y332628D02*
X1216446D01*
X1215014Y329921D02*
X1217341D01*
X1245974Y335089D02*
X1245616Y334843D01*
X1245258Y334350*
X1245079Y333858*
X1244900Y333120*
Y331890*
X1245079Y331152*
X1245258Y330659*
X1245616Y330167*
X1245974Y329921*
X1246689*
X1247047Y330167*
X1247405Y330659*
X1247584Y331152*
X1247763Y331890*
Y333120*
X1247584Y333858*
X1247405Y334350*
X1247047Y334843*
X1246689Y335089*
X1245974*
X1246510Y330906D02*
X1247584Y329429D01*
X1250626Y335089D02*
Y329921D01*
X1249374Y335089D02*
X1251879D01*
X1253490D02*
X1254921Y332628D01*
Y329921*
X1256353Y335089D02*
X1254921Y332628D01*
X1271027Y334350D02*
X1270669Y334843D01*
X1270132Y335089*
X1269417*
X1268880Y334843*
X1268522Y334350*
Y333858*
X1268701Y333366*
X1268880Y333120*
X1269238Y332874*
X1270311Y332382*
X1270669Y332136*
X1270848Y331890*
X1271027Y331398*
Y330659*
X1270669Y330167*
X1270132Y329921*
X1269417*
X1268880Y330167*
X1268522Y330659*
X1272638Y335089D02*
X1274069Y332628D01*
Y329921*
X1275501Y335089D02*
X1274069Y332628D01*
X1277112Y335089D02*
Y329921D01*
Y335089D02*
X1278543Y329921D01*
X1279975Y335089D02*
X1278543Y329921D01*
X1279975Y335089D02*
Y329921D01*
X1294291Y335089D02*
Y329921D01*
Y335089D02*
X1295902D01*
X1296439Y334843*
X1296618Y334596*
X1296797Y334104*
Y333366*
X1296618Y332874*
X1296439Y332628*
X1295902Y332382*
X1294291*
X1298407Y335089D02*
Y329921D01*
X1300555*
X1303597Y335089D02*
X1302165Y329921D01*
X1303597Y335089D02*
X1305029Y329921D01*
X1302702Y331644D02*
X1304492D01*
X1307892Y335089D02*
Y329921D01*
X1306639Y335089D02*
X1309145D01*
X1310755D02*
Y329921D01*
Y335089D02*
X1313082D01*
X1310755Y332628D02*
X1312187D01*
X1310755Y329921D02*
X1313082D01*
X1314692Y335089D02*
Y329921D01*
Y335089D02*
X1315945D01*
X1316482Y334843*
X1316840Y334350*
X1317019Y333858*
X1317198Y333120*
Y331890*
X1317019Y331152*
X1316840Y330659*
X1316482Y330167*
X1315945Y329921*
X1314692*
X1339030Y335089D02*
Y329921D01*
X1337777Y335089D02*
X1340283D01*
X1342967D02*
X1342609Y334843D01*
X1342251Y334350*
X1342072Y333858*
X1341893Y333120*
Y331890*
X1342072Y331152*
X1342251Y330659*
X1342609Y330167*
X1342967Y329921*
X1343683*
X1344041Y330167*
X1344399Y330659*
X1344578Y331152*
X1344757Y331890*
Y333120*
X1344578Y333858*
X1344399Y334350*
X1344041Y334843*
X1343683Y335089*
X1342967*
X1346367D02*
Y329921D01*
X1348515*
X1188547Y319341D02*
X1190515D01*
X1189442Y317372*
X1189979*
X1190336Y317126*
X1190515Y316880*
X1190694Y316142*
Y315650*
X1190515Y314911*
X1190157Y314419*
X1189621Y314173*
X1189084*
X1188547Y314419*
X1188368Y314665*
X1188189Y315157*
X1251611Y318602D02*
X1251432Y319094D01*
X1250895Y319341*
X1250537*
X1250000Y319094*
X1249642Y318356*
X1249463Y317126*
Y315896*
X1249642Y314911*
X1250000Y314419*
X1250537Y314173*
X1250716*
X1251253Y314419*
X1251611Y314911*
X1251790Y315650*
Y315896*
X1251611Y316634*
X1251253Y317126*
X1250716Y317372*
X1250537*
X1250000Y317126*
X1249642Y316634*
X1249463Y315896*
X1270866Y318110D02*
X1278740D01*
X1274803Y314173D02*
Y322047D01*
X1292412Y319341D02*
X1293844Y316880D01*
Y314173*
X1295276Y319341D02*
X1293844Y316880D01*
X1296886Y319341D02*
Y314173D01*
Y319341D02*
X1299213D01*
X1296886Y316880D02*
X1298318D01*
X1296886Y314173D02*
X1299213D01*
X1303329Y318602D02*
X1302971Y319094D01*
X1302434Y319341*
X1301718*
X1301181Y319094*
X1300823Y318602*
Y318110*
X1301002Y317618*
X1301181Y317372*
X1301539Y317126*
X1302613Y316634*
X1302971Y316388*
X1303150Y316142*
X1303329Y315650*
Y314911*
X1302971Y314419*
X1302434Y314173*
X1301718*
X1301181Y314419*
X1300823Y314911*
X1329635Y318602D02*
Y314173D01*
X1328024Y316388D02*
X1331246D01*
X1336077Y320325D02*
X1332856Y312451D01*
X1337688Y316388D02*
X1340909D01*
X1342699Y314665D02*
X1342520Y314419D01*
X1342699Y314173*
X1342878Y314419*
X1342699Y314665*
X1345562Y319341D02*
X1345025Y319094D01*
X1344667Y318356*
X1344488Y317126*
Y316388*
X1344667Y315157*
X1345025Y314419*
X1345562Y314173*
X1345920*
X1346457Y314419*
X1346815Y315157*
X1346994Y316388*
Y317126*
X1346815Y318356*
X1346457Y319094*
X1345920Y319341*
X1345562*
X1349678D02*
X1349141Y319094D01*
X1348783Y318356*
X1348604Y317126*
Y316388*
X1348783Y315157*
X1349141Y314419*
X1349678Y314173*
X1350036*
X1350573Y314419*
X1350931Y315157*
X1351110Y316388*
Y317126*
X1350931Y318356*
X1350573Y319094*
X1350036Y319341*
X1349678*
X1353078D02*
X1355047D01*
X1353973Y317372*
X1354510*
X1354868Y317126*
X1355047Y316880*
X1355225Y316142*
Y315650*
X1355047Y314911*
X1354689Y314419*
X1354152Y314173*
X1353615*
X1353078Y314419*
X1352899Y314665*
X1352720Y315157*
X1356836Y319341D02*
Y317618D01*
X1358268Y319341D02*
Y317618D01*
X1189263Y303593D02*
X1188726Y303346D01*
X1188368Y302608*
X1188189Y301378*
Y300640*
X1188368Y299409*
X1188726Y298671*
X1189263Y298425*
X1189621*
X1190157Y298671*
X1190515Y299409*
X1190694Y300640*
Y301378*
X1190515Y302608*
X1190157Y303346*
X1189621Y303593*
X1189263*
X1192484Y298917D02*
X1192305Y298671D01*
X1192484Y298425*
X1192663Y298671*
X1192484Y298917*
X1194631Y303593D02*
X1196600D01*
X1195526Y301624*
X1196063*
X1196421Y301378*
X1196600Y301132*
X1196779Y300394*
Y299902*
X1196600Y299163*
X1196242Y298671*
X1195705Y298425*
X1195168*
X1194631Y298671*
X1194452Y298917*
X1194273Y299409*
X1245616Y303593D02*
X1247584D01*
X1246510Y301624*
X1247047*
X1247405Y301378*
X1247584Y301132*
X1247763Y300394*
Y299902*
X1247584Y299163*
X1247226Y298671*
X1246689Y298425*
X1246152*
X1245616Y298671*
X1245437Y298917*
X1245258Y299409*
X1250268Y303593D02*
X1249732Y303346D01*
X1249553Y302854*
Y302362*
X1249732Y301870*
X1250089Y301624*
X1250805Y301378*
X1251342Y301132*
X1251700Y300640*
X1251879Y300148*
Y299409*
X1251700Y298917*
X1251521Y298671*
X1250984Y298425*
X1250268*
X1249732Y298671*
X1249553Y298917*
X1249374Y299409*
Y300148*
X1249553Y300640*
X1249911Y301132*
X1250447Y301378*
X1251163Y301624*
X1251521Y301870*
X1251700Y302362*
Y302854*
X1251521Y303346*
X1250984Y303593*
X1250268*
X1253669Y302362D02*
Y302608D01*
X1253848Y303100*
X1254026Y303346*
X1254384Y303593*
X1255100*
X1255458Y303346*
X1255637Y303100*
X1255816Y302608*
Y302116*
X1255637Y301624*
X1255279Y300886*
X1253490Y298425*
X1255995*
X1270866D02*
X1278740Y306299D01*
X1270866D02*
X1278740Y298425D01*
X1292412Y303593D02*
X1293844Y301132D01*
Y298425*
X1295276Y303593D02*
X1293844Y301132D01*
X1296886Y303593D02*
Y298425D01*
Y303593D02*
X1299213D01*
X1296886Y301132D02*
X1298318D01*
X1296886Y298425D02*
X1299213D01*
X1303329Y302854D02*
X1302971Y303346D01*
X1302434Y303593*
X1301718*
X1301181Y303346*
X1300823Y302854*
Y302362*
X1301002Y301870*
X1301181Y301624*
X1301539Y301378*
X1302613Y300886*
X1302971Y300640*
X1303150Y300394*
X1303329Y299902*
Y299163*
X1302971Y298671*
X1302434Y298425*
X1301718*
X1301181Y298671*
X1300823Y299163*
X1327577Y302854D02*
Y298425D01*
X1325966Y300640D02*
X1329188D01*
X1334019Y304577D02*
X1330798Y296703D01*
X1335630Y300640D02*
X1338851D01*
X1341535Y303593D02*
X1340999Y303346D01*
X1340641Y302608*
X1340462Y301378*
Y300640*
X1340641Y299409*
X1340999Y298671*
X1341535Y298425*
X1341893*
X1342430Y298671*
X1342788Y299409*
X1342967Y300640*
Y301378*
X1342788Y302608*
X1342430Y303346*
X1341893Y303593*
X1341535*
X1344757Y298917D02*
X1344578Y298671D01*
X1344757Y298425*
X1344936Y298671*
X1344757Y298917*
X1347620Y303593D02*
X1347083Y303346D01*
X1346725Y302608*
X1346546Y301378*
Y300640*
X1346725Y299409*
X1347083Y298671*
X1347620Y298425*
X1347978*
X1348515Y298671*
X1348873Y299409*
X1349052Y300640*
Y301378*
X1348873Y302608*
X1348515Y303346*
X1347978Y303593*
X1347620*
X1351736D02*
X1351199Y303346D01*
X1350841Y302608*
X1350662Y301378*
Y300640*
X1350841Y299409*
X1351199Y298671*
X1351736Y298425*
X1352094*
X1352631Y298671*
X1352989Y299409*
X1353168Y300640*
X1353168D02*
Y301378D01*
X1353168D02*
X1352989Y302608D01*
X1352631Y303346*
X1352094Y303593*
X1351736*
X1355136D02*
X1357105D01*
X1356031Y301624*
X1356568*
X1356926Y301378*
X1357105Y301132*
X1357283Y300394*
Y299902*
X1357105Y299163*
X1356747Y298671*
X1356210Y298425*
X1355673*
X1355136Y298671*
X1354957Y298917*
X1354778Y299409*
X1358894Y303593D02*
Y301870D01*
X1360326Y303593D02*
Y301870D01*
X1189263Y287844D02*
X1188726Y287598D01*
X1188368Y286860*
X1188189Y285630*
Y284892*
X1188368Y283661*
X1188726Y282923*
X1189263Y282677*
X1189621*
X1190157Y282923*
X1190515Y283661*
X1190694Y284892*
Y285630*
X1190515Y286860*
X1190157Y287598*
X1189621Y287844*
X1189263*
X1192484Y283169D02*
X1192305Y282923D01*
X1192484Y282677*
X1192663Y282923*
X1192484Y283169*
X1196063Y287844D02*
X1194273Y284400D01*
X1196958*
X1196063Y287844D02*
Y282677D01*
X1249642Y287844D02*
X1247853D01*
X1247674Y285630*
X1247853Y285876*
X1248389Y286122*
X1248926*
X1249463Y285876*
X1249821Y285384*
X1250000Y284646*
X1249821Y284154*
X1249642Y283415*
X1249284Y282923*
X1248747Y282677*
X1248210*
X1247674Y282923*
X1247495Y283169*
X1247316Y283661*
X1253758Y287106D02*
X1253579Y287598D01*
X1253042Y287844*
X1252684*
X1252147Y287598*
X1251790Y286860*
X1251611Y285630*
Y284400*
X1251790Y283415*
X1252147Y282923*
X1252684Y282677*
X1252863*
X1253400Y282923*
X1253758Y283415*
X1253937Y284154*
Y284400*
X1253758Y285138*
X1253400Y285630*
X1252863Y285876*
X1252684*
X1252147Y285630*
X1251790Y285138*
X1251611Y284400*
X1270866Y282677D02*
X1278740D01*
Y290551*
X1270866*
Y282677*
X1274803Y286614D02*
Y290551D01*
X1292412Y287844D02*
X1293844Y285384D01*
Y282677*
X1295276Y287844D02*
X1293844Y285384D01*
X1296886Y287844D02*
Y282677D01*
Y287844D02*
X1299213D01*
X1296886Y285384D02*
X1298318D01*
X1296886Y282677D02*
X1299213D01*
X1303329Y287106D02*
X1302971Y287598D01*
X1302434Y287844*
X1301718*
X1301181Y287598*
X1300823Y287106*
Y286614*
X1301002Y286122*
X1301181Y285876*
X1301539Y285630*
X1302613Y285138*
X1302971Y284892*
X1303150Y284646*
X1303329Y284154*
Y283415*
X1302971Y282923*
X1302434Y282677*
X1301718*
X1301181Y282923*
X1300823Y283415*
X1336256Y287106D02*
Y282677D01*
X1334646Y284892D02*
X1337867D01*
X1342699Y288829D02*
X1339477Y280955D01*
X1344309Y284892D02*
X1347530D01*
X1349320Y286614D02*
Y286860D01*
X1349499Y287352*
X1349678Y287598*
X1350036Y287844*
X1350752*
X1351110Y287598*
X1351288Y287352*
X1351467Y286860*
Y286368*
X1351288Y285876*
X1350931Y285138*
X1349141Y282677*
X1351646*
X1188189Y271112D02*
X1188547Y271358D01*
X1189084Y272096*
Y266929*
X1190873Y267421D02*
X1190694Y267175D01*
X1190873Y266929*
X1191052Y267175*
X1190873Y267421*
X1193737Y272096D02*
X1193200Y271850D01*
X1192842Y271112*
X1192663Y269882*
Y269144*
X1192842Y267913*
X1193200Y267175*
X1193737Y266929*
X1194094*
X1194631Y267175*
X1194989Y267913*
X1195168Y269144*
Y269882*
X1194989Y271112*
X1194631Y271850*
X1194094Y272096*
X1193737*
X1196779Y271112D02*
X1197137Y271358D01*
X1197674Y272096*
Y266929*
X1201432Y271358D02*
X1201253Y271850D01*
X1200716Y272096*
X1200358*
X1199821Y271850*
X1199463Y271112*
X1199284Y269882*
Y268652*
X1199463Y267667*
X1199821Y267175*
X1200358Y266929*
X1200537*
X1201074Y267175*
X1201432Y267667*
X1201611Y268406*
Y268652*
X1201432Y269390*
X1201074Y269882*
X1200537Y270128*
X1200358*
X1199821Y269882*
X1199463Y269390*
X1199284Y268652*
X1248121Y271112D02*
X1248479Y271358D01*
X1249016Y272096*
Y266929*
X1251700Y272096D02*
X1251163Y271850D01*
X1250805Y271112*
X1250626Y269882*
Y269144*
X1250805Y267913*
X1251163Y267175*
X1251700Y266929*
X1252058*
X1252595Y267175*
X1252953Y267913*
X1253132Y269144*
Y269882*
X1252953Y271112*
X1252595Y271850*
X1252058Y272096*
X1251700*
X1274803Y266929D02*
X1278740Y270866D01*
X1274803Y274803*
X1270866Y270866*
X1274803Y266929*
Y270866D02*
Y274803D01*
X1292412Y272096D02*
X1293844Y269636D01*
Y266929*
X1295276Y272096D02*
X1293844Y269636D01*
X1296886Y272096D02*
Y266929D01*
Y272096D02*
X1299213D01*
X1296886Y269636D02*
X1298318D01*
X1296886Y266929D02*
X1299213D01*
X1303329Y271358D02*
X1302971Y271850D01*
X1302434Y272096*
X1301718*
X1301181Y271850*
X1300823Y271358*
Y270866*
X1301002Y270374*
X1301181Y270128*
X1301539Y269882*
X1302613Y269390*
X1302971Y269144*
X1303150Y268898*
X1303329Y268406*
Y267667*
X1302971Y267175*
X1302434Y266929*
X1301718*
X1301181Y267175*
X1300823Y267667*
X1336256Y271358D02*
Y266929D01*
X1334646Y269144D02*
X1337867D01*
X1342699Y273081D02*
X1339477Y265207D01*
X1344309Y269144D02*
X1347530D01*
X1349320Y270866D02*
Y271112D01*
X1349499Y271604*
X1349678Y271850*
X1350036Y272096*
X1350752*
X1351110Y271850*
X1351288Y271604*
X1351467Y271112*
Y270620*
X1351288Y270128*
X1350931Y269390*
X1349141Y266929*
X1351646*
X1189263Y256348D02*
X1188726Y256102D01*
X1188368Y255364*
X1188189Y254134*
Y253396*
X1188368Y252165*
X1188726Y251427*
X1189263Y251181*
X1189621*
X1190157Y251427*
X1190515Y252165*
X1190694Y253396*
Y254134*
X1190515Y255364*
X1190157Y256102*
X1189621Y256348*
X1189263*
X1192484Y251673D02*
X1192305Y251427D01*
X1192484Y251181*
X1192663Y251427*
X1192484Y251673*
X1195168Y256348D02*
X1194631Y256102D01*
X1194452Y255610*
Y255118*
X1194631Y254626*
X1194989Y254380*
X1195705Y254134*
X1196242Y253888*
X1196600Y253396*
X1196779Y252904*
Y252165*
X1196600Y251673*
X1196421Y251427*
X1195884Y251181*
X1195168*
X1194631Y251427*
X1194452Y251673*
X1194273Y252165*
Y252904*
X1194452Y253396*
X1194810Y253888*
X1195347Y254134*
X1196063Y254380*
X1196421Y254626*
X1196600Y255118*
Y255610*
X1196421Y256102*
X1195884Y256348*
X1195168*
X1198389Y255364D02*
X1198747Y255610D01*
X1199284Y256348*
Y251181*
X1201074Y255118D02*
Y255364D01*
X1201253Y255856*
X1201432Y256102*
X1201790Y256348*
X1202505*
X1202863Y256102*
X1203042Y255856*
X1203221Y255364*
Y254872*
X1203042Y254380*
X1202684Y253642*
X1200895Y251181*
X1203400*
X1205906Y256348D02*
X1205369Y256102D01*
X1205190Y255610*
Y255118*
X1205369Y254626*
X1205727Y254380*
X1206442Y254134*
X1206979Y253888*
X1207337Y253396*
X1207516Y252904*
Y252165*
X1207337Y251673*
X1207158Y251427*
X1206621Y251181*
X1205906*
X1205369Y251427*
X1205190Y251673*
X1205011Y252165*
Y252904*
X1205190Y253396*
X1205548Y253888*
X1206084Y254134*
X1206800Y254380*
X1207158Y254626*
X1207337Y255118*
Y255610*
X1207158Y256102*
X1206621Y256348*
X1205906*
X1246152Y255364D02*
X1246510Y255610D01*
X1247047Y256348*
Y251181*
X1250805Y255610D02*
X1250626Y256102D01*
X1250089Y256348*
X1249732*
X1249195Y256102*
X1248837Y255364*
X1248658Y254134*
Y252904*
X1248837Y251919*
X1249195Y251427*
X1249732Y251181*
X1249911*
X1250447Y251427*
X1250805Y251919*
X1250984Y252657*
Y252904*
X1250805Y253642*
X1250447Y254134*
X1249911Y254380*
X1249732*
X1249195Y254134*
X1248837Y253642*
X1248658Y252904*
X1253669Y256348D02*
X1253132Y256102D01*
X1252774Y255364*
X1252595Y254134*
Y253396*
X1252774Y252165*
X1253132Y251427*
X1253669Y251181*
X1254026*
X1254563Y251427*
X1254921Y252165*
X1255100Y253396*
Y254134*
X1254921Y255364*
X1254563Y256102*
X1254026Y256348*
X1253669*
X1270866Y251181D02*
X1278740D01*
X1270866Y259055*
X1278740*
X1270866Y251181*
X1292412Y256348D02*
X1293844Y253888D01*
Y251181*
X1295276Y256348D02*
X1293844Y253888D01*
X1296886Y256348D02*
Y251181D01*
Y256348D02*
X1299213D01*
X1296886Y253888D02*
X1298318D01*
X1296886Y251181D02*
X1299213D01*
X1303329Y255610D02*
X1302971Y256102D01*
X1302434Y256348*
X1301718*
X1301181Y256102*
X1300823Y255610*
Y255118*
X1301002Y254626*
X1301181Y254380*
X1301539Y254134*
X1302613Y253642*
X1302971Y253396*
X1303150Y253150*
X1303329Y252657*
Y251919*
X1302971Y251427*
X1302434Y251181*
X1301718*
X1301181Y251427*
X1300823Y251919*
X1327487Y255610D02*
Y251181D01*
X1325877Y253396D02*
X1329098D01*
X1333930Y257333D02*
X1330709Y249459D01*
X1335540Y253396D02*
X1338762D01*
X1341446Y256348D02*
X1340909Y256102D01*
X1340551Y255364*
X1340372Y254134*
Y253396*
X1340551Y252165*
X1340909Y251427*
X1341446Y251181*
X1341804*
X1342341Y251427*
X1342699Y252165*
X1342878Y253396*
Y254134*
X1342699Y255364*
X1342341Y256102*
X1341804Y256348*
X1341446*
X1344667Y251673D02*
X1344488Y251427D01*
X1344667Y251181*
X1344846Y251427*
X1344667Y251673*
X1347530Y256348D02*
X1346994Y256102D01*
X1346636Y255364*
X1346457Y254134*
Y253396*
X1346636Y252165*
X1346994Y251427*
X1347530Y251181*
X1347888*
X1348425Y251427*
X1348783Y252165*
X1348962Y253396*
Y254134*
X1348783Y255364*
X1348425Y256102*
X1347888Y256348*
X1347530*
X1351646D02*
X1351110Y256102D01*
X1350752Y255364*
X1350573Y254134*
Y253396*
X1350752Y252165*
X1351110Y251427*
X1351646Y251181*
X1352004*
X1352541Y251427*
X1352899Y252165*
X1353078Y253396*
Y254134*
X1352899Y255364*
X1352541Y256102*
X1352004Y256348*
X1351646*
X1357015D02*
X1355225D01*
X1355047Y254134*
X1355225Y254380*
X1355762Y254626*
X1356299*
X1356836Y254380*
X1357194Y253888*
X1357373Y253150*
X1357194Y252657*
X1357015Y251919*
X1356657Y251427*
X1356120Y251181*
X1355583*
X1355047Y251427*
X1354868Y251673*
X1354689Y252165*
X1358984Y256348D02*
Y254626D01*
X1360415Y256348D02*
Y254626D01*
X1189263Y240600D02*
X1188726Y240354D01*
X1188368Y239616*
X1188189Y238386*
Y237648*
X1188368Y236417*
X1188726Y235679*
X1189263Y235433*
X1189621*
X1190157Y235679*
X1190515Y236417*
X1190694Y237648*
Y238386*
X1190515Y239616*
X1190157Y240354*
X1189621Y240600*
X1189263*
X1192484Y235925D02*
X1192305Y235679D01*
X1192484Y235433*
X1192663Y235679*
X1192484Y235925*
X1195168Y240600D02*
X1194631Y240354D01*
X1194452Y239862*
Y239370*
X1194631Y238878*
X1194989Y238632*
X1195705Y238386*
X1196242Y238140*
X1196600Y237648*
X1196779Y237156*
Y236417*
X1196600Y235925*
X1196421Y235679*
X1195884Y235433*
X1195168*
X1194631Y235679*
X1194452Y235925*
X1194273Y236417*
Y237156*
X1194452Y237648*
X1194810Y238140*
X1195347Y238386*
X1196063Y238632*
X1196421Y238878*
X1196600Y239370*
Y239862*
X1196421Y240354*
X1195884Y240600*
X1195168*
X1200716D02*
X1198926D01*
X1198747Y238386*
X1198926Y238632*
X1199463Y238878*
X1200000*
X1200537Y238632*
X1200895Y238140*
X1201074Y237402*
X1200895Y236909*
X1200716Y236171*
X1200358Y235679*
X1199821Y235433*
X1199284*
X1198747Y235679*
X1198568Y235925*
X1198389Y236417*
X1206800Y238878D02*
X1208769Y235433D01*
Y238878D02*
X1206800Y235433D01*
X1214495Y239616D02*
X1214853Y239862D01*
X1215390Y240600*
Y235433*
X1217180Y235925D02*
X1217001Y235679D01*
X1217180Y235433*
X1217359Y235679*
X1217180Y235925*
X1220759Y240600D02*
X1218969Y237156D01*
X1221654*
X1220759Y240600D02*
Y235433D01*
X1249553Y239370D02*
Y239616D01*
X1249732Y240108*
X1249911Y240354*
X1250268Y240600*
X1250984*
X1251342Y240354*
X1251521Y240108*
X1251700Y239616*
Y239124*
X1251521Y238632*
X1251163Y237894*
X1249374Y235433*
X1251879*
X1270866D02*
X1278740Y243307D01*
Y235433*
X1270866Y243307*
Y235433*
X1292412Y240600D02*
X1293844Y238140D01*
Y235433*
X1295276Y240600D02*
X1293844Y238140D01*
X1296886Y240600D02*
Y235433D01*
Y240600D02*
X1299213D01*
X1296886Y238140D02*
X1298318D01*
X1296886Y235433D02*
X1299213D01*
X1303329Y239862D02*
X1302971Y240354D01*
X1302434Y240600*
X1301718*
X1301181Y240354*
X1300823Y239862*
Y239370*
X1301002Y238878*
X1301181Y238632*
X1301539Y238386*
X1302613Y237894*
X1302971Y237648*
X1303150Y237402*
X1303329Y236909*
Y236171*
X1302971Y235679*
X1302434Y235433*
X1301718*
X1301181Y235679*
X1300823Y236171*
X1327487Y239862D02*
Y235433D01*
X1325877Y237648D02*
X1329098D01*
X1333930Y241585D02*
X1330709Y233711D01*
X1335540Y237648D02*
X1338762D01*
X1341446Y240600D02*
X1340909Y240354D01*
X1340551Y239616*
X1340372Y238386*
Y237648*
X1340551Y236417*
X1340909Y235679*
X1341446Y235433*
X1341804*
X1342341Y235679*
X1342699Y236417*
X1342878Y237648*
Y238386*
X1342699Y239616*
X1342341Y240354*
X1341804Y240600*
X1341446*
X1344667Y235925D02*
X1344488Y235679D01*
X1344667Y235433*
X1344846Y235679*
X1344667Y235925*
X1347530Y240600D02*
X1346994Y240354D01*
X1346636Y239616*
X1346457Y238386*
Y237648*
X1346636Y236417*
X1346994Y235679*
X1347530Y235433*
X1347888*
X1348425Y235679*
X1348783Y236417*
X1348962Y237648*
Y238386*
X1348783Y239616*
X1348425Y240354*
X1347888Y240600*
X1347530*
X1351646D02*
X1351110Y240354D01*
X1350752Y239616*
X1350573Y238386*
Y237648*
X1350752Y236417*
X1351110Y235679*
X1351646Y235433*
X1352004*
X1352541Y235679*
X1352899Y236417*
X1353078Y237648*
Y238386*
X1352899Y239616*
X1352541Y240354*
X1352004Y240600*
X1351646*
X1356478D02*
X1354689Y237156D01*
X1357373*
X1356478Y240600D02*
Y235433D01*
X1358984Y240600D02*
Y238878D01*
X1360415Y240600D02*
Y238878D01*
X1189263Y224852D02*
X1188726Y224606D01*
X1188368Y223868*
X1188189Y222638*
Y221900*
X1188368Y220669*
X1188726Y219931*
X1189263Y219685*
X1189621*
X1190157Y219931*
X1190515Y220669*
X1190694Y221900*
Y222638*
X1190515Y223868*
X1190157Y224606*
X1189621Y224852*
X1189263*
X1192484Y220177D02*
X1192305Y219931D01*
X1192484Y219685*
X1192663Y219931*
X1192484Y220177*
X1195168Y224852D02*
X1194631Y224606D01*
X1194452Y224114*
Y223622*
X1194631Y223130*
X1194989Y222884*
X1195705Y222638*
X1196242Y222392*
X1196600Y221900*
X1196779Y221407*
Y220669*
X1196600Y220177*
X1196421Y219931*
X1195884Y219685*
X1195168*
X1194631Y219931*
X1194452Y220177*
X1194273Y220669*
Y221407*
X1194452Y221900*
X1194810Y222392*
X1195347Y222638*
X1196063Y222884*
X1196421Y223130*
X1196600Y223622*
Y224114*
X1196421Y224606*
X1195884Y224852*
X1195168*
X1249553Y223622D02*
Y223868D01*
X1249732Y224360*
X1249911Y224606*
X1250268Y224852*
X1250984*
X1251342Y224606*
X1251521Y224360*
X1251700Y223868*
Y223376*
X1251521Y222884*
X1251163Y222146*
X1249374Y219685*
X1251879*
X1270866Y223622D02*
X1278740D01*
X1274803Y219685D02*
Y227559D01*
X1277917Y229724D02*
X1276772Y225591D01*
X1277917Y229724D02*
X1279062Y225591D01*
X1277201Y226969D02*
X1278633D01*
X1294381Y224852D02*
Y219685D01*
Y224852D02*
X1296886Y219685D01*
Y224852D02*
Y219685D01*
X1299571Y224852D02*
X1299213Y224606D01*
X1298855Y224114*
X1298676Y223622*
X1298497Y222884*
Y221654*
X1298676Y220915*
X1298855Y220423*
X1299213Y219931*
X1299571Y219685*
X1300286*
X1300644Y219931*
X1301002Y220423*
X1301181Y220915*
X1301360Y221654*
Y222884*
X1301181Y223622*
X1301002Y224114*
X1300644Y224606*
X1300286Y224852*
X1299571*
X1327487Y224114D02*
Y219685D01*
X1325877Y221900D02*
X1329098D01*
X1333930Y225837D02*
X1330709Y217963D01*
X1335540Y221900D02*
X1338762D01*
X1341446Y224852D02*
X1340909Y224606D01*
X1340551Y223868*
X1340372Y222638*
Y221900*
X1340551Y220669*
X1340909Y219931*
X1341446Y219685*
X1341804*
X1342341Y219931*
X1342699Y220669*
X1342878Y221900*
Y222638*
X1342699Y223868*
X1342341Y224606*
X1341804Y224852*
X1341446*
X1344667Y220177D02*
X1344488Y219931D01*
X1344667Y219685*
X1344846Y219931*
X1344667Y220177*
X1347530Y224852D02*
X1346994Y224606D01*
X1346636Y223868*
X1346457Y222638*
Y221900*
X1346636Y220669*
X1346994Y219931*
X1347530Y219685*
X1347888*
X1348425Y219931*
X1348783Y220669*
X1348962Y221900*
Y222638*
X1348783Y223868*
X1348425Y224606*
X1347888Y224852*
X1347530*
X1351646D02*
X1351110Y224606D01*
X1350752Y223868*
X1350573Y222638*
Y221900*
X1350752Y220669*
X1351110Y219931*
X1351646Y219685*
X1352004*
X1352541Y219931*
X1352899Y220669*
X1353078Y221900*
Y222638*
X1352899Y223868*
X1352541Y224606*
X1352004Y224852*
X1351646*
X1357015D02*
X1355225D01*
X1355047Y222638*
X1355225Y222884*
X1355762Y223130*
X1356299*
X1356836Y222884*
X1357194Y222392*
X1357373Y221654*
X1357194Y221161*
X1357015Y220423*
X1356657Y219931*
X1356120Y219685*
X1355583*
X1355047Y219931*
X1354868Y220177*
X1354689Y220669*
X1358984Y224852D02*
Y223130D01*
X1360415Y224852D02*
Y223130D01*
X1189263Y209104D02*
X1188726Y208858D01*
X1188368Y208120*
X1188189Y206890*
Y206152*
X1188368Y204921*
X1188726Y204183*
X1189263Y203937*
X1189621*
X1190157Y204183*
X1190515Y204921*
X1190694Y206152*
Y206890*
X1190515Y208120*
X1190157Y208858*
X1189621Y209104*
X1189263*
X1192484Y204429D02*
X1192305Y204183D01*
X1192484Y203937*
X1192663Y204183*
X1192484Y204429*
X1196600Y209104D02*
X1194810D01*
X1194631Y206890*
X1194810Y207136*
X1195347Y207382*
X1195884*
X1196421Y207136*
X1196779Y206644*
X1196958Y205906*
X1196779Y205413*
X1196600Y204675*
X1196242Y204183*
X1195705Y203937*
X1195168*
X1194631Y204183*
X1194452Y204429*
X1194273Y204921*
X1200895Y209104D02*
X1199105D01*
X1198926Y206890*
X1199105Y207136*
X1199642Y207382*
X1200179*
X1200716Y207136*
X1201074Y206644*
X1201253Y205906*
X1201074Y205413*
X1200895Y204675*
X1200537Y204183*
X1200000Y203937*
X1199463*
X1198926Y204183*
X1198747Y204429*
X1198568Y204921*
X1206979Y207382D02*
X1208948Y203937D01*
Y207382D02*
X1206979Y203937D01*
X1214674Y208120D02*
X1215032Y208366D01*
X1215569Y209104*
Y203937*
X1217359Y204429D02*
X1217180Y204183D01*
X1217359Y203937*
X1217538Y204183*
X1217359Y204429*
X1219327Y207874D02*
Y208120D01*
X1219506Y208612*
X1219685Y208858*
X1220043Y209104*
X1220759*
X1221117Y208858*
X1221296Y208612*
X1221475Y208120*
Y207628*
X1221296Y207136*
X1220938Y206398*
X1219148Y203937*
X1221654*
X1249553Y207874D02*
Y208120D01*
X1249732Y208612*
X1249911Y208858*
X1250268Y209104*
X1250984*
X1251342Y208858*
X1251521Y208612*
X1251700Y208120*
Y207628*
X1251521Y207136*
X1251163Y206398*
X1249374Y203937*
X1251879*
X1270866Y207874D02*
X1278740D01*
X1274803Y203937D02*
Y211811D01*
X1276772Y213976D02*
Y209843D01*
Y213976D02*
X1278060D01*
X1278490Y213780*
X1278633Y213583*
X1278776Y213189*
Y212795*
X1278633Y212402*
X1278490Y212205*
X1278060Y212008*
X1276772D02*
X1278060D01*
X1278490Y211811*
X1278633Y211614*
X1278776Y211220*
Y210630*
X1278633Y210236*
X1278490Y210039*
X1278060Y209843*
X1276772*
X1292412Y209104D02*
X1293844Y206644D01*
Y203937*
X1295276Y209104D02*
X1293844Y206644D01*
X1296886Y209104D02*
Y203937D01*
Y209104D02*
X1299213D01*
X1296886Y206644D02*
X1298318D01*
X1296886Y203937D02*
X1299213D01*
X1303329Y208366D02*
X1302971Y208858D01*
X1302434Y209104*
X1301718*
X1301181Y208858*
X1300823Y208366*
Y207874*
X1301002Y207382*
X1301181Y207136*
X1301539Y206890*
X1302613Y206398*
X1302971Y206152*
X1303150Y205906*
X1303329Y205413*
Y204675*
X1302971Y204183*
X1302434Y203937*
X1301718*
X1301181Y204183*
X1300823Y204675*
X1327487Y208366D02*
Y203937D01*
X1325877Y206152D02*
X1329098D01*
X1333930Y210089D02*
X1330709Y202215D01*
X1335540Y206152D02*
X1338762D01*
X1341446Y209104D02*
X1340909Y208858D01*
X1340551Y208120*
X1340372Y206890*
Y206152*
X1340551Y204921*
X1340909Y204183*
X1341446Y203937*
X1341804*
X1342341Y204183*
X1342699Y204921*
X1342878Y206152*
Y206890*
X1342699Y208120*
X1342341Y208858*
X1341804Y209104*
X1341446*
X1344667Y204429D02*
X1344488Y204183D01*
X1344667Y203937*
X1344846Y204183*
X1344667Y204429*
X1347530Y209104D02*
X1346994Y208858D01*
X1346636Y208120*
X1346457Y206890*
Y206152*
X1346636Y204921*
X1346994Y204183*
X1347530Y203937*
X1347888*
X1348425Y204183*
X1348783Y204921*
X1348962Y206152*
Y206890*
X1348783Y208120*
X1348425Y208858*
X1347888Y209104*
X1347530*
X1351646D02*
X1351110Y208858D01*
X1350752Y208120*
X1350573Y206890*
Y206152*
X1350752Y204921*
X1351110Y204183*
X1351646Y203937*
X1352004*
X1352541Y204183*
X1352899Y204921*
X1353078Y206152*
Y206890*
X1352899Y208120*
X1352541Y208858*
X1352004Y209104*
X1351646*
X1356478D02*
X1354689Y205659D01*
X1357373*
X1356478Y209104D02*
Y203937D01*
X1358984Y209104D02*
Y207382D01*
X1360415Y209104D02*
Y207382D01*
G54D66*
X196063Y200000D02*
X188189D01*
X200000Y196063D02*
Y188189D01*
X137008Y259055D02*
Y253150D01*
X133071Y262992D02*
X125197D01*
X133071Y459843D02*
X123228D01*
X196063Y798425D02*
X182283D01*
X1129134Y802362D02*
Y814173D01*
X196063Y215748D02*
X188189D01*
X215748Y196063D02*
Y188189D01*
G54D67*
X1184252Y341732D02*
X1365354D01*
X1184252Y325984D02*
X1365354D01*
X1184252Y310236D02*
X1365354D01*
X1184252Y294488D02*
X1365354D01*
X1184252Y278740D02*
X1365354D01*
X1184252Y262992D02*
X1365354D01*
X1184252Y247244D02*
X1365354D01*
X1184252Y231496D02*
X1365354D01*
X1184252Y215748D02*
X1365354D01*
X1184252Y200000D02*
X1365354D01*
X1184252Y341732D02*
Y200000D01*
X1239370Y341732D02*
Y200000D01*
X1262992Y341732D02*
Y200000D01*
X1286614Y341732D02*
Y200000D01*
X1322047Y341732D02*
Y200000D01*
X1365354Y341732D02*
Y200000D01*
G74*
X0Y0D02*
M02*
