*
*
G04 PADS VX.1.2 Build Number: 698008 generated Gerber (RS-274-X) file*
G04 PC Version=2.1*
*
%IN "LED drive11.pcb"*%
*
%MOIN*%
*
%FSLAX35Y35*%
*
*
*
*
G04 PC Standard Apertures*
*
*
G04 Thermal Relief Aperture macro.*
%AMTER*
1,1,$1,0,0*
1,0,$1-$2,0,0*
21,0,$3,$4,0,0,45*
21,0,$3,$4,0,0,135*
%
*
*
G04 Annular Aperture macro.*
%AMANN*
1,1,$1,0,0*
1,0,$2,0,0*
%
*
*
G04 Odd Aperture macro.*
%AMODD*
1,1,$1,0,0*
1,0,$1-0.005,0,0*
%
*
*
G04 PC Custom Aperture Macros*
*
*
*
*
*
*
G04 PC Aperture Table*
*
%ADD010C,0.001*%
%ADD011R,0.05906X0.01181*%
%ADD012R,0.11X0.136*%
%ADD016R,0.033X0.033*%
%ADD017R,0.04X0.05*%
%ADD018R,0.01772X0.05118*%
%ADD022R,0.05X0.04*%
%ADD024R,0.05512X0.04724*%
%ADD025R,0.05512X0.02756*%
%ADD026R,0.05118X0.04724*%
%ADD027R,0.05118X0.02756*%
%ADD028R,0.095X0.11*%
%ADD029R,0.09X0.09*%
%ADD031C,0.008*%
*
*
*
*
G04 PC Circuitry*
G04 Layer Name LED drive11.pcb - circuitry*
%LPD*%
*
*
G04 PC Custom Flashes*
G04 Layer Name LED drive11.pcb - flashes*
%LPD*%
*
*
G04 PC Circuitry*
G04 Layer Name LED drive11.pcb - circuitry*
%LPD*%
*
G54D10*
G54D11*
G01X373228Y752854D03*
Y750295D03*
Y747736D03*
Y745177D03*
Y742618D03*
Y740059D03*
Y737500D03*
Y734941D03*
Y732382D03*
Y729823D03*
X396850D03*
Y732382D03*
Y734941D03*
Y737500D03*
Y740059D03*
Y742618D03*
Y745177D03*
Y747736D03*
Y750295D03*
Y752854D03*
X495276D03*
Y750295D03*
Y747736D03*
Y745177D03*
Y742618D03*
Y740059D03*
Y737500D03*
Y734941D03*
Y732382D03*
Y729823D03*
X518898D03*
Y732382D03*
Y734941D03*
Y737500D03*
Y740059D03*
Y742618D03*
Y745177D03*
Y747736D03*
Y750295D03*
Y752854D03*
X810236D03*
Y750295D03*
Y747736D03*
Y745177D03*
Y742618D03*
Y740059D03*
Y737500D03*
Y734941D03*
Y732382D03*
Y729823D03*
X833858D03*
Y732382D03*
Y734941D03*
Y737500D03*
Y740059D03*
Y742618D03*
Y745177D03*
Y747736D03*
Y750295D03*
Y752854D03*
X936220D03*
Y750295D03*
Y747736D03*
Y745177D03*
Y742618D03*
Y740059D03*
Y737500D03*
Y734941D03*
Y732382D03*
Y729823D03*
X959843D03*
Y732382D03*
Y734941D03*
Y737500D03*
Y740059D03*
Y742618D03*
Y745177D03*
Y747736D03*
Y750295D03*
Y752854D03*
Y239665D03*
Y242224D03*
Y244783D03*
Y247343D03*
Y249902D03*
Y252461D03*
Y255020D03*
Y257579D03*
Y260138D03*
Y262697D03*
X936220D03*
Y260138D03*
Y257579D03*
Y255020D03*
Y252461D03*
Y249902D03*
Y247343D03*
Y244783D03*
Y242224D03*
Y239665D03*
X833858D03*
Y242224D03*
Y244783D03*
Y247343D03*
Y249902D03*
Y252461D03*
Y255020D03*
Y257579D03*
Y260138D03*
Y262697D03*
X810236D03*
Y260138D03*
Y257579D03*
Y255020D03*
Y252461D03*
Y249902D03*
Y247343D03*
Y244783D03*
Y242224D03*
Y239665D03*
X518898D03*
Y242224D03*
Y244783D03*
Y247343D03*
Y249902D03*
Y252461D03*
Y255020D03*
Y257579D03*
Y260138D03*
Y262697D03*
X495276D03*
Y260138D03*
Y257579D03*
Y255020D03*
Y252461D03*
Y249902D03*
Y247343D03*
Y244783D03*
Y242224D03*
Y239665D03*
X404724D03*
Y242224D03*
Y244783D03*
Y247343D03*
Y249902D03*
Y252461D03*
Y255020D03*
Y257579D03*
Y260138D03*
Y262697D03*
X381102D03*
Y260138D03*
Y257579D03*
Y255020D03*
Y252461D03*
Y249902D03*
Y247343D03*
Y244783D03*
Y242224D03*
Y239665D03*
G54D12*
X385039Y741339D03*
X507087D03*
X822047D03*
X948031D03*
Y251181D03*
X822047D03*
X507087D03*
X392913D03*
G54D16*
X396850Y758224D03*
Y763824D03*
X373228D03*
Y758224D03*
X627909Y783071D03*
X633509D03*
X406693Y750350D03*
Y755950D03*
X518898Y758224D03*
Y763824D03*
X495276D03*
Y758224D03*
X528740Y750350D03*
Y755950D03*
X833858Y758224D03*
Y763824D03*
X810236D03*
Y758224D03*
X843701Y750350D03*
Y755950D03*
X959843Y758224D03*
Y763824D03*
X936220D03*
Y758224D03*
X969685Y750350D03*
Y755950D03*
X936220Y234296D03*
Y228696D03*
X959843D03*
Y234296D03*
X926378Y242170D03*
Y236570D03*
X810236Y234296D03*
Y228696D03*
X833858D03*
Y234296D03*
X800394Y242170D03*
Y236570D03*
X495276Y234296D03*
Y228696D03*
X518898D03*
Y234296D03*
X485433Y242170D03*
Y236570D03*
X381102Y234296D03*
Y228696D03*
X404724D03*
Y234296D03*
X371260Y242170D03*
Y236570D03*
X723272Y222835D03*
X717672D03*
G54D17*
X613323Y746063D03*
X621323D03*
X636677D03*
X628677D03*
X736677Y259449D03*
X728677D03*
X713717D03*
X721717D03*
G54D18*
X177559Y435827D03*
X175000D03*
X172441D03*
X169882D03*
X167323D03*
G54D22*
X1012992Y718835D03*
Y726835D03*
X317717Y719228D03*
Y727228D03*
X317323Y279984D03*
Y271984D03*
X1012992Y280772D03*
Y272772D03*
G54D24*
X618307Y774606D03*
Y755315D03*
X632087D03*
Y774606D03*
X732087Y230906D03*
Y250197D03*
X718307D03*
Y230906D03*
G54D25*
X618307Y769291D03*
Y764961D03*
Y760630D03*
X632087D03*
Y764961D03*
Y769291D03*
X732087Y236220D03*
Y240551D03*
Y244882D03*
X718307D03*
Y240551D03*
Y236220D03*
G54D26*
X625197Y755315D03*
Y774606D03*
X725197Y250197D03*
Y230906D03*
G54D27*
X625197Y764961D03*
Y760630D03*
X725197Y240551D03*
Y244882D03*
G54D28*
X219685Y449580D03*
Y477980D03*
G54D29*
X185094Y422441D03*
X203094D03*
G54D31*
X527885Y814830D02*
Y810236D01*
X526772Y814830D02*
X528999D01*
X531385D02*
X531067Y814611D01*
X530749Y814174*
X530590Y813736*
X530431Y813080*
Y811986*
X530590Y811330*
X530749Y810892*
X531067Y810455*
X531385Y810236*
X532022*
X532340Y810455*
X532658Y810892*
X532817Y811330*
X532976Y811986*
Y813080*
X532817Y813736*
X532658Y814174*
X532340Y814611*
X532022Y814830*
X531385*
X534408D02*
Y810236D01*
Y814830D02*
X535840D01*
X536317Y814611*
X536476Y814392*
X536635Y813955*
Y813299*
X536476Y812861*
X536317Y812642*
X535840Y812424*
X534408*
X541726Y814830D02*
Y810236D01*
Y814830D02*
X543158D01*
X543635Y814611*
X543794Y814392*
X543953Y813955*
Y813299*
X543794Y812861*
X543635Y812642*
X543158Y812424*
X541726*
X546658Y814830D02*
X545385Y810236D01*
X546658Y814830D02*
X547931Y810236D01*
X545863Y811767D02*
X547453D01*
X551590Y814174D02*
X551272Y814611D01*
X550794Y814830*
X550158*
X549681Y814611*
X549363Y814174*
Y813736*
X549522Y813299*
X549681Y813080*
X549999Y812861*
X550953Y812424*
X551272Y812205*
X551431Y811986*
X551590Y811549*
Y810892*
X551272Y810455*
X550794Y810236*
X550158*
X549681Y810455*
X549363Y810892*
X554135Y814830D02*
Y810236D01*
X553022Y814830D02*
X555249D01*
X556681D02*
Y810236D01*
Y814830D02*
X558749D01*
X556681Y812642D02*
X557953D01*
X556681Y810236D02*
X558749D01*
X0Y0D02*
M02*
