*
*
G04 PADS VX.1.2 Build Number: 698008 generated Gerber (RS-274-X) file*
G04 PC Version=2.1*
*
%IN "LED drive11.pcb"*%
*
%MOIN*%
*
%FSLAX35Y35*%
*
*
*
*
G04 PC Standard Apertures*
*
*
G04 Thermal Relief Aperture macro.*
%AMTER*
1,1,$1,0,0*
1,0,$1-$2,0,0*
21,0,$3,$4,0,0,45*
21,0,$3,$4,0,0,135*
%
*
*
G04 Annular Aperture macro.*
%AMANN*
1,1,$1,0,0*
1,0,$2,0,0*
%
*
*
G04 Odd Aperture macro.*
%AMODD*
1,1,$1,0,0*
1,0,$1-0.005,0,0*
%
*
*
G04 PC Custom Aperture Macros*
*
*
*
*
*
*
G04 PC Aperture Table*
*
%ADD010C,0.001*%
%ADD031C,0.008*%
%ADD034C,0.01181*%
%ADD040C,0.00787*%
%ADD042C,0.007*%
%ADD043C,0.005*%
%ADD044C,0.009*%
*
*
*
*
G04 PC Circuitry*
G04 Layer Name LED drive11.pcb - circuitry*
%LPD*%
*
*
G04 PC Custom Flashes*
G04 Layer Name LED drive11.pcb - flashes*
%LPD*%
*
*
G04 PC Circuitry*
G04 Layer Name LED drive11.pcb - circuitry*
%LPD*%
*
G54D10*
G54D31*
G01X185094Y428441D02*
X192094D01*
Y416441*
X185094*
Y428441D02*
Y429941D01*
X203094*
Y427941*
X185094Y416441D02*
Y414941D01*
X203094*
Y416941*
X201969Y439502D02*
Y434252D01*
Y439502D02*
X203241D01*
X203787Y439252*
X204150Y438752*
X204332Y438252*
X204514Y437502*
Y436252*
X204332Y435502*
X204150Y435002*
X203787Y434502*
X203241Y434252*
X201969*
X207059Y439502D02*
X206514Y439252D01*
X206332Y438752*
Y438252*
X206514Y437752*
X206878Y437502*
X207605Y437252*
X208150Y437002*
X208514Y436502*
X208696Y436002*
Y435252*
X208514Y434752*
X208332Y434502*
X207787Y434252*
X207059*
X206514Y434502*
X206332Y434752*
X206150Y435252*
Y436002*
X206332Y436502*
X206696Y437002*
X207241Y437252*
X207969Y437502*
X208332Y437752*
X208514Y438252*
Y438752*
X208332Y439252*
X207787Y439502*
X207059*
X210332Y438502D02*
X210696Y438752D01*
X211241Y439502*
Y434252*
X331035Y814830D02*
Y810236D01*
X329921Y814830D02*
X332149D01*
X334535D02*
X334217Y814611D01*
X333899Y814174*
X333739Y813736*
X333580Y813080*
Y811986*
X333739Y811330*
X333899Y810892*
X334217Y810455*
X334535Y810236*
X335171*
X335489Y810455*
X335808Y810892*
X335967Y811330*
X336126Y811986*
Y813080*
X335967Y813736*
X335808Y814174*
X335489Y814611*
X335171Y814830*
X334535*
X337558D02*
Y810236D01*
Y814830D02*
X338989D01*
X339467Y814611*
X339626Y814392*
X339785Y813955*
Y813299*
X339626Y812861*
X339467Y812642*
X338989Y812424*
X337558*
X347103Y814174D02*
X346785Y814611D01*
X346308Y814830*
X345671*
X345194Y814611*
X344876Y814174*
Y813736*
X345035Y813299*
X345194Y813080*
X345512Y812861*
X346467Y812424*
X346785Y812205*
X346944Y811986*
X347103Y811549*
Y810892*
X346785Y810455*
X346308Y810236*
X345671*
X345194Y810455*
X344876Y810892*
X348535Y814830D02*
Y810236D01*
X349967Y814830D02*
Y810236D01*
X351876*
X353308Y814830D02*
Y810236D01*
X355535Y814830D02*
X353308Y811767D01*
X354103Y812861D02*
X355535Y810236D01*
G54D34*
X1028740Y219562D02*
Y211811D01*
Y219562D02*
X1030619D01*
X1031424Y219193*
X1031961Y218455*
X1032230Y217717*
X1032498Y216609*
Y214764*
X1032230Y213656*
X1031961Y212918*
X1031424Y212180*
X1030619Y211811*
X1028740*
X1034914Y219562D02*
X1035183Y219193D01*
X1035451Y219562*
X1035183Y219931*
X1034914Y219562*
X1035183Y216978D02*
Y211811D01*
X1040820Y215871D02*
X1040551Y216609D01*
X1039746Y216978*
X1038941*
X1038135Y216609*
X1037867Y215871*
X1038135Y215133*
X1038672Y214764*
X1040014Y214395*
X1040551Y214026*
X1040820Y213287*
Y212918*
X1040551Y212180*
X1039746Y211811*
X1038941*
X1038135Y212180*
X1037867Y212918*
X1046457Y215871D02*
X1045920Y216609D01*
X1045383Y216978*
X1044578*
X1044041Y216609*
X1043504Y215871*
X1043236Y214764*
Y214026*
X1043504Y212918*
X1044041Y212180*
X1044578Y211811*
X1045383*
X1045920Y212180*
X1046457Y212918*
X1050215Y216978D02*
X1049678Y216609D01*
X1049141Y215871*
X1048873Y214764*
Y214026*
X1049141Y212918*
X1049678Y212180*
X1050215Y211811*
X1051020*
X1051557Y212180*
X1052094Y212918*
X1052362Y214026*
Y214764*
X1052094Y215871*
X1051557Y216609*
X1051020Y216978*
X1050215*
X1060952Y218086D02*
X1061489Y218455D01*
X1062294Y219562*
Y211811*
X1064979Y212549D02*
X1064710Y212180D01*
X1064979Y211811*
X1065247Y212180*
X1064979Y212549*
X1069273Y219562D02*
X1068468Y219193D01*
X1067931Y218086*
X1067663Y216240*
Y215133*
X1067931Y213287*
X1068468Y212180*
X1069273Y211811*
X1069810*
X1070616Y212180*
X1071152Y213287*
X1071421Y215133*
Y216240*
X1071152Y218086*
X1070616Y219193*
X1069810Y219562*
X1069273*
G54D40*
X380830Y756339D02*
G75*
G03X380830I-791J0D01*
G01X188189Y455118D02*
Y458071D01*
X156693*
Y455315*
X182922Y431299D02*
G03X182922I-835J0D01*
G01X502877Y756339D02*
G03X502877I-790J0D01*
G01X817838D02*
G03X817838I-791J0D01*
G01X943822D02*
G03X943822I-791J0D01*
G01X953822Y236181D02*
G03X953822I-791J0D01*
G01X827838D02*
G03X827838I-791J0D01*
G01X512877D02*
G03X512877I-790J0D01*
G01X398704D02*
G03X398704I-791J0D01*
G01X635039Y752165D02*
Y753740D01*
X636614*
Y752165*
X635039*
Y776181D02*
Y777756D01*
X636614*
Y776181*
X635039*
X615354Y753740D02*
Y752165D01*
X613780*
Y753740*
X615354*
Y776181D02*
X613780D01*
Y777756*
X615354*
Y776181*
X715354Y253346D02*
Y251772D01*
X713780*
Y253346*
X715354*
Y229331D02*
Y227756D01*
X713780*
Y229331*
X715354*
X735039Y251772D02*
Y253346D01*
X736614*
Y251772*
X735039*
Y229331D02*
X736614D01*
Y227756*
X735039*
Y229331*
X382212Y723038D02*
Y719900D01*
X382364Y719273*
X382668Y718855*
X383125Y718645*
X383429*
X383885Y718855*
X384189Y719273*
X384341Y719900*
Y723038*
X385710Y722201D02*
X386015Y722410D01*
X386471Y723038*
Y718645*
X294679Y738905D02*
X299071D01*
X294679D02*
Y739970D01*
X294888Y740426*
X295306Y740730*
X295725Y740882*
X296352Y741034*
X297398*
X298025Y740882*
X298444Y740730*
X298862Y740426*
X299071Y739970*
Y738905*
X295516Y742403D02*
X295306Y742708D01*
X294679Y743164*
X299071*
X397589Y771992D02*
X397436Y772410D01*
X397132Y772828*
X396828Y773038*
X396220*
X395915Y772828*
X395611Y772410*
X395459Y771992*
X395307Y771364*
Y770319*
X395459Y769691*
X395611Y769273*
X395915Y768855*
X396220Y768645*
X396828*
X397132Y768855*
X397436Y769273*
X397589Y769691*
X400783Y772410D02*
X400631Y772828D01*
X400174Y773038*
X399870*
X399414Y772828*
X399110Y772201*
X398958Y771155*
Y770109*
X398958D02*
X399110Y769273D01*
X399414Y768855*
X399870Y768645*
X400022*
X400479Y768855*
X400783Y769273*
X400935Y769900*
Y770109*
X400935D02*
X400783Y770737D01*
X400479Y771155*
X400022Y771364*
X399870*
X399414Y771155*
X399110Y770737*
X398958Y770109*
X615940Y739315D02*
X615788Y739733D01*
X615484Y740151*
X615180Y740360*
X614571*
X614267Y740151*
X613963Y739733*
X613811Y739315*
X613659Y738687*
Y737641*
X613811Y737014*
X613963Y736596*
X614267Y736177*
X614571Y735968*
X615180*
X615484Y736177*
X615788Y736596*
X615940Y737014*
X619287Y740360D02*
X617766D01*
X617614Y738478*
X617766Y738687*
X618222Y738896*
X618678*
X619135Y738687*
X619439Y738269*
X619591Y737641*
X619439Y737223*
X619287Y736596*
X618983Y736177*
X618526Y735968*
X618070*
X617614Y736177*
X617462Y736387*
X617309Y736805*
X370401Y772250D02*
Y767858D01*
Y772250D02*
X371770D01*
X372226Y772041*
X372378Y771832*
X372530Y771414*
Y770995*
X372378Y770577*
X372226Y770368*
X371770Y770159*
X370401*
X371466D02*
X372530Y767858D01*
X373899Y771414D02*
X374204Y771623D01*
X374660Y772250*
Y767858*
X628796Y736019D02*
X628377Y735867D01*
X627959Y735563*
X627750Y735259*
Y734650*
X627959Y734346*
X628377Y734042*
X628796Y733890*
X629423Y733737*
X630469*
X631096Y733890*
X631515Y734042*
X631933Y734346*
X632142Y734650*
Y735259*
X631933Y735563*
X631515Y735867*
X631096Y736019*
X627750Y738909D02*
X630678Y737388D01*
Y739670*
X627750Y738909D02*
X632142D01*
X145848Y447447D02*
Y444101D01*
X145696Y443473*
X145544Y443264*
X145240Y443055*
X144936*
X144631Y443264*
X144479Y443473*
X144327Y444101*
Y444519*
X147217Y446610D02*
X147521Y446820D01*
X147978Y447447*
Y443055*
X637592Y783102D02*
X641984D01*
X637592D02*
Y784471D01*
X637801Y784928*
X638011Y785080*
X638429Y785232*
X638847*
X639266Y785080*
X639266D02*
X639475Y784928D01*
X639684Y784471*
Y783102*
Y784167D02*
X641984Y785232D01*
X638638Y786753D02*
X638429D01*
X638011Y786905*
X637801Y787057*
X637592Y787361*
Y787970*
X637801Y788274*
X638011Y788426*
X638429Y788578*
X638847*
X639266Y788426*
X639266D02*
X639893Y788122D01*
X641984Y786601*
X641984D02*
Y788730D01*
X415229Y754275D02*
X415077Y754694D01*
X414773Y755112*
X414469Y755321*
X413860*
X413556Y755112*
X413252Y754694*
X413100Y754275*
X413100D02*
X412947Y753648D01*
Y752602*
X413100Y751975*
X413100D02*
X413252Y751556D01*
X413556Y751138*
X413860Y750929*
X414469*
X414773Y751138*
X415077Y751556*
X415229Y751975*
X418728Y755321D02*
X417207Y750929D01*
X416598Y755321D02*
X418728D01*
X292710Y730346D02*
X297103D01*
X292710D02*
Y731411D01*
X292920Y731867*
X293338Y732172*
X293756Y732324*
X294384Y732476*
X295429*
X296057Y732324*
X296475Y732172*
X296893Y731867*
X297103Y731411*
Y730346*
X293756Y733997D02*
X293547D01*
X293129Y734149*
X292920Y734301*
X292710Y734605*
Y735214*
X292920Y735518*
X293129Y735670*
X293547Y735822*
X293965*
X294384Y735670*
X295011Y735366*
X297103Y733845*
Y735974*
X359640Y738220D02*
X364032D01*
X359640D02*
Y739285D01*
X359849Y739741*
X360267Y740046*
X360685Y740198*
X361313Y740350*
X362359*
X362986Y740198*
X363404Y740046*
X363823Y739741*
X364032Y739285*
Y738220*
X359640Y742023D02*
Y743696D01*
X361313Y742784*
Y743240*
X361522Y743544*
X361731Y743696*
X362359Y743848*
X362777*
X363404Y743696*
X363823Y743392*
X364032Y742936*
Y742479*
X363823Y742023*
X363613Y741871*
X363195Y741719*
X357671Y730270D02*
X362063D01*
X357671D02*
Y731335D01*
X357880Y731791*
X358298Y732096*
X358717Y732248*
X359344Y732400*
X360390*
X361017Y732248*
X361436Y732096*
X361854Y731791*
X362063Y731335*
Y730270*
X357671Y735290D02*
X360599Y733769D01*
Y736050*
X357671Y735290D02*
X362063D01*
X452159Y740113D02*
X456551D01*
X452159D02*
Y741178D01*
X452368Y741634*
X452787Y741938*
X453205Y742090*
X453832Y742242*
X454878*
X455506Y742090*
X455924Y741938*
X456342Y741634*
X456551Y741178*
Y740113*
X452159Y745589D02*
Y744068D01*
X454042Y743916*
X453832Y744068*
X453623Y744524*
Y744980*
X453832Y745437*
X454251Y745741*
X454878Y745893*
X455297Y745741*
X455924Y745589*
X456342Y745285*
X456551Y744828*
Y744372*
X456342Y743916*
X456133Y743763*
X455715Y743611*
X450191Y732391D02*
X454583D01*
X450191D02*
Y733456D01*
X450400Y733912*
X450818Y734216*
X451236Y734368*
X451864Y734520*
X452910*
X453537Y734368*
X453955Y734216*
X454374Y733912*
X454583Y733456*
Y732391*
X450818Y737715D02*
X450400Y737563D01*
X450191Y737106*
Y736802*
X450400Y736346*
X451027Y736042*
X452073Y735889*
X453119*
X453955Y736042*
X454374Y736346*
X454583Y736802*
Y736954*
X454374Y737411*
X453955Y737715*
X453328Y737867*
X453119*
X452491Y737715*
X452073Y737411*
X451864Y736954*
Y736802*
X452073Y736346*
X452491Y736042*
X453119Y735889*
X532868Y738220D02*
X537260D01*
X532868D02*
Y739285D01*
X533077Y739741*
X533495Y740046*
X533914Y740198*
X534541Y740350*
X535587*
X536214Y740198*
X536633Y740046*
X537051Y739741*
X537260Y739285*
Y738220*
X532868Y743848D02*
X537260Y742327D01*
X532868Y741719D02*
Y743848D01*
X528931Y730346D02*
X533323D01*
X528931D02*
Y731411D01*
X529140Y731867*
X529558Y732172*
X529977Y732324*
X530604Y732476*
X531650*
X532277Y732324*
X532696Y732172*
X533114Y731867*
X533323Y731411*
Y730346*
X528931Y734605D02*
X529140Y734149D01*
X529558Y733997*
X529977*
X530395Y734149*
X530604Y734453*
X530813Y735062*
X531022Y735518*
X531441Y735822*
X531859Y735974*
X532486*
X532905Y735822*
X533114Y735670*
X533323Y735214*
Y734605*
X533114Y734149*
X532905Y733997*
X532486Y733845*
X531859*
X531441Y733997*
X531022Y734301*
X530813Y734758*
X530604Y735366*
X530395Y735670*
X529977Y735822*
X529558*
X529140Y735670*
X528931Y735214*
Y734605*
X582080Y744202D02*
X586473D01*
X582080D02*
Y745267D01*
X582290Y745723*
X582708Y746027*
X583126Y746179*
X583754Y746331*
X584799*
X585427Y746179*
X585845Y746027*
X586264Y745723*
X586473Y745267*
Y744202*
X583545Y749678D02*
X584172Y749526D01*
X584590Y749222*
X584799Y748765*
Y748613*
X584590Y748157*
X584172Y747853*
X583545Y747700*
X583335*
X582708Y747853*
X582290Y748157*
X582080Y748613*
Y748765*
X582290Y749222*
X582708Y749526*
X583545Y749678*
X584590*
X585636Y749526*
X586264Y749222*
X586473Y748765*
Y748461*
X586264Y748005*
X585845Y747853*
X578143Y733219D02*
X582536D01*
X578143D02*
Y734283D01*
X578353Y734740*
X578771Y735044*
X579189Y735196*
X579817Y735348*
X580862*
X581490Y735196*
X581908Y735044*
X582327Y734740*
X582536Y734283*
Y733219*
X578980Y736717D02*
X578771Y737021D01*
X578143Y737478*
X582536*
X578143Y739759D02*
X578353Y739303D01*
X578980Y738999*
X580026Y738847*
X580653*
X581699Y738999*
X582327Y739303*
X582536Y739759*
Y740064*
X582327Y740520*
X581699Y740824*
X580653Y740976*
X580026*
X578980Y740824*
X578353Y740520*
X578143Y740064*
Y739759*
X503499Y725006D02*
Y721869D01*
X503651Y721241*
X503955Y720823*
X504411Y720614*
X504715*
X505172Y720823*
X505476Y721241*
X505628Y721869*
Y725006*
X508518D02*
X506997Y722078D01*
X509279*
X508518Y725006D02*
Y720614D01*
X294679Y720123D02*
X299071D01*
X294679D02*
Y721188D01*
X294888Y721645*
X295306Y721949*
X295725Y722101*
X296352Y722253*
X297398*
X298025Y722101*
X298444Y721949*
X298862Y721645*
X299071Y721188*
Y720123*
X295516Y723622D02*
X295306Y723926D01*
X294679Y724383*
X299071*
X295516Y725752D02*
X295306Y726056D01*
X294679Y726512*
X299071*
X517591Y771992D02*
X517439Y772410D01*
X517135Y772828*
X516831Y773038*
X516222*
X515918Y772828*
X515614Y772410*
X515462Y771992*
X515310Y771364*
Y770319*
X515462Y769691*
X515614Y769273*
X515918Y768855*
X516222Y768645*
X516831*
X517135Y768855*
X517439Y769273*
X517591Y769691*
X519721Y773038D02*
X519264Y772828D01*
X519112Y772410*
Y771992*
X519264Y771574*
X519569Y771364*
X520177Y771155*
X520634Y770946*
X520634D02*
X520938Y770528D01*
X521090Y770109*
X521090D02*
Y769482D01*
X520938Y769064*
X520786Y768855*
X520329Y768645*
X519721*
X519264Y768855*
X519112Y769064*
X518960Y769482*
Y770109*
X518960D02*
X519112Y770528D01*
X519417Y770946*
X519873Y771155*
X520481Y771364*
X520786Y771574*
X520938Y771992*
Y772410*
X520786Y772828*
X520329Y773038*
X519721*
X491764Y772250D02*
Y767858D01*
Y772250D02*
X493133D01*
X493589Y772041*
X493741Y771832*
X493893Y771414*
Y770995*
X493741Y770577*
X493589Y770368*
X493133Y770159*
X491764*
X492828D02*
X493893Y767858D01*
X495566Y772250D02*
X497240D01*
X496327Y770577*
X496783*
X497088Y770368*
X497240Y770159*
X497392Y769531*
Y769113*
X497240Y768485*
X496935Y768067*
X496479Y767858*
X496023*
X495566Y768067*
X495414Y768276*
X495262Y768695*
X535384Y754275D02*
X535232Y754694D01*
X534928Y755112*
X534623Y755321*
X534015*
X533711Y755112*
X533406Y754694*
X533254Y754275*
X533102Y753648*
Y752602*
X533254Y751975*
X533406Y751556*
X533711Y751138*
X534015Y750929*
X534623*
X534928Y751138*
X535232Y751556*
X535384Y751975*
X538730Y753857D02*
X538578Y753230D01*
X538274Y752811*
X537818Y752602*
X537666*
X537209Y752811*
X536905Y753230*
X536753Y753857*
Y754066*
X536905Y754694*
X537209Y755112*
X537666Y755321*
X537818*
X538274Y755112*
X538578Y754694*
X538730Y753857*
Y752811*
X538578Y751766*
X538578D02*
X538274Y751138D01*
X537818Y750929*
X537513*
X537057Y751138*
X536905Y751556*
X292710Y709596D02*
X297103D01*
X292710D02*
Y710661D01*
X292920Y711118*
X293338Y711422*
X293756Y711574*
X294384Y711726*
X295429*
X296057Y711574*
X296475Y711422*
X296893Y711118*
X297103Y710661*
Y709596*
X293547Y713095D02*
X293338Y713399D01*
X292710Y713856*
X297103*
X293756Y715377D02*
X293547D01*
X293129Y715529*
X292920Y715681*
X292710Y715985*
Y716594*
X292920Y716898*
X293129Y717050*
X293547Y717202*
X293965*
X294384Y717050*
X295011Y716746*
X297103Y715225*
Y717354*
X359640Y719439D02*
X364032D01*
X359640D02*
Y720504D01*
X359849Y720960*
X360267Y721264*
X360685Y721416*
X361313Y721569*
X362359*
X362986Y721416*
X363404Y721264*
X363823Y720960*
X364032Y720504*
Y719439*
X360476Y722938D02*
X360267Y723242D01*
X359640Y723698*
X364032*
X359640Y725371D02*
Y727045D01*
X361313Y726132*
Y726588*
X361522Y726892*
X361731Y727045*
X362359Y727197*
X362777*
X363404Y727045*
X363823Y726740*
X364032Y726284*
Y725828*
X363823Y725371*
X363613Y725219*
X363195Y725067*
X357671Y709520D02*
X362063D01*
X357671D02*
Y710585D01*
X357880Y711042*
X358298Y711346*
X358717Y711498*
X359344Y711650*
X360390*
X361017Y711498*
X361436Y711346*
X361854Y711042*
X362063Y710585*
Y709520*
X358508Y713019D02*
X358298Y713323D01*
X357671Y713780*
X362063*
X357671Y716670D02*
X360599Y715149D01*
Y717430*
X357671Y716670D02*
X362063D01*
X452159Y721331D02*
X456551D01*
X452159D02*
Y722396D01*
X452368Y722853*
X452787Y723157*
X453205Y723309*
X453832Y723461*
X454878*
X455506Y723309*
X455924Y723157*
X456342Y722853*
X456551Y722396*
Y721331*
X452996Y724830D02*
X452787Y725134D01*
X452159Y725591*
X456551*
X452159Y728937D02*
Y727416D01*
X454042Y727264*
X453832Y727416*
X453623Y727872*
Y728329*
X453832Y728785*
X454251Y729089*
X454878Y729241*
X455297Y729089*
X455924Y728937*
X456342Y728633*
X456551Y728176*
Y727720*
X456342Y727264*
X456133Y727112*
X455715Y726960*
X450191Y711641D02*
X454583D01*
X450191D02*
Y712706D01*
X450400Y713162*
X450818Y713466*
X451236Y713618*
X451864Y713771*
X452910*
X453537Y713618*
X453955Y713466*
X454374Y713162*
X454583Y712706*
Y711641*
X451027Y715140D02*
X450818Y715444D01*
X450191Y715900*
X454583*
X450818Y719094D02*
X450400Y718942D01*
X450191Y718486*
Y718182*
X450400Y717725*
X451027Y717421*
X452073Y717269*
X453119*
X453955Y717421*
X454374Y717725*
X454583Y718182*
Y718334*
X454374Y718790*
X453955Y719094*
X453328Y719247*
X453119*
X452491Y719094*
X452073Y718790*
X451864Y718334*
Y718182*
X452073Y717725*
X452491Y717421*
X453119Y717269*
X532868Y719439D02*
X537260D01*
X532868D02*
Y720504D01*
X533077Y720960*
X533495Y721264*
X533914Y721416*
X534541Y721569*
X535587*
X536214Y721416*
X536633Y721264*
X537051Y720960*
X537260Y720504*
Y719439*
X533704Y722938D02*
X533495Y723242D01*
X532868Y723698*
X537260*
X532868Y727197D02*
X537260Y725676D01*
X532868Y725067D02*
Y727197D01*
X528931Y709596D02*
X533323D01*
X528931D02*
Y710661D01*
X529140Y711118*
X529558Y711422*
X529977Y711574*
X530604Y711726*
X531650*
X532277Y711574*
X532696Y711422*
X533114Y711118*
X533323Y710661*
Y709596*
X529767Y713095D02*
X529558Y713399D01*
X528931Y713856*
X533323*
X528931Y715985D02*
X529140Y715529D01*
X529558Y715377*
X529977*
X530395Y715529*
X530604Y715833*
X530813Y716441*
X531022Y716898*
X531441Y717202*
X531859Y717354*
X532486*
X532905Y717202*
X533114Y717050*
X533323Y716594*
Y715985*
X533114Y715529*
X532905Y715377*
X532486Y715225*
X531859*
X531441Y715377*
X531022Y715681*
X530813Y716137*
X530604Y716746*
X530395Y717050*
X529977Y717202*
X529558*
X529140Y717050*
X528931Y716594*
Y715985*
X582080Y723452D02*
X586473D01*
X582080D02*
Y724517D01*
X582290Y724973*
X582708Y725277*
X583126Y725429*
X583754Y725582*
X584799*
X585427Y725429*
X585845Y725277*
X586264Y724973*
X586473Y724517*
Y723452*
X582917Y726951D02*
X582708Y727255D01*
X582080Y727711*
X586473*
X583545Y731058D02*
X584172Y730906D01*
X584590Y730601*
X584799Y730145*
Y729993*
X584590Y729537*
X584172Y729232*
X583545Y729080*
X583335*
X582708Y729232*
X582290Y729537*
X582080Y729993*
Y730145*
X582290Y730601*
X582708Y730906*
X583545Y731058*
X584590*
X585636Y730906*
X586264Y730601*
X586473Y730145*
Y729841*
X586264Y729384*
X585845Y729232*
X578143Y710880D02*
X582536D01*
X578143D02*
Y711945D01*
X578353Y712402*
X578771Y712706*
X579189Y712858*
X579817Y713010*
X580862*
X581490Y712858*
X581908Y712706*
X582327Y712402*
X582536Y711945*
Y710880*
X579189Y714531D02*
X578980D01*
X578562Y714683*
X578353Y714835*
X578143Y715140*
Y715748*
X578353Y716052*
X578562Y716204*
X578980Y716356*
X579398*
X579817Y716204*
X580444Y715900*
X582536Y714379*
Y716509*
X578143Y718790D02*
X578353Y718334D01*
X578980Y718030*
X580026Y717878*
X580653*
X581699Y718030*
X582327Y718334*
X582536Y718790*
Y719094*
X582327Y719551*
X581699Y719855*
X580653Y720007*
X580026*
X578980Y719855*
X578353Y719551*
X578143Y719094*
Y718790*
X818459Y725006D02*
Y721869D01*
X818611Y721241*
X818916Y720823*
X819372Y720614*
X819676*
X820132Y720823*
X820437Y721241*
X820589Y721869*
Y725006*
X823935D02*
X822414D01*
X822262Y723124*
X822414Y723333*
X822870Y723542*
X823327*
X823783Y723333*
X824087Y722915*
X824239Y722287*
X824087Y721869*
X823935Y721241*
X823631Y720823*
X823175Y720614*
X822718*
X822262Y720823*
X822110Y721032*
X821958Y721451*
X743498Y741093D02*
X747890D01*
X743498D02*
Y742157D01*
X743707Y742614*
X744125Y742918*
X744544Y743070*
X745171Y743222*
X746217*
X746844Y743070*
X747263Y742918*
X747681Y742614*
X747890Y742157*
Y741093*
X744544Y744743D02*
X744334D01*
X743916Y744895*
X743707Y745047*
X743498Y745352*
Y745960*
X743707Y746264*
X743916Y746416*
X744334Y746569*
X744753*
X745171Y746416*
X745798Y746112*
X747890Y744591*
Y746721*
X744334Y748090D02*
X744125Y748394D01*
X743498Y748850*
X747890*
X831487Y771992D02*
X831335Y772410D01*
X831031Y772828*
X830727Y773038*
X830118*
X829814Y772828*
X829510Y772410*
X829358Y771992*
X829205Y771364*
Y770319*
X829358Y769691*
X829510Y769273*
X829814Y768855*
X830118Y768645*
X830727*
X831031Y768855*
X831335Y769273*
X831487Y769691*
X832856Y772201D02*
X833160Y772410D01*
X833617Y773038*
Y768645*
X835898Y773038D02*
X835442Y772828D01*
X835138Y772201*
X834986Y771155*
Y770528*
X835138Y769482*
X835442Y768855*
X835898Y768645*
X836203*
X836659Y768855*
X836963Y769482*
X837115Y770528*
Y771155*
X836963Y772201*
X836659Y772828*
X836203Y773038*
X835898*
X806648Y772250D02*
Y767858D01*
Y772250D02*
X808017D01*
X808474Y772041*
X808626Y771832*
X808778Y771414*
Y770995*
X808626Y770577*
X808474Y770368*
X808017Y770159*
X806648*
X807713D02*
X808778Y767858D01*
X811668Y772250D02*
X810147Y769322D01*
X812428*
X811668Y772250D02*
Y767858D01*
X851857Y754275D02*
X851705Y754694D01*
X851400Y755112*
X851096Y755321*
X850488*
X850183Y755112*
X849879Y754694*
X849727Y754275*
X849575Y753648*
Y752602*
X849727Y751975*
X849879Y751556*
X850183Y751138*
X850488Y750929*
X851096*
X851400Y751138*
X851705Y751556*
X851857Y751975*
X853226Y754484D02*
X853530Y754694D01*
X853986Y755321*
Y750929*
X855355Y754484D02*
X855659Y754694D01*
X856116Y755321*
Y750929*
X739561Y728597D02*
X743953D01*
X739561D02*
Y729662D01*
X739770Y730118*
X740188Y730422*
X740607Y730574*
X741234Y730727*
X742280*
X742907Y730574*
X743326Y730422*
X743744Y730118*
X743953Y729662*
Y728597*
X740607Y732248D02*
X740397D01*
X739979Y732400*
X739770Y732552*
X739561Y732856*
Y733465*
X739770Y733769*
X739979Y733921*
X740397Y734073*
X740816*
X741234Y733921*
X741861Y733617*
X743953Y732096*
Y734225*
X740607Y735746D02*
X740397D01*
X739979Y735898*
X739770Y736050*
X739561Y736355*
Y736963*
X739770Y737267*
X739979Y737419*
X740397Y737572*
X740816*
X741234Y737419*
X741861Y737115*
X743953Y735594*
Y737724*
X794679Y740408D02*
X799071D01*
X794679D02*
Y741473D01*
X794888Y741929*
X795306Y742233*
X795725Y742385*
X796352Y742538*
X797398*
X798025Y742385*
X798444Y742233*
X798862Y741929*
X799071Y741473*
Y740408*
X795725Y744059D02*
X795516D01*
X795516D02*
X795097Y744211D01*
X794888Y744363*
X794679Y744667*
Y745276*
X794888Y745580*
X795097Y745732*
X795516Y745884*
X795516D02*
X795934D01*
X796352Y745732*
X796980Y745428*
X799071Y743907*
Y746036*
X794679Y747709D02*
Y749383D01*
X796352Y748470*
Y748926*
X796561Y749230*
X796770Y749383*
X797398Y749535*
X797816*
X798444Y749383*
X798862Y749078*
X799071Y748622*
Y748166*
X798862Y747709*
X798653Y747557*
X798234Y747405*
X790742Y728521D02*
X795134D01*
X790742D02*
Y729586D01*
X790951Y730042*
X791369Y730346*
X791788Y730498*
X792415Y730651*
X793461*
X794088Y730498*
X794507Y730346*
X794925Y730042*
X795134Y729586*
Y728521*
X791788Y732172D02*
X791578D01*
X791160Y732324*
X790951Y732476*
X790742Y732780*
Y733389*
X790951Y733693*
X791160Y733845*
X791578Y733997*
X791997*
X792415Y733845*
X793043Y733541*
X795134Y732020*
Y734149*
X790742Y737039D02*
X793670Y735518D01*
Y737800*
X790742Y737039D02*
X795134D01*
X883262Y736395D02*
X887654D01*
X883262D02*
Y737460D01*
X883471Y737916*
X883889Y738220*
X884307Y738372*
X884935Y738525*
X885981*
X886608Y738372*
X887026Y738220*
X887445Y737916*
X887654Y737460*
Y736395*
X884307Y740046D02*
X884098D01*
X883680Y740198*
X883471Y740350*
X883262Y740654*
Y741263*
X883471Y741567*
X883680Y741719*
X884098Y741871*
X884516*
X884935Y741719*
X885562Y741415*
X887654Y739894*
Y742023*
X883262Y745370D02*
Y743848D01*
X885144Y743696*
X884935Y743848*
X884726Y744305*
Y744761*
X884935Y745217*
X885353Y745522*
X885981Y745674*
X886399Y745522*
X887026Y745370*
X887445Y745065*
X887654Y744609*
Y744153*
X887445Y743696*
X887235Y743544*
X886817Y743392*
X879325Y726705D02*
X883717D01*
X879325D02*
Y727769D01*
X879534Y728226*
X879952Y728530*
X880370Y728682*
X880998Y728834*
X882044*
X882671Y728682*
X883089Y728530*
X883508Y728226*
X883717Y727769*
Y726705*
X880370Y730355D02*
X880161D01*
X879743Y730507*
X879534Y730659*
X879325Y730964*
Y731572*
X879534Y731876*
X879743Y732028*
X880161Y732181*
X880579*
X880998Y732028*
X881625Y731724*
X883717Y730203*
Y732333*
X879952Y735527D02*
X879534Y735375D01*
X879325Y734919*
Y734614*
X879534Y734158*
X880161Y733854*
X881207Y733702*
X882253*
X883089Y733854*
X883508Y734158*
X883717Y734614*
Y734766*
X883508Y735223*
X883089Y735527*
X882462Y735679*
X882253*
X881625Y735527*
X881207Y735223*
X880998Y734766*
Y734614*
X881207Y734158*
X881625Y733854*
X882253Y733702*
X916726Y738440D02*
X921118D01*
X916726D02*
Y739504D01*
X916935Y739961*
X917354Y740265*
X917772Y740417*
X918399Y740569*
X919445*
X920073Y740417*
X920491Y740265*
X920909Y739961*
X921118Y739504*
Y738440*
X917772Y742090D02*
X917563D01*
X917144Y742242*
X916935Y742394*
X916726Y742699*
Y743307*
X916935Y743611*
X917144Y743763*
X917563Y743916*
X917981*
X918399Y743763*
X919027Y743459*
X921118Y741938*
Y744068*
X916726Y747566D02*
X921118Y746045D01*
X916726Y745437D02*
Y747566D01*
X920663Y728597D02*
X925055D01*
X920663D02*
Y729662D01*
X920872Y730118*
X921291Y730422*
X921709Y730574*
X922336Y730727*
X923382*
X924010Y730574*
X924428Y730422*
X924846Y730118*
X925055Y729662*
Y728597*
X921709Y732248D02*
X921500D01*
X921081Y732400*
X920872Y732552*
X920663Y732856*
Y733465*
X920872Y733769*
X921081Y733921*
X921500Y734073*
X921918*
X922336Y733921*
X922964Y733617*
X925055Y732096*
Y734225*
X920663Y736355D02*
X920872Y735898D01*
X921291Y735746*
X921709*
X922127Y735898*
X922336Y736203*
X922546Y736811*
X922755Y737267*
X923173Y737572*
X923591Y737724*
X924219*
X924637Y737572*
X924846Y737419*
X925055Y736963*
Y736355*
X924846Y735898*
X924637Y735746*
X924219Y735594*
X923591*
X923173Y735746*
X922755Y736050*
X922546Y736507*
X922336Y737115*
X922127Y737419*
X921709Y737572*
X921291*
X920872Y737419*
X920663Y736963*
Y736355*
X1030899Y738516D02*
X1035292D01*
X1030899D02*
Y739580D01*
X1031109Y740037*
X1031527Y740341*
X1031945Y740493*
X1032573Y740645*
X1033618*
X1034246Y740493*
X1034664Y740341*
X1035082Y740037*
X1035292Y739580*
Y738516*
X1031945Y742166D02*
X1031736D01*
X1031318Y742318*
X1031109Y742470*
X1030899Y742775*
Y743383*
X1031109Y743687*
X1031318Y743839*
X1031736Y743992*
X1032154*
X1032573Y743839*
X1033200Y743535*
X1035292Y742014*
Y744144*
X1032363Y747490D02*
X1032991Y747338D01*
X1033409Y747034*
X1033618Y746577*
Y746425*
X1033409Y745969*
X1032991Y745665*
X1032363Y745513*
X1032154*
X1031527Y745665*
X1031109Y745969*
X1030899Y746425*
Y746577*
X1031109Y747034*
X1031527Y747338*
X1032363Y747490*
X1033409*
X1034455Y747338*
X1035082Y747034*
X1035292Y746577*
Y746273*
X1035082Y745817*
X1034664Y745665*
X1028931Y726628D02*
X1033323D01*
X1028931D02*
Y727693D01*
X1029140Y728150*
X1029558Y728454*
X1029977Y728606*
X1030604Y728758*
X1031650*
X1032277Y728606*
X1032696Y728454*
X1033114Y728150*
X1033323Y727693*
Y726628*
X1028931Y730431D02*
Y732105D01*
X1030604Y731192*
Y731648*
X1030813Y731952*
X1031022Y732105*
X1031650Y732257*
X1032068*
X1032696Y732105*
X1033114Y731800*
X1033323Y731344*
Y730888*
X1033114Y730431*
X1032905Y730279*
X1032486Y730127*
X1028931Y734538D02*
X1029140Y734082D01*
X1029767Y733778*
X1030813Y733626*
X1031441*
X1032486Y733778*
X1033114Y734082*
X1033323Y734538*
Y734843*
X1033114Y735299*
X1032486Y735603*
X1031441Y735755*
X1030813*
X1029767Y735603*
X1029140Y735299*
X1028931Y734843*
Y734538*
X944596Y725006D02*
Y721869D01*
X944748Y721241*
X945052Y720823*
X945508Y720614*
X945812*
X946269Y720823*
X946573Y721241*
X946725Y721869*
Y725006*
X949919Y724379D02*
X949767Y724797D01*
X949311Y725006*
X949007*
X948550Y724797*
X948246Y724170*
X948094Y723124*
Y722078*
X948246Y721241*
X948550Y720823*
X949007Y720614*
X949159*
X949615Y720823*
X949919Y721241*
X950072Y721869*
Y722078*
X949919Y722705*
X949615Y723124*
X949159Y723333*
X949007*
X948550Y723124*
X948246Y722705*
X948094Y722078*
X741529Y719439D02*
X745922D01*
X741529D02*
Y720504D01*
X741738Y720960*
X742157Y721264*
X742575Y721416*
X743203Y721569*
X744248*
X744876Y721416*
X745294Y721264*
X745712Y720960*
X745922Y720504*
Y719439*
X741529Y723242D02*
Y724915D01*
X743203Y724002*
Y724459*
X743412Y724763*
X743621Y724915*
X744248Y725067*
X744667*
X745294Y724915*
X745712Y724611*
X745922Y724154*
Y723698*
X745712Y723242*
X745503Y723090*
X745085Y722938*
X742366Y726436D02*
X742157Y726740D01*
X741529Y727197*
X745922*
X955503Y771992D02*
X955351Y772410D01*
X955047Y772828*
X954742Y773038*
X954134*
X953830Y772828*
X953525Y772410*
X953373Y771992*
X953221Y771364*
Y770319*
X953373Y769691*
X953525Y769273*
X953830Y768855*
X954134Y768645*
X954742*
X955047Y768855*
X955351Y769273*
X955503Y769691*
X956872Y772201D02*
X957176Y772410D01*
X957632Y773038*
Y768645*
X959154Y771992D02*
Y772201D01*
X959306Y772619*
X959458Y772828*
X959762Y773038*
X960370*
X960675Y772828*
X960827Y772619*
X960979Y772201*
Y771783*
X960827Y771364*
X960523Y770737*
X959001Y768645*
X961131*
X932632Y772250D02*
Y767858D01*
Y772250D02*
X934001D01*
X934458Y772041*
X934610Y771832*
X934762Y771414*
Y770995*
X934610Y770577*
X934458Y770368*
X934001Y770159*
X932632*
X933697D02*
X934762Y767858D01*
X938108Y772250D02*
X936587D01*
X936435Y770368*
X936587Y770577*
X937044Y770786*
X937500*
X937956Y770577*
X938261Y770159*
X938413Y769531*
X938261Y769113*
X938108Y768485*
X937804Y768067*
X937348Y767858*
X936892*
X936435Y768067*
X936283Y768276*
X936131Y768695*
X977156Y754275D02*
X977004Y754694D01*
X976700Y755112*
X976396Y755321*
X975787*
X975483Y755112*
X975179Y754694*
X975027Y754275*
X974875Y753648*
Y752602*
X975027Y751975*
X975179Y751556*
X975483Y751138*
X975787Y750929*
X976396*
X976700Y751138*
X977004Y751556*
X977156Y751975*
X978525Y754484D02*
X978830Y754694D01*
X979286Y755321*
Y750929*
X980959Y755321D02*
X982632D01*
X981720Y753648*
X982176*
X982480Y753439*
X982632Y753230*
X982785Y752602*
Y752184*
X982632Y751556*
X982328Y751138*
X981872Y750929*
X981416*
X980959Y751138*
X980807Y751347*
X980655Y751766*
X739561Y706943D02*
X743953D01*
X739561D02*
Y708008D01*
X739770Y708465*
X740188Y708769*
X740607Y708921*
X741234Y709073*
X742280*
X742907Y708921*
X743326Y708769*
X743744Y708465*
X743953Y708008*
Y706943*
X739561Y710746D02*
Y712419D01*
X741234Y711507*
Y711963*
X741443Y712267*
X741652Y712419*
X742280Y712572*
X742698*
X743326Y712419*
X743744Y712115*
X743953Y711659*
Y711203*
X743744Y710746*
X743535Y710594*
X743116Y710442*
X740607Y714093D02*
X740397D01*
X739979Y714245*
X739770Y714397*
X739561Y714701*
Y715310*
X739770Y715614*
X739979Y715766*
X740397Y715918*
X740816*
X741234Y715766*
X741861Y715462*
X743953Y713941*
Y716070*
X794679Y716786D02*
X799071D01*
X794679D02*
Y717851D01*
X794888Y718307*
X795306Y718611*
X795725Y718763*
X796352Y718916*
X797398*
X798025Y718763*
X798444Y718611*
X798862Y718307*
X799071Y717851*
Y716786*
X794679Y720589D02*
Y722262D01*
X796352Y721349*
Y721806*
X796561Y722110*
X796770Y722262*
X797398Y722414*
X797816*
X798444Y722262*
X798862Y721958*
X799071Y721501*
Y721045*
X798862Y720589*
X798653Y720437*
X798234Y720285*
X794679Y724087D02*
Y725761D01*
X796352Y724848*
Y725304*
X796561Y725608*
X796770Y725761*
X797398Y725913*
X797816*
X798444Y725761*
X798862Y725456*
X799071Y725000*
Y724544*
X798862Y724087*
X798653Y723935*
X798234Y723783*
X790742Y706867D02*
X795134D01*
X790742D02*
Y707932D01*
X790951Y708389*
X791369Y708693*
X791788Y708845*
X792415Y708997*
X793461*
X794088Y708845*
X794507Y708693*
X794925Y708389*
X795134Y707932*
Y706867*
X790742Y710670D02*
Y712343D01*
X792415Y711431*
Y711887*
X792624Y712191*
X792833Y712343*
X793461Y712496*
X793879*
X794507Y712343*
X794925Y712039*
X795134Y711583*
Y711127*
X794925Y710670*
X794716Y710518*
X794297Y710366*
X790742Y715386D02*
X793670Y713865D01*
Y716146*
X790742Y715386D02*
X795134D01*
X883262Y714741D02*
X887654D01*
X883262D02*
Y715806D01*
X883471Y716263*
X883889Y716567*
X884307Y716719*
X884935Y716871*
X885981*
X886608Y716719*
X887026Y716567*
X887445Y716263*
X887654Y715806*
Y714741*
X883262Y718544D02*
Y720217D01*
X884935Y719305*
Y719761*
X885144Y720065*
X885353Y720217*
X885981Y720370*
X886399*
X887026Y720217*
X887445Y719913*
X887654Y719457*
Y719001*
X887445Y718544*
X887235Y718392*
X886817Y718240*
X883262Y723716D02*
Y722195D01*
X885144Y722043*
X884935Y722195*
X884726Y722651*
Y723108*
X884935Y723564*
X885353Y723868*
X885981Y724020*
X886399Y723868*
X887026Y723716*
X887445Y723412*
X887654Y722955*
Y722499*
X887445Y722043*
X887235Y721891*
X886817Y721739*
X879325Y705051D02*
X883717D01*
X879325D02*
Y706116D01*
X879534Y706572*
X879952Y706876*
X880370Y707028*
X880998Y707181*
X882044*
X882671Y707028*
X883089Y706876*
X883508Y706572*
X883717Y706116*
Y705051*
X879325Y708854D02*
Y710527D01*
X880998Y709614*
Y710071*
X881207Y710375*
X881416Y710527*
X882044Y710679*
X882462*
X883089Y710527*
X883508Y710223*
X883717Y709766*
Y709310*
X883508Y708854*
X883298Y708702*
X882880Y708550*
X879952Y713873D02*
X879534Y713721D01*
X879325Y713265*
Y712961*
X879534Y712504*
X880161Y712200*
X881207Y712048*
X882253*
X883089Y712200*
X883508Y712504*
X883717Y712961*
Y713113*
X883508Y713569*
X883089Y713873*
X882462Y714026*
X882253*
X881625Y713873*
X881207Y713569*
X880998Y713113*
Y712961*
X881207Y712504*
X881625Y712200*
X882253Y712048*
X916726Y718754D02*
X921118D01*
X916726D02*
Y719819D01*
X916935Y720276*
X917354Y720580*
X917772Y720732*
X918399Y720884*
X919445*
X920073Y720732*
X920491Y720580*
X920909Y720276*
X921118Y719819*
Y718754*
X916726Y722557D02*
Y724230D01*
X918399Y723318*
Y723774*
X918609Y724078*
X918818Y724230*
X919445Y724383*
X919863*
X920491Y724230*
X920909Y723926*
X921118Y723470*
Y723014*
X920909Y722557*
X920700Y722405*
X920282Y722253*
X916726Y727881D02*
X921118Y726360D01*
X916726Y725752D02*
Y727881D01*
X920663Y706943D02*
X925055D01*
X920663D02*
Y708008D01*
X920872Y708465*
X921291Y708769*
X921709Y708921*
X922336Y709073*
X923382*
X924010Y708921*
X924428Y708769*
X924846Y708465*
X925055Y708008*
Y706943*
X920663Y710746D02*
Y712419D01*
X922336Y711507*
Y711963*
X922546Y712267*
X922755Y712419*
X923382Y712572*
X923800*
X924428Y712419*
X924846Y712115*
X925055Y711659*
Y711203*
X924846Y710746*
X924637Y710594*
X924219Y710442*
X920663Y714701D02*
X920872Y714245D01*
X921291Y714093*
X921709*
X922127Y714245*
X922336Y714549*
X922546Y715157*
X922755Y715614*
X923173Y715918*
X923591Y716070*
X924219*
X924637Y715918*
X924846Y715766*
X925055Y715310*
Y714701*
X924846Y714245*
X924637Y714093*
X924219Y713941*
X923591*
X923173Y714093*
X922755Y714397*
X922546Y714853*
X922336Y715462*
X922127Y715766*
X921709Y715918*
X921291*
X920872Y715766*
X920663Y715310*
Y714701*
X1030899Y716862D02*
X1035292D01*
X1030899D02*
Y717927D01*
X1031109Y718383*
X1031527Y718687*
X1031945Y718839*
X1032573Y718992*
X1033618*
X1034246Y718839*
X1034664Y718687*
X1035082Y718383*
X1035292Y717927*
Y716862*
X1030899Y720665D02*
Y722338D01*
X1032573Y721425*
Y721882*
X1032782Y722186*
X1032991Y722338*
X1033618Y722490*
X1034037*
X1034664Y722338*
X1035082Y722034*
X1035292Y721577*
Y721121*
X1035082Y720665*
X1034873Y720513*
X1034455Y720361*
X1032363Y725837D02*
X1032991Y725685D01*
X1033409Y725380*
X1033618Y724924*
Y724772*
X1033409Y724315*
X1033409D02*
X1032991Y724011D01*
X1032363Y723859*
X1032154*
X1031527Y724011*
X1031109Y724315*
X1031109D02*
X1030899Y724772D01*
Y724924*
X1031109Y725380*
X1031527Y725685*
X1032363Y725837*
X1033409*
X1034455Y725685*
X1035082Y725380*
X1035292Y724924*
Y724620*
X1035082Y724163*
X1034664Y724011*
X1028931Y704899D02*
X1033323D01*
X1028931D02*
Y705964D01*
X1029140Y706420*
X1029558Y706724*
X1029977Y706876*
X1030604Y707028*
X1031650*
X1032277Y706876*
X1032696Y706724*
X1033114Y706420*
X1033323Y705964*
Y704899*
X1028931Y709919D02*
X1031859Y708397D01*
Y710679*
X1028931Y709919D02*
X1033323D01*
X1028931Y712961D02*
X1029140Y712504D01*
X1029767Y712200*
X1030813Y712048*
X1031441*
X1032486Y712200*
X1033114Y712504*
X1033323Y712961*
Y713265*
X1033114Y713721*
X1032486Y714026*
X1031441Y714178*
X1030813*
X1029767Y714026*
X1029140Y713721*
X1028931Y713265*
Y712961*
X942551Y271069D02*
Y267932D01*
X942703Y267304*
X943007Y266886*
X943464Y266677*
X943768*
X944224Y266886*
X944528Y267304*
X944681Y267932*
Y271069*
X948179D02*
X946658Y266677D01*
X946050Y271069D02*
X948179D01*
X745466Y276450D02*
X749859D01*
X745466D02*
Y277514D01*
X745675Y277971*
X746094Y278275*
X746512Y278427*
X747140Y278579*
X748185*
X748813Y278427*
X749231Y278275*
X749649Y277971*
X749859Y277514*
Y276450*
X745466Y281469D02*
X748394Y279948D01*
Y282230*
X745466Y281469D02*
X749859D01*
X746303Y283599D02*
X746094Y283903D01*
X745466Y284359*
X749859*
X933773Y223960D02*
X933621Y224379D01*
X933317Y224797*
X933013Y225006*
X932404*
X932100Y224797*
X931796Y224379*
X931644Y223960*
X931492Y223333*
Y222287*
X931644Y221660*
X931796Y221241*
X932100Y220823*
X932404Y220614*
X933013*
X933317Y220823*
X933621Y221241*
X933773Y221660*
X935142Y224170D02*
X935446Y224379D01*
X935903Y225006*
Y220614*
X938793Y225006D02*
X937272Y222078D01*
X939554*
X938793Y225006D02*
Y220614D01*
X954438Y225794D02*
Y221401D01*
Y225794D02*
X955807D01*
X956263Y225584*
X956416Y225375*
X956568Y224957*
Y224539*
X956416Y224120*
X956263Y223911*
X955807Y223702*
X954438*
X955503D02*
X956568Y221401D01*
X959762Y225166D02*
X959610Y225584D01*
X959154Y225794*
X958849*
X958393Y225584*
X958089Y224957*
X957937Y223911*
Y222865*
X958089Y222029*
X958393Y221610*
X958849Y221401*
X959001*
X959458Y221610*
X959762Y222029*
X959914Y222656*
Y222865*
X959762Y223493*
X959458Y223911*
X959001Y224120*
X958849*
X958393Y223911*
X958089Y223493*
X957937Y222865*
X914088Y237740D02*
X913936Y238158D01*
X913632Y238577*
X913328Y238786*
X912719*
X912415Y238577*
X912111Y238158*
X911959Y237740*
X911807Y237112*
Y236067*
X911959Y235439*
X912111Y235021*
X912415Y234603*
X912719Y234393*
X913328*
X913632Y234603*
X913936Y235021*
X914088Y235439*
X915457Y237949D02*
X915761Y238158D01*
X916218Y238786*
Y234393*
X919564Y238786D02*
X918043D01*
X917891Y236903*
X918043Y237112*
X918499Y237322*
X918956*
X919412Y237112*
X919716Y236694*
X919868Y236067*
X919716Y235648*
X919564Y235021*
X919260Y234603*
X918804Y234393*
X918347*
X917891Y234603*
X917739Y234812*
X917587Y235230*
X745466Y263954D02*
X749859D01*
X745466D02*
Y265019D01*
X745675Y265475*
X746094Y265779*
X746512Y265931*
X747140Y266084*
X748185*
X748813Y265931*
X749231Y265779*
X749649Y265475*
X749859Y265019*
Y263954*
X745466Y268974D02*
X748394Y267453D01*
Y269734*
X745466Y268974D02*
X749859D01*
X746512Y271255D02*
X746303D01*
X745885Y271407*
X745675Y271560*
X745466Y271864*
Y272472*
X745675Y272776*
X745885Y272929*
X746303Y273081*
X746721*
X747140Y272929*
X747767Y272624*
X749859Y271103*
Y273233*
X788773Y275765D02*
X793166D01*
X788773D02*
Y276830D01*
X788983Y277286*
X789401Y277590*
X789819Y277742*
X790447Y277895*
X791492*
X792120Y277742*
X792538Y277590*
X792956Y277286*
X793166Y276830*
Y275765*
X788773Y280785D02*
X791702Y279264D01*
Y281545*
X788773Y280785D02*
X793166D01*
X788773Y283219D02*
Y284892D01*
X790447Y283979*
Y284435*
X790656Y284740*
X790865Y284892*
X791492Y285044*
X791911*
X792538Y284892*
X792956Y284588*
X793166Y284131*
Y283675*
X792956Y283219*
X792747Y283066*
X792329Y282914*
X788773Y265846D02*
X793166D01*
X788773D02*
Y266911D01*
X788983Y267368*
X789401Y267672*
X789819Y267824*
X790447Y267976*
X791492*
X792120Y267824*
X792538Y267672*
X792956Y267368*
X793166Y266911*
Y265846*
X788773Y270866D02*
X791702Y269345D01*
Y271627*
X788773Y270866D02*
X793166D01*
X788773Y274517D02*
X791702Y272996D01*
Y275277*
X788773Y274517D02*
X793166D01*
X883262Y273720D02*
X887654D01*
X883262D02*
Y274785D01*
X883471Y275242*
X883889Y275546*
X884307Y275698*
X884935Y275850*
X885981*
X886608Y275698*
X887026Y275546*
X887445Y275242*
X887654Y274785*
Y273720*
X883262Y278740D02*
X886190Y277219D01*
Y279501*
X883262Y278740D02*
X887654D01*
X883262Y282847D02*
Y281326D01*
X885144Y281174*
X884935Y281326*
X884726Y281782*
Y282239*
X884935Y282695*
X885353Y282999*
X885981Y283151*
X886399Y282999*
X887026Y282847*
X887445Y282543*
X887654Y282087*
Y281630*
X887445Y281174*
X887235Y281022*
X886817Y280870*
X883262Y262062D02*
X887654D01*
X883262D02*
Y263126D01*
X883471Y263583*
X883889Y263887*
X884307Y264039*
X884935Y264191*
X885981*
X886608Y264039*
X887026Y263887*
X887445Y263583*
X887654Y263126*
Y262062*
X883262Y267081D02*
X886190Y265560D01*
Y267842*
X883262Y267081D02*
X887654D01*
X883889Y271036D02*
X883471Y270884D01*
X883262Y270428*
Y270123*
X883471Y269667*
X884098Y269363*
X885144Y269211*
X886190*
X887026Y269363*
X887445Y269667*
X887654Y270123*
Y270276*
X887445Y270732*
X887026Y271036*
X886399Y271188*
X886190*
X885562Y271036*
X885144Y270732*
X884935Y270276*
Y270123*
X885144Y269667*
X885562Y269363*
X886190Y269211*
X971844Y275765D02*
X976236D01*
X971844D02*
Y276830D01*
X972053Y277286*
X972472Y277590*
X972890Y277742*
X973517Y277895*
X974563*
X975191Y277742*
X975609Y277590*
X976027Y277286*
X976236Y276830*
Y275765*
X971844Y280785D02*
X974772Y279264D01*
Y281545*
X971844Y280785D02*
X976236D01*
X971844Y285044D02*
X976236Y283523D01*
X971844Y282914D02*
Y285044D01*
Y263954D02*
X976236D01*
X971844D02*
Y265019D01*
X972053Y265475*
X972472Y265779*
X972890Y265931*
X973517Y266084*
X974563*
X975191Y265931*
X975609Y265779*
X976027Y265475*
X976236Y265019*
Y263954*
X971844Y268974D02*
X974772Y267453D01*
Y269734*
X971844Y268974D02*
X976236D01*
X971844Y271864D02*
X972053Y271407D01*
X972472Y271255*
X972890*
X973308Y271407*
X973517Y271712*
X973727Y272320*
X973936Y272776*
X974354Y273081*
X974772Y273233*
X975400*
X975818Y273081*
X976027Y272929*
X976236Y272472*
Y271864*
X976027Y271407*
X975818Y271255*
X975400Y271103*
X974772*
X974354Y271255*
X973936Y271560*
X973727Y272016*
X973517Y272624*
X973308Y272929*
X972890Y273081*
X972472*
X972053Y272929*
X971844Y272472*
Y271864*
X1026962Y273873D02*
X1031355D01*
X1026962D02*
Y274937D01*
X1027172Y275394*
X1027590Y275698*
X1028008Y275850*
X1028636Y276002*
X1029681*
X1030309Y275850*
X1030727Y275698*
X1031145Y275394*
X1031355Y274937*
Y273873*
X1026962Y278892D02*
X1029891Y277371D01*
X1029891D02*
Y279653D01*
X1026962Y278892D02*
X1031355D01*
X1028426Y282999D02*
X1029054Y282847D01*
X1029472Y282543*
X1029681Y282087*
Y281935*
X1029472Y281478*
X1029054Y281174*
X1028426Y281022*
X1028217*
X1027590Y281174*
X1027172Y281478*
X1026962Y281935*
Y282087*
X1027172Y282543*
X1027590Y282847*
X1028426Y282999*
X1029472*
X1030518Y282847*
X1031145Y282543*
X1031355Y282087*
Y281782*
X1031145Y281326*
X1030727Y281174*
X1026962Y261986D02*
X1031355D01*
X1026962D02*
Y263050D01*
X1027172Y263507*
X1027590Y263811*
X1028008Y263963*
X1028636Y264115*
X1029681*
X1030309Y263963*
X1030727Y263811*
X1031145Y263507*
X1031355Y263050*
Y261986*
X1026962Y267462D02*
Y265940D01*
X1028845Y265788*
X1028636Y265940*
X1028426Y266397*
Y266853*
X1028636Y267309*
X1029054Y267614*
X1029681Y267766*
X1030100Y267614*
X1030727Y267462*
X1031145Y267157*
X1031355Y266701*
Y266245*
X1031145Y265788*
X1030936Y265636*
X1030518Y265484*
X1026962Y270047D02*
X1027172Y269591D01*
X1027799Y269287*
X1028845Y269135*
X1029472*
X1030518Y269287*
X1031145Y269591*
X1031355Y270047*
Y270352*
X1031145Y270808*
X1030518Y271112*
X1029472Y271264*
X1028845*
X1027799Y271112*
X1027172Y270808*
X1026962Y270352*
Y270047*
X818535Y271069D02*
Y267932D01*
X818687Y267304*
X818992Y266886*
X819448Y266677*
X819752*
X820208Y266886*
X820513Y267304*
X820665Y267932*
Y271069*
X822794D02*
X822338Y270860D01*
X822186Y270442*
Y270023*
X822338Y269605*
X822642Y269396*
X823251Y269187*
X823707Y268978*
X824011Y268559*
X824163Y268141*
Y267514*
X824011Y267095*
X823859Y266886*
X823403Y266677*
X822794*
X822338Y266886*
X822186Y267095*
X822034Y267514*
Y268141*
X822186Y268559*
X822490Y268978*
X822946Y269187*
X823555Y269396*
X823859Y269605*
X824011Y270023*
Y270442*
X823859Y270860*
X823403Y271069*
X822794*
X745466Y252827D02*
X749859D01*
X745466D02*
Y253892D01*
X745675Y254349*
X746094Y254653*
X746512Y254805*
X747140Y254957*
X748185*
X748813Y254805*
X749231Y254653*
X749649Y254349*
X749859Y253892*
Y252827*
X745466Y258304D02*
Y256782D01*
X747349Y256630*
X747140Y256782*
X746930Y257239*
Y257695*
X747140Y258151*
X747558Y258456*
X748185Y258608*
X748604Y258456*
X749231Y258304*
X749649Y257999*
X749859Y257543*
Y257087*
X749649Y256630*
X749440Y256478*
X749022Y256326*
X746303Y259977D02*
X746094Y260281D01*
X745466Y260737*
X749859*
X805973Y223960D02*
X805821Y224379D01*
X805516Y224797*
X805212Y225006*
X804604*
X804299Y224797*
X803995Y224379*
X803843Y223960*
X803691Y223333*
Y222287*
X803843Y221660*
X803995Y221241*
X804299Y220823*
X804604Y220614*
X805212*
X805516Y220823*
X805821Y221241*
X805973Y221660*
X807342Y224170D02*
X807646Y224379D01*
X808102Y225006*
Y220614*
X811297Y224379D02*
X811144Y224797D01*
X810688Y225006*
X810384*
X809928Y224797*
X809623Y224170*
X809471Y223124*
Y222078*
X809623Y221241*
X809928Y220823*
X810384Y220614*
X810536*
X810992Y220823*
X811297Y221241*
X811449Y221869*
Y222078*
X811297Y222705*
X810992Y223124*
X810536Y223333*
X810384*
X809928Y223124*
X809623Y222705*
X809471Y222078*
X830346Y225794D02*
Y221401D01*
Y225794D02*
X831715D01*
X832172Y225584*
X832324Y225375*
X832476Y224957*
Y224539*
X832324Y224120*
X832172Y223911*
X831715Y223702*
X830346*
X831411D02*
X832476Y221401D01*
X835974Y225794D02*
X834453Y221401D01*
X833845Y225794D02*
X835974D01*
X788180Y237740D02*
X788028Y238158D01*
X787724Y238577*
X787419Y238786*
X786811*
X786507Y238577*
X786203Y238158*
X786050Y237740*
X785898Y237112*
Y236067*
X786050Y235439*
X786203Y235021*
X786507Y234603*
X786811Y234393*
X787419*
X787724Y234603*
X788028Y235021*
X788180Y235439*
X789549Y237949D02*
X789853Y238158D01*
X790310Y238786*
Y234393*
X793808Y238786D02*
X792287Y234393D01*
X791679Y238786D02*
X793808D01*
X745466Y240332D02*
X749859D01*
X745466D02*
Y241397D01*
X745675Y241853*
X746094Y242157*
X746512Y242309*
X747140Y242462*
X748185*
X748813Y242309*
X749231Y242157*
X749649Y241853*
X749859Y241397*
Y240332*
X745466Y245808D02*
Y244287D01*
X747349Y244135*
X747140Y244287*
X746930Y244743*
Y245200*
X747140Y245656*
X747558Y245960*
X748185Y246112*
X748604Y245960*
X749231Y245808*
X749649Y245504*
X749859Y245047*
Y244591*
X749649Y244135*
X749440Y243983*
X749022Y243831*
X746512Y247633D02*
X746303D01*
X745885Y247785*
X745675Y247938*
X745466Y248242*
Y248850*
X745675Y249154*
X745885Y249307*
X746303Y249459*
X746721*
X747140Y249307*
X747767Y249002*
X749859Y247481*
Y249611*
X788773Y256080D02*
X793166D01*
X788773D02*
Y257145D01*
X788983Y257601*
X789401Y257905*
X789819Y258057*
X790447Y258210*
X791492*
X792120Y258057*
X792538Y257905*
X792956Y257601*
X793166Y257145*
Y256080*
X788773Y261556D02*
Y260035D01*
X790656Y259883*
X790447Y260035*
X790237Y260491*
Y260948*
X790447Y261404*
X790865Y261708*
X791492Y261860*
X791911Y261708*
X792538Y261556*
X792956Y261252*
X793166Y260795*
Y260339*
X792956Y259883*
X792747Y259731*
X792329Y259579*
X788773Y263533D02*
Y265207D01*
X790447Y264294*
Y264750*
X790656Y265055*
X790865Y265207*
X791492Y265359*
X791911*
X792538Y265207*
X792956Y264902*
X793166Y264446*
Y263990*
X792956Y263533*
X792747Y263381*
X792329Y263229*
X788773Y244193D02*
X793166D01*
X788773D02*
Y245258D01*
X788983Y245714*
X789401Y246018*
X789819Y246170*
X790447Y246322*
X791492*
X792120Y246170*
X792538Y246018*
X792956Y245714*
X793166Y245258*
Y244193*
X788773Y249669D02*
Y248148D01*
X790656Y247996*
X790447Y248148*
X790237Y248604*
Y249060*
X790447Y249517*
X790865Y249821*
X791492Y249973*
X791911Y249821*
X792538Y249669*
X792956Y249365*
X793166Y248908*
Y248452*
X792956Y247996*
X792747Y247844*
X792329Y247691*
X788773Y252863D02*
X791702Y251342D01*
Y253624*
X788773Y252863D02*
X793166D01*
X883262Y250098D02*
X887654D01*
X883262D02*
Y251163D01*
X883471Y251620*
X883889Y251924*
X884307Y252076*
X884935Y252228*
X885981*
X886608Y252076*
X887026Y251924*
X887445Y251620*
X887654Y251163*
Y250098*
X883262Y255574D02*
Y254053D01*
X885144Y253901*
X884935Y254053*
X884726Y254510*
Y254966*
X884935Y255422*
X885353Y255727*
X885981Y255879*
X886399Y255727*
X887026Y255574*
X887445Y255270*
X887654Y254814*
Y254358*
X887445Y253901*
X887235Y253749*
X886817Y253597*
X883262Y259225D02*
Y257704D01*
X885144Y257552*
X884935Y257704*
X884726Y258160*
Y258617*
X884935Y259073*
X885353Y259377*
X885981Y259529*
X886399Y259377*
X887026Y259225*
X887445Y258921*
X887654Y258465*
Y258008*
X887445Y257552*
X887235Y257400*
X886817Y257248*
X883262Y238440D02*
X887654D01*
X883262D02*
Y239504D01*
X883471Y239961*
X883889Y240265*
X884307Y240417*
X884935Y240569*
X885981*
X886608Y240417*
X887026Y240265*
X887445Y239961*
X887654Y239504*
Y238440*
X883262Y243916D02*
Y242394D01*
X885144Y242242*
X884935Y242394*
X884726Y242851*
Y243307*
X884935Y243763*
X885353Y244068*
X885981Y244220*
X886399Y244068*
X887026Y243916*
X887445Y243611*
X887654Y243155*
Y242699*
X887445Y242242*
X887235Y242090*
X886817Y241938*
X883889Y247414D02*
X883471Y247262D01*
X883262Y246806*
Y246501*
X883471Y246045*
X884098Y245741*
X885144Y245589*
X886190*
X887026Y245741*
X887445Y246045*
X887654Y246501*
Y246654*
X887445Y247110*
X887026Y247414*
X886399Y247566*
X886190*
X885562Y247414*
X885144Y247110*
X884935Y246654*
Y246501*
X885144Y246045*
X885562Y245741*
X886190Y245589*
X971844Y252143D02*
X976236D01*
X971844D02*
Y253208D01*
X972053Y253664*
X972472Y253968*
X972890Y254120*
X973517Y254273*
X974563*
X975191Y254120*
X975609Y253968*
X976027Y253664*
X976236Y253208*
Y252143*
X971844Y257619D02*
Y256098D01*
X973727Y255946*
X973517Y256098*
X973308Y256554*
Y257011*
X973517Y257467*
X973936Y257771*
X974563Y257923*
X974982Y257771*
X975609Y257619*
X976027Y257315*
X976236Y256858*
Y256402*
X976027Y255946*
X975818Y255794*
X975400Y255642*
X971844Y261422D02*
X976236Y259901D01*
X971844Y259292D02*
Y261422D01*
Y240332D02*
X976236D01*
X971844D02*
Y241397D01*
X972053Y241853*
X972472Y242157*
X972890Y242309*
X973517Y242462*
X974563*
X975191Y242309*
X975609Y242157*
X976027Y241853*
X976236Y241397*
Y240332*
X971844Y245808D02*
Y244287D01*
X973727Y244135*
X973517Y244287*
X973308Y244743*
Y245200*
X973517Y245656*
X973936Y245960*
X974563Y246112*
X974982Y245960*
X975609Y245808*
X976027Y245504*
X976236Y245047*
Y244591*
X976027Y244135*
X975818Y243983*
X975400Y243831*
X971844Y248242D02*
X972053Y247785D01*
X972472Y247633*
X972890*
X973308Y247785*
X973517Y248090*
X973727Y248698*
X973936Y249154*
X974354Y249459*
X974772Y249611*
X975400*
X975818Y249459*
X976027Y249307*
X976236Y248850*
Y248242*
X976027Y247785*
X975818Y247633*
X975400Y247481*
X974772*
X974354Y247633*
X973936Y247938*
X973727Y248394*
X973517Y249002*
X973308Y249307*
X972890Y249459*
X972472*
X972053Y249307*
X971844Y248850*
Y248242*
X1026962Y250251D02*
X1031355D01*
X1026962D02*
Y251315D01*
X1027172Y251772*
X1027590Y252076*
X1028008Y252228*
X1028636Y252380*
X1029681*
X1030309Y252228*
X1030727Y252076*
X1031145Y251772*
X1031355Y251315*
Y250251*
X1026962Y255727D02*
Y254205D01*
X1028845Y254053*
X1028636Y254205*
X1028426Y254662*
Y255118*
X1028636Y255574*
X1029054Y255879*
X1029681Y256031*
X1030100Y255879*
X1030727Y255727*
X1031145Y255422*
X1031355Y254966*
Y254510*
X1031145Y254053*
X1030936Y253901*
X1030518Y253749*
X1028426Y259377D02*
X1029054Y259225D01*
X1029472Y258921*
X1029681Y258465*
Y258312*
X1029472Y257856*
X1029054Y257552*
X1028426Y257400*
X1028217*
X1027590Y257552*
X1027172Y257856*
X1026962Y258312*
Y258465*
X1027172Y258921*
X1027590Y259225*
X1028426Y259377*
X1029472*
X1030518Y259225*
X1031145Y258921*
X1031355Y258465*
Y258160*
X1031145Y257704*
X1030727Y257552*
X1026962Y238516D02*
X1031355D01*
X1026962D02*
Y239580D01*
X1027172Y240037*
X1027590Y240341*
X1028008Y240493*
X1028636Y240645*
X1029681*
X1030309Y240493*
X1030727Y240341*
X1031145Y240037*
X1031355Y239580*
Y238516*
X1027590Y243839D02*
X1027172Y243687D01*
X1026962Y243231*
Y242927*
X1027172Y242470*
X1027799Y242166*
X1028845Y242014*
X1029891*
X1029891D02*
X1030727Y242166D01*
X1031145Y242470*
X1031355Y242927*
Y243079*
X1031145Y243535*
X1030727Y243839*
X1030100Y243992*
X1029891*
X1029891D02*
X1029263Y243839D01*
X1028845Y243535*
X1028636Y243079*
Y242927*
X1028845Y242470*
X1029263Y242166*
X1029891Y242014*
X1026962Y246273D02*
X1027172Y245817D01*
X1027799Y245513*
X1028845Y245361*
X1029472*
X1030518Y245513*
X1031145Y245817*
X1031355Y246273*
Y246577*
X1031145Y247034*
X1030518Y247338*
X1029472Y247490*
X1028845*
X1027799Y247338*
X1027172Y247034*
X1026962Y246577*
Y246273*
X503651Y271069D02*
Y267932D01*
X503803Y267304*
X504107Y266886*
X504563Y266677*
X504868*
X505324Y266886*
X505628Y267304*
X505780Y267932*
Y271069*
X509127Y269605D02*
X508975Y268978D01*
X508670Y268559*
X508214Y268350*
X508062*
X507606Y268559*
X507301Y268978*
X507149Y269605*
Y269814*
X507301Y270442*
X507606Y270860*
X508062Y271069*
X508214*
X508670Y270860*
X508975Y270442*
X509127Y269605*
Y268559*
X508975Y267514*
X508670Y266886*
X508214Y266677*
X507910*
X507453Y266886*
X507301Y267304*
X294679Y278570D02*
X299071D01*
X294679D02*
Y279635D01*
X294888Y280091*
X295306Y280395*
X295725Y280548*
X296352Y280700*
X297398*
X298025Y280548*
X298444Y280395*
X298862Y280091*
X299071Y279635*
Y278570*
X295306Y283894D02*
X294888Y283742D01*
X294679Y283286*
Y282981*
X294888Y282525*
X295516Y282221*
X296561Y282069*
X297607*
X298444Y282221*
X298862Y282525*
X299071Y282981*
Y283134*
X299071D02*
X298862Y283590D01*
X298444Y283894*
X297816Y284046*
X297607*
X296980Y283894*
X296561Y283590*
X296352Y283134*
X296352D02*
Y282981D01*
X296561Y282525*
X296980Y282221*
X297607Y282069*
X295516Y285415D02*
X295306Y285719D01*
X294679Y286176*
X299071*
X490936Y223960D02*
X490784Y224379D01*
X490480Y224797*
X490175Y225006*
X489567*
X489263Y224797*
X488958Y224379*
X488806Y223960*
X488654Y223333*
Y222287*
X488806Y221660*
X488958Y221241*
X489263Y220823*
X489567Y220614*
X490175*
X490480Y220823*
X490784Y221241*
X490936Y221660*
X492305Y224170D02*
X492609Y224379D01*
X493066Y225006*
X493066D02*
Y220614D01*
X495195Y225006D02*
X494739Y224797D01*
X494587Y224379*
Y223960*
X494739Y223542*
X495043Y223333*
X495651Y223124*
X496108Y222915*
X496412Y222496*
X496564Y222078*
Y221451*
X496412Y221032*
X496260Y220823*
X495804Y220614*
X495195*
X494739Y220823*
X494587Y221032*
X494435Y221451*
Y222078*
X494587Y222496*
X494891Y222915*
X495347Y223124*
X495956Y223333*
X496260Y223542*
X496412Y223960*
Y224379*
X496260Y224797*
X495804Y225006*
X495195*
X515386Y225794D02*
Y221401D01*
Y225794D02*
X516755D01*
X517211Y225584*
X517363Y225375*
X517515Y224957*
Y224539*
X517363Y224120*
X517211Y223911*
X516755Y223702*
X515386*
X516450D02*
X517515Y221401D01*
X519645Y225794D02*
X519188Y225584D01*
X519036Y225166*
Y224748*
X519188Y224329*
X519493Y224120*
X520101Y223911*
X520557Y223702*
X520862Y223284*
X521014Y222865*
Y222238*
X520862Y221820*
X520710Y221610*
X520253Y221401*
X519645*
X519188Y221610*
X519036Y221820*
X518884Y222238*
Y222865*
X519036Y223284*
X519341Y223702*
X519797Y223911*
X520405Y224120*
X520710Y224329*
X520862Y224748*
Y225166*
X520710Y225584*
X520253Y225794*
X519645*
X473295Y241677D02*
X473143Y242095D01*
X472839Y242514*
X472535Y242723*
X471926*
X471622Y242514*
X471318Y242095*
X471166Y241677*
X471014Y241049*
Y240004*
X471166Y239376*
X471318Y238958*
X471622Y238540*
X471926Y238330*
X472535*
X472839Y238540*
X473143Y238958*
X473295Y239376*
X474664Y241886D02*
X474969Y242095D01*
X475425Y242723*
Y238330*
X478771Y241259D02*
X478619Y240631D01*
X478315Y240213*
X477859Y240004*
X477707*
X477250Y240213*
X476946Y240631*
X476794Y241259*
Y241468*
X476946Y242095*
X477250Y242514*
X477707Y242723*
X477859*
X478315Y242514*
X478619Y242095*
X478771Y241259*
Y240213*
X478619Y239167*
X478315Y238540*
X477859Y238330*
X477555*
X477098Y238540*
X476946Y238958*
X296647Y266075D02*
X301040D01*
X296647D02*
Y267139D01*
X296857Y267596*
X297275Y267900*
X297693Y268052*
X298321Y268204*
X299366*
X299994Y268052*
X300412Y267900*
X300830Y267596*
X301040Y267139*
Y266075*
X297275Y271399D02*
X296857Y271246D01*
X296647Y270790*
Y270486*
X296857Y270030*
X297484Y269725*
X298530Y269573*
X299576*
X300412Y269725*
X300830Y270030*
X301040Y270486*
Y270638*
X300830Y271094*
X300412Y271399*
X299785Y271551*
X299576*
X298948Y271399*
X298530Y271094*
X298321Y270638*
Y270486*
X298530Y270030*
X298948Y269725*
X299576Y269573*
X297693Y273072D02*
X297484D01*
X297066Y273224*
X296857Y273376*
X296647Y273680*
Y274289*
X296857Y274593*
X297066Y274745*
X297484Y274897*
X297902*
X298321Y274745*
X298948Y274441*
X301040Y272920*
Y275049*
X361608Y277886D02*
X366000D01*
X361608D02*
Y278950D01*
X361817Y279407*
X362235Y279711*
X362654Y279863*
X363281Y280015*
X364327*
X364954Y279863*
X365373Y279711*
X365791Y279407*
X366000Y278950*
Y277886*
X362235Y283210D02*
X361817Y283057D01*
X361608Y282601*
Y282297*
X361817Y281841*
X362445Y281536*
X363490Y281384*
X364536*
X365373Y281536*
X365791Y281841*
X366000Y282297*
Y282449*
X365791Y282905*
X365373Y283210*
X364745Y283362*
X364536*
X363909Y283210*
X363490Y282905*
X363281Y282449*
Y282297*
X363490Y281841*
X363909Y281536*
X364536Y281384*
X361608Y285035D02*
Y286708D01*
X363281Y285795*
Y286252*
X363490Y286556*
X363700Y286708*
X364327Y286860*
X364745*
X365373Y286708*
X365791Y286404*
X366000Y285948*
Y285491*
X365791Y285035*
X365582Y284883*
X365164Y284731*
X359640Y267967D02*
X364032D01*
X359640D02*
Y269032D01*
X359849Y269488*
X360267Y269792*
X360685Y269945*
X361313Y270097*
X362359*
X362986Y269945*
X363404Y269792*
X363823Y269488*
X364032Y269032*
Y267967*
X360267Y273291D02*
X359849Y273139D01*
X359640Y272683*
Y272378*
X359849Y271922*
X360476Y271618*
X361522Y271466*
X362568*
X363404Y271618*
X363823Y271922*
X364032Y272378*
Y272530*
X363823Y272987*
X363404Y273291*
X362777Y273443*
X362568*
X361940Y273291*
X361522Y272987*
X361313Y272530*
Y272378*
X361522Y271922*
X361940Y271618*
X362568Y271466*
X359640Y276333D02*
X362568Y274812D01*
Y277094*
X359640Y276333D02*
X364032D01*
X438380Y277810D02*
X442772D01*
X438380D02*
Y278874D01*
X438589Y279331*
X439007Y279635*
X439425Y279787*
X440053Y279939*
X441099*
X441726Y279787*
X442144Y279635*
X442563Y279331*
X442772Y278874*
Y277810*
X439007Y283134D02*
X438589Y282981D01*
X438380Y282525*
Y282221*
X438589Y281764*
X439216Y281460*
X440262Y281308*
X441308*
X442144Y281460*
X442563Y281764*
X442772Y282221*
Y282373*
X442563Y282829*
X442144Y283134*
X442144D02*
X441517Y283286D01*
X441308*
X440680Y283134*
X440680D02*
X440262Y282829D01*
X440053Y282373*
Y282221*
X440262Y281764*
X440680Y281460*
X441308Y281308*
X438380Y286632D02*
Y285111D01*
X440262Y284959*
X440053Y285111*
X439844Y285567*
Y286024*
X440053Y286480*
X440471Y286784*
X441099Y286936*
X441517Y286784*
X442144Y286632*
X442563Y286328*
X442772Y285872*
Y285415*
X442563Y284959*
X442354Y284807*
X441935Y284655*
X436411Y266151D02*
X440803D01*
X436411D02*
Y267215D01*
X436620Y267672*
X437039Y267976*
X437457Y268128*
X438084Y268280*
X439130*
X439758Y268128*
X440176Y267976*
X440594Y267672*
X440803Y267215*
Y266151*
X437039Y271475D02*
X436620Y271322D01*
X436411Y270866*
Y270562*
X436620Y270106*
X437248Y269801*
X438294Y269649*
X439339*
X440176Y269801*
X440594Y270106*
X440803Y270562*
Y270714*
X440594Y271170*
X440176Y271475*
X439548Y271627*
X439339*
X438712Y271475*
X438294Y271170*
X438084Y270714*
Y270562*
X438294Y270106*
X438712Y269801*
X439339Y269649*
X437039Y274821D02*
X436620Y274669D01*
X436411Y274213*
Y273908*
X436620Y273452*
X437248Y273148*
X438294Y272996*
X439339*
X440176Y273148*
X440594Y273452*
X440803Y273908*
Y274060*
X440594Y274517*
X440176Y274821*
X439548Y274973*
X439339*
X438712Y274821*
X438294Y274517*
X438084Y274060*
Y273908*
X438294Y273452*
X438712Y273148*
X439339Y272996*
X530899Y279854D02*
X535292D01*
X530899D02*
Y280919D01*
X531109Y281375*
X531527Y281679*
X531945Y281832*
X532573Y281984*
X533618*
X534246Y281832*
X534664Y281679*
X535082Y281375*
X535292Y280919*
Y279854*
X531527Y285178D02*
X531109Y285026D01*
X530899Y284570*
Y284265*
X531109Y283809*
X531736Y283505*
X532782Y283353*
X533828*
X534664Y283505*
X535082Y283809*
X535292Y284265*
Y284418*
X535292D02*
X535082Y284874D01*
X534664Y285178*
X534037Y285330*
X533828*
X533200Y285178*
X532782Y284874*
X532573Y284418*
X532573D02*
Y284265D01*
X532782Y283809*
X533200Y283505*
X533828Y283353*
X530899Y288829D02*
X535292Y287308D01*
X530899Y286699D02*
Y288829D01*
X528931Y268043D02*
X533323D01*
X528931D02*
Y269108D01*
X529140Y269564*
X529558Y269868*
X529977Y270021*
X530604Y270173*
X531650*
X532277Y270021*
X532696Y269868*
X533114Y269564*
X533323Y269108*
Y268043*
X529558Y273367D02*
X529140Y273215D01*
X528931Y272759*
Y272454*
X529140Y271998*
X529767Y271694*
X530813Y271542*
X531859*
X532696Y271694*
X533114Y271998*
X533323Y272454*
Y272606*
X533114Y273063*
X532696Y273367*
X532068Y273519*
X531859*
X531232Y273367*
X530813Y273063*
X530604Y272606*
Y272454*
X530813Y271998*
X531232Y271694*
X531859Y271542*
X528931Y275649D02*
X529140Y275192D01*
X529558Y275040*
X529977*
X530395Y275192*
X530604Y275497*
X530813Y276105*
X531022Y276561*
X531441Y276866*
X531859Y277018*
X532486*
X532905Y276866*
X533114Y276713*
X533323Y276257*
Y275649*
X533114Y275192*
X532905Y275040*
X532486Y274888*
X531859*
X531441Y275040*
X531022Y275344*
X530813Y275801*
X530604Y276409*
X530395Y276713*
X529977Y276866*
X529558*
X529140Y276713*
X528931Y276257*
Y275649*
X582080Y279930D02*
X586473D01*
X582080D02*
Y280995D01*
X582290Y281451*
X582708Y281756*
X583126Y281908*
X583754Y282060*
X584799*
X585427Y281908*
X585845Y281756*
X586264Y281451*
X586473Y280995*
Y279930*
X582708Y285254D02*
X582290Y285102D01*
X582080Y284646*
Y284341*
X582290Y283885*
X582917Y283581*
X583963Y283429*
X585009*
X585845Y283581*
X586264Y283885*
X586473Y284341*
Y284494*
X586264Y284950*
X585845Y285254*
X585218Y285406*
X585009*
X584381Y285254*
X583963Y284950*
X583754Y284494*
Y284341*
X583963Y283885*
X584381Y283581*
X585009Y283429*
X583545Y288753D02*
X584172Y288601D01*
X584590Y288296*
X584799Y287840*
Y287688*
X584590Y287232*
X584172Y286927*
X583545Y286775*
X583335*
X582708Y286927*
X582290Y287232*
X582080Y287688*
Y287840*
X582290Y288296*
X582708Y288601*
X583545Y288753*
X584590*
X585636Y288601*
X586264Y288296*
X586473Y287840*
Y287536*
X586264Y287079*
X585845Y286927*
X580112Y267967D02*
X584504D01*
X580112D02*
Y269032D01*
X580321Y269488*
X580739Y269792*
X581158Y269945*
X581785Y270097*
X582831*
X583458Y269945*
X583877Y269792*
X584295Y269488*
X584504Y269032*
Y267967*
X580112Y273595D02*
X584504Y272074D01*
X580112Y271466D02*
Y273595D01*
Y275877D02*
X580321Y275421D01*
X580949Y275116*
X581994Y274964*
X582622*
X583668Y275116*
X584295Y275421*
X584504Y275877*
Y276181*
X584295Y276637*
X583668Y276942*
X582622Y277094*
X581994*
X580949Y276942*
X580321Y276637*
X580112Y276181*
Y275877*
X386368Y271069D02*
Y267932D01*
X386520Y267304*
X386824Y266886*
X387281Y266677*
X387585*
X388041Y266886*
X388346Y267304*
X388498Y267932*
Y271069*
X389867Y270233D02*
X390171Y270442D01*
X390627Y271069*
Y266677*
X392909Y271069D02*
X392453Y270860D01*
X392148Y270233*
X391996Y269187*
Y268559*
X392148Y267514*
X392453Y266886*
X392909Y266677*
X393213*
X393669Y266886*
X393974Y267514*
X394126Y268559*
Y269187*
X393974Y270233*
X393669Y270860*
X393213Y271069*
X392909*
X294679Y254872D02*
X299071D01*
X294679D02*
Y255937D01*
X294888Y256393*
X295306Y256697*
X295725Y256849*
X295725D02*
X296352Y257002D01*
X297398*
X298025Y256849*
X298025D02*
X298444Y256697D01*
X298862Y256393*
X299071Y255937*
Y254872*
X294679Y260500D02*
X299071Y258979D01*
X294679Y258371D02*
Y260500D01*
X295516Y261869D02*
X295306Y262173D01*
X294679Y262630*
X299071*
X378047Y223960D02*
X377895Y224379D01*
X377590Y224797*
X377286Y225006*
X376678*
X376373Y224797*
X376069Y224379*
X375917Y223960*
X375765Y223333*
Y222287*
X375917Y221660*
X376069Y221241*
X376373Y220823*
X376678Y220614*
X377286*
X377590Y220823*
X377895Y221241*
X378047Y221660*
X379568Y223960D02*
Y224170D01*
X379720Y224588*
X379872Y224797*
X380176Y225006*
X380785*
X381089Y224797*
X381241Y224588*
X381393Y224170*
Y223751*
X381241Y223333*
X380937Y222705*
X379416Y220614*
X381545*
X383827Y225006D02*
X383371Y224797D01*
X383066Y224170*
X382914Y223124*
Y222496*
X383066Y221451*
X383371Y220823*
X383827Y220614*
X384131*
X384588Y220823*
X384892Y221451*
X385044Y222496*
Y223124*
X384892Y224170*
X384588Y224797*
X384131Y225006*
X383827*
X401288Y225794D02*
Y221401D01*
Y225794D02*
X402657D01*
X403114Y225584*
X403266Y225375*
X403418Y224957*
Y224539*
X403266Y224120*
X403114Y223911*
X402657Y223702*
X401288*
X402353D02*
X403418Y221401D01*
X406764Y224329D02*
X406612Y223702D01*
X406308Y223284*
X405852Y223075*
X405700*
X405243Y223284*
X404939Y223702*
X404787Y224329*
Y224539*
X404939Y225166*
X405243Y225584*
X405700Y225794*
X405852*
X406308Y225584*
X406612Y225166*
X406764Y224329*
Y223284*
X406612Y222238*
X406308Y221610*
X405852Y221401*
X405548*
X405091Y221610*
X404939Y222029*
X359046Y239708D02*
X358894Y240127D01*
X358590Y240545*
X358286Y240754*
X357677*
X357373Y240545*
X357069Y240127*
X356917Y239708*
X356764Y239081*
Y238035*
X356917Y237408*
X357069Y236989*
X357373Y236571*
X357677Y236362*
X358286*
X358590Y236571*
X358894Y236989*
X359046Y237408*
X360567Y239708D02*
Y239918D01*
X360719Y240336*
X360872Y240545*
X361176Y240754*
X361784*
X362088Y240545*
X362241Y240336*
X362393Y239918*
Y239499*
X362241Y239081*
X361936Y238453*
X360415Y236362*
X362545*
X363914Y239918D02*
X364218Y240127D01*
X364674Y240754*
Y236362*
X296647Y244345D02*
X301040D01*
X296647D02*
Y245410D01*
X296857Y245866*
X297275Y246170*
X297693Y246322*
X298321Y246475*
X299366*
X299994Y246322*
X300412Y246170*
X300830Y245866*
X301040Y245410*
Y244345*
X296647Y249973D02*
X301040Y248452D01*
X296647Y247844D02*
Y249973D01*
X297693Y251494D02*
X297484D01*
X297066Y251646*
X296857Y251798*
X296857D02*
X296647Y252103D01*
Y252711*
X296857Y253015*
X297066Y253168*
X297484Y253320*
X297902*
X298321Y253168*
X298948Y252863*
X301040Y251342*
Y253472*
X361608Y256156D02*
X366000D01*
X361608D02*
Y257221D01*
X361817Y257677*
X362235Y257981*
X362654Y258134*
X362654D02*
X363281Y258286D01*
X364327*
X364954Y258134*
X364954D02*
X365373Y257981D01*
X365791Y257677*
X366000Y257221*
Y256156*
X361608Y261784D02*
X366000Y260263D01*
X361608Y259655D02*
Y261784D01*
Y263457D02*
Y265131D01*
X363281Y264218*
Y264674*
X363490Y264979*
X363700Y265131*
X364327Y265283*
X364745*
X365373Y265131*
X365791Y264826*
X366000Y264370*
Y263914*
X365791Y263457*
X365582Y263305*
X365164Y263153*
X357671Y244269D02*
X362063D01*
X357671D02*
Y245334D01*
X357880Y245790*
X358298Y246094*
X358717Y246246*
X359344Y246399*
X360390*
X361017Y246246*
X361436Y246094*
X361854Y245790*
X362063Y245334*
Y244269*
X357671Y249897D02*
X362063Y248376D01*
X357671Y247768D02*
Y249897D01*
Y252787D02*
X360599Y251266D01*
Y253548*
X357671Y252787D02*
X362063D01*
X438380Y254111D02*
X442772D01*
X438380D02*
Y255176D01*
X438589Y255633*
X439007Y255937*
X439425Y256089*
X440053Y256241*
X441099*
X441726Y256089*
X442144Y255937*
X442563Y255633*
X442772Y255176*
Y254111*
X438380Y259740D02*
X442772Y258219D01*
X438380Y257610D02*
Y259740D01*
Y263086D02*
Y261565D01*
X440262Y261413*
X440053Y261565*
X439844Y262021*
Y262478*
X440053Y262934*
X440471Y263238*
X441099Y263390*
X441517Y263238*
X442144Y263086*
X442563Y262782*
X442772Y262326*
Y261869*
X442563Y261413*
X442354Y261261*
X441935Y261109*
X436411Y242453D02*
X440803D01*
X436411D02*
Y243517D01*
X436620Y243974*
X437039Y244278*
X437457Y244430*
X438084Y244582*
X439130*
X439758Y244430*
X440176Y244278*
X440594Y243974*
X440803Y243517*
Y242453*
X436411Y248081D02*
X440803Y246560D01*
X436411Y245951D02*
Y248081D01*
X437039Y251275D02*
X436620Y251123D01*
X436411Y250667*
Y250362*
X436620Y249906*
X437248Y249602*
X438294Y249450*
X439339*
X440176Y249602*
X440594Y249906*
X440803Y250362*
Y250514*
X440594Y250971*
X440176Y251275*
X439548Y251427*
X439339*
X438712Y251275*
X438294Y250971*
X438084Y250514*
Y250362*
X438294Y249906*
X438712Y249602*
X439339Y249450*
X530899Y256156D02*
X535292D01*
X530899D02*
Y257221D01*
X531109Y257677*
X531527Y257981*
X531945Y258134*
X531945D02*
X532573Y258286D01*
X533618*
X534246Y258134*
X534246D02*
X534664Y257981D01*
X535082Y257677*
X535292Y257221*
Y256156*
X530899Y261784D02*
X535292Y260263D01*
X530899Y259655D02*
Y261784D01*
Y265283D02*
X535292Y263762D01*
X530899Y263153D02*
Y265283D01*
X528931Y244345D02*
X533323D01*
X528931D02*
Y245410D01*
X529140Y245866*
X529558Y246170*
X529977Y246322*
X530604Y246475*
X531650*
X532277Y246322*
X532696Y246170*
X533114Y245866*
X533323Y245410*
Y244345*
X528931Y249973D02*
X533323Y248452D01*
X528931Y247844D02*
Y249973D01*
Y252103D02*
X529140Y251646D01*
X529558Y251494*
X529977*
X530395Y251646*
X530604Y251951*
X530813Y252559*
X531022Y253015*
X531441Y253320*
X531859Y253472*
X532486*
X532905Y253320*
X533114Y253168*
X533323Y252711*
Y252103*
X533114Y251646*
X532905Y251494*
X532486Y251342*
X531859*
X531441Y251494*
X531022Y251798*
X531022D02*
X530813Y252255D01*
X530604Y252863*
X530395Y253168*
X529977Y253320*
X529558*
X529140Y253168*
X528931Y252711*
Y252103*
X582080Y256232D02*
X586473D01*
X582080D02*
Y257297D01*
X582290Y257753*
X582708Y258057*
X583126Y258210*
X583754Y258362*
X584799*
X585427Y258210*
X585845Y258057*
X586264Y257753*
X586473Y257297*
Y256232*
X582080Y261860D02*
X586473Y260339D01*
X582080Y259731D02*
Y261860D01*
X583545Y265207D02*
X584172Y265055D01*
X584590Y264750*
X584799Y264294*
Y264142*
X584590Y263686*
X584172Y263381*
X583545Y263229*
X583335*
X582708Y263381*
X582290Y263686*
X582080Y264142*
Y264294*
X582290Y264750*
X582708Y265055*
X583545Y265207*
X584590*
X585636Y265055*
X586264Y264750*
X586473Y264294*
Y263990*
X586264Y263533*
X585845Y263381*
X580112Y244345D02*
X584504D01*
X580112D02*
Y245410D01*
X580321Y245866*
X580739Y246170*
X581158Y246322*
X581785Y246475*
X582831*
X583458Y246322*
X583877Y246170*
X584295Y245866*
X584504Y245410*
Y244345*
X580112Y248604D02*
X580321Y248148D01*
X580739Y247996*
X581158*
X581576Y248148*
X581785Y248452*
X581994Y249060*
X582203Y249517*
X582622Y249821*
X583040Y249973*
X583668*
X584086Y249821*
X584295Y249669*
X584504Y249213*
Y248604*
X584295Y248148*
X584086Y247996*
X583668Y247844*
X583040*
X582622Y247996*
X582203Y248300*
X581994Y248756*
X581785Y249365*
X581576Y249669*
X581158Y249821*
X580739*
X580321Y249669*
X580112Y249213*
Y248604*
Y252255D02*
X580321Y251798D01*
X580321D02*
X580949Y251494D01*
X581994Y251342*
X582622*
X583668Y251494*
X584295Y251798*
X584295D02*
X584504Y252255D01*
Y252559*
X584295Y253015*
X583668Y253320*
X582622Y253472*
X581994*
X580949Y253320*
X580321Y253015*
X580112Y252559*
Y252255*
X730803Y269630D02*
X730651Y270048D01*
X730346Y270466*
X730042Y270675*
X729434*
X729129Y270466*
X728825Y270048*
X728673Y269630*
X728521Y269002*
Y267956*
X728673Y267329*
X728825Y266911*
X729129Y266492*
X729434Y266283*
X730042*
X730346Y266492*
X730651Y266911*
X730803Y267329*
X732324Y269630D02*
Y269839D01*
X732476Y270257*
X732628Y270466*
X732932Y270675*
X733541*
X733845Y270466*
X733997Y270257*
X734149Y269839*
Y269421*
X733997Y269002*
X733693Y268375*
X732172Y266283*
X734301*
X735822Y269630D02*
Y269839D01*
X735974Y270257*
X736127Y270466*
X736431Y270675*
X737039*
X737343Y270466*
X737496Y270257*
X737648Y269839*
Y269421*
X737496Y269002*
X737191Y268375*
X735670Y266283*
X737800*
X712299Y269630D02*
X712147Y270048D01*
X711842Y270466*
X711538Y270675*
X710930*
X710625Y270466*
X710321Y270048*
X710169Y269630*
X710017Y269002*
Y267956*
X710169Y267329*
X710321Y266911*
X710625Y266492*
X710930Y266283*
X711538*
X711842Y266492*
X712147Y266911*
X712299Y267329*
X713820Y269630D02*
Y269839D01*
X713972Y270257*
X714124Y270466*
X714428Y270675*
X715037*
X715341Y270466*
X715493Y270257*
X715645Y269839*
Y269421*
X715493Y269002*
X715189Y268375*
X713668Y266283*
X715797*
X717470Y270675D02*
X719144D01*
X718231Y269002*
X718687*
X718992Y268793*
X719144Y268584*
X719296Y267956*
Y267538*
X719144Y266911*
X718839Y266492*
X718383Y266283*
X717927*
X717470Y266492*
X717318Y266702*
X717166Y267120*
X714715Y217526D02*
Y213134D01*
Y217526D02*
X716084D01*
X716540Y217317*
X716692Y217108*
X716844Y216689*
Y216271*
X716692Y215853*
X716540Y215643*
X716084Y215434*
X714715*
X715779D02*
X716844Y213134D01*
X718213Y216689D02*
X718517Y216898D01*
X718974Y217526*
Y213134*
X721255Y217526D02*
X720799Y217317D01*
X720495Y216689*
X720343Y215643*
Y215016*
X720495Y213970*
X720799Y213343*
X721255Y213134*
X721560*
X722016Y213343*
X722320Y213970*
X722472Y215016*
Y215643*
X722320Y216689*
X722016Y217317*
X721560Y217526*
X721255*
X1007892Y734984D02*
X1007740Y735402D01*
X1007436Y735821*
X1007131Y736030*
X1006523*
X1006219Y735821*
X1005914Y735402*
X1005762Y734984*
X1005610Y734357*
Y733311*
X1005762Y732683*
X1005914Y732265*
X1006219Y731847*
X1006523Y731638*
X1007131*
X1007436Y731847*
X1007740Y732265*
X1007892Y732683*
X1009413Y734984D02*
Y735193D01*
X1009565Y735611*
X1009717Y735821*
X1010021Y736030*
X1010630*
X1010934Y735821*
X1011086Y735611*
X1011238Y735193*
Y734775*
X1011086Y734357*
X1010782Y733729*
X1009261Y731638*
X1011390*
X1014281Y736030D02*
X1012759Y733102D01*
X1015041*
X1014281Y736030D02*
Y731638D01*
X325215Y722779D02*
X325063Y723198D01*
X324758Y723616*
X324454Y723825*
X323846*
X323542Y723616*
X323237Y723198*
X323085Y722779*
X322933Y722152*
Y721106*
X323085Y720479*
X323237Y720060*
X323542Y719642*
X323846Y719433*
X324454*
X324758Y719642*
X325063Y720060*
X325215Y720479*
X326736Y722779D02*
Y722988D01*
X326888Y723407*
X327040Y723616*
X327344Y723825*
X327953*
X328257Y723616*
X328409Y723407*
X328561Y722988*
Y722570*
X328409Y722152*
X328105Y721524*
X326584Y719433*
X328713*
X332060Y723825D02*
X330539D01*
X330387Y721943*
X330539Y722152*
X330995Y722361*
X331451*
X331908Y722152*
X332212Y721734*
X332364Y721106*
X332212Y720688*
X332060Y720060*
X331756Y719642*
X331299Y719433*
X330843*
X330387Y719642*
X330234Y719851*
X330082Y720269*
X324678Y277110D02*
X324526Y277528D01*
X324222Y277947*
X323917Y278156*
X323309*
X323005Y277947*
X322700Y277528*
X322548Y277110*
X322396Y276483*
Y275437*
X322548Y274809*
X322700Y274391*
X323005Y273973*
X323309Y273764*
X323917*
X324222Y273973*
X324526Y274391*
X324678Y274809*
X326199Y277110D02*
Y277319D01*
X326351Y277737*
X326503Y277947*
X326807Y278156*
X327416*
X327720Y277947*
X327872Y277737*
X328024Y277319*
Y276901*
X327872Y276483*
X327568Y275855*
X326047Y273764*
X328176*
X1011686Y268055D02*
X1011534Y268473D01*
X1011229Y268891*
X1010925Y269101*
X1010317*
X1010013Y268891*
X1009708Y268473*
X1009556Y268055*
X1009404Y267427*
Y266382*
X1009556Y265754*
X1009708Y265336*
X1010013Y264918*
X1010317Y264708*
X1010925*
X1011229Y264918*
X1011534Y265336*
X1011686Y265754*
X1013359Y269101D02*
X1015032D01*
X1014120Y267427*
X1014576*
X1014880Y267218*
X1015032Y267009*
X1015184Y266382*
Y265963*
X1015032Y265336*
X1014728Y264918*
X1014272Y264708*
X1013815*
X1013359Y264918*
X1013207Y265127*
X1013055Y265545*
X605703Y779559D02*
X608840D01*
X609467Y779711*
X609886Y780015*
X610095Y780472*
Y780776*
X609886Y781232*
X609467Y781536*
X608840Y781688*
X605703*
X606748Y783210D02*
X606539D01*
X606121Y783362*
X605912Y783514*
X605703Y783818*
Y784426*
X605912Y784731*
X606121Y784883*
X606539Y785035*
X606957*
X607376Y784883*
X608003Y784579*
X610095Y783057*
Y785187*
X734690Y221857D02*
Y218719D01*
X734843Y218092*
X735147Y217673*
X735603Y217464*
X735907*
X736364Y217673*
X736668Y218092*
X736820Y218719*
Y221857*
X738189Y221020D02*
X738493Y221229D01*
X738950Y221857*
Y217464*
X740319Y221020D02*
X740623Y221229D01*
X741079Y221857*
Y217464*
X232055Y466086D02*
X231903Y466505D01*
X231599Y466923*
X231295Y467132*
X230686*
X230382Y466923*
X230078Y466505*
X229926Y466086*
X229774Y465459*
Y464413*
X229926Y463786*
X230078Y463367*
X230382Y462949*
X230686Y462740*
X231295*
X231599Y462949*
X231903Y463367*
X232055Y463786*
X233424Y466296D02*
X233729Y466505D01*
X234185Y467132*
Y462740*
X211811Y419734D02*
Y416043D01*
X211990Y415305*
X212348Y414813*
X212885Y414567*
X213243*
X213780Y414813*
X214137Y415305*
X214316Y416043*
Y419734*
X216285D02*
X218253D01*
X217180Y417766*
X217717*
X218074Y417520*
X218253Y417274*
X218432Y416535*
Y416043*
X218253Y415305*
X217895Y414813*
X217359Y414567*
X216822*
X216285Y414813*
X216106Y415059*
X215927Y415551*
G54D42*
X378150Y754429D02*
X384178D01*
Y752793*
X385901*
Y754429*
X391929*
Y728248*
X378150*
Y754429*
X394100Y757274D02*
Y764774D01*
X399600D02*
Y757274D01*
X622323Y741863D02*
X612323D01*
X622323Y750263D02*
X612323D01*
X375978Y764774D02*
Y757274D01*
X370478D02*
Y764774D01*
X627677Y750263D02*
X637677D01*
X627677Y741863D02*
X637677D01*
X626959Y785821D02*
X634459D01*
Y780321D02*
X626959D01*
X403943Y749400D02*
Y756900D01*
X409443D02*
Y749400D01*
X500197Y754429D02*
X506225D01*
Y752793*
X507948*
Y754429*
X513976*
Y728248*
X500197*
Y754429*
X516148Y757274D02*
Y764774D01*
X521648D02*
Y757274D01*
X498026Y764774D02*
Y757274D01*
X492526D02*
Y764774D01*
X525990Y749400D02*
Y756900D01*
X531490D02*
Y749400D01*
X815157Y754429D02*
X821186D01*
Y752793*
X822908*
Y754429*
X828937*
Y728248*
X815157*
Y754429*
X831108Y757274D02*
Y764774D01*
X836608D02*
Y757274D01*
X812986Y764774D02*
Y757274D01*
X807486D02*
Y764774D01*
X840951Y749400D02*
Y756900D01*
X846451D02*
Y749400D01*
X941142Y754429D02*
X947170D01*
Y752793*
X948893*
Y754429*
X954921*
Y728248*
X941142*
Y754429*
X957093Y757274D02*
Y764774D01*
X962593D02*
Y757274D01*
X938970Y764774D02*
Y757274D01*
X933470D02*
Y764774D01*
X966935Y749400D02*
Y756900D01*
X972435D02*
Y749400D01*
X954921Y238091D02*
X948893D01*
Y239727*
X947170*
Y238091*
X941142*
Y264272*
X954921*
Y238091*
X938970Y235246D02*
Y227746D01*
X933470D02*
Y235246D01*
X957093Y227746D02*
Y235246D01*
X962593D02*
Y227746D01*
X929128Y243120D02*
Y235620D01*
X923628D02*
Y243120D01*
X828937Y238091D02*
X822908D01*
Y239727*
X821186*
Y238091*
X815157*
Y264272*
X828937*
Y238091*
X812986Y235246D02*
Y227746D01*
X807486D02*
Y235246D01*
X831108Y227746D02*
Y235246D01*
X836608D02*
Y227746D01*
X803144Y243120D02*
Y235620D01*
X797644D02*
Y243120D01*
X513976Y238091D02*
X507948D01*
Y239727*
X506225*
Y238091*
X500197*
Y264272*
X513976*
Y238091*
X498026Y235246D02*
Y227746D01*
X492526D02*
Y235246D01*
X516148Y227746D02*
Y235246D01*
X521648D02*
Y227746D01*
X488183Y243120D02*
Y235620D01*
X482683D02*
Y243120D01*
X399803Y238091D02*
X393775D01*
Y239727*
X392052*
Y238091*
X386024*
Y264272*
X399803*
Y238091*
X383852Y235246D02*
Y227746D01*
X378352D02*
Y235246D01*
X401974Y227746D02*
Y235246D01*
X407474D02*
Y227746D01*
X374010Y243120D02*
Y235620D01*
X368510D02*
Y243120D01*
X727677Y263649D02*
X737677D01*
X727677Y255249D02*
X737677D01*
X722717D02*
X712717D01*
X722717Y263649D02*
X712717D01*
X724222Y220085D02*
X716722D01*
Y225585D02*
X724222D01*
X1017192Y727835D02*
Y717835D01*
X1008792Y727835D02*
Y717835D01*
X321917Y728228D02*
Y718228D01*
X313517Y728228D02*
Y718228D01*
X313123Y270984D02*
Y280984D01*
X321523Y270984D02*
Y280984D01*
X1008792Y271772D02*
Y281772D01*
X1017192Y271772D02*
Y281772D01*
G54D43*
X617029Y778150D02*
X616873Y778377D01*
X616404Y778718*
X619685*
X733365Y227362D02*
X733521Y227135D01*
X733990Y226794*
X730709*
X228740Y448031D02*
Y479528D01*
X210630D02*
Y448031D01*
X228740Y457480D02*
X211024D01*
X213479Y447638D02*
G03X213479I-881J0D01*
G54D44*
G01X209435Y448530D02*
Y452030D01*
X207935Y450280D02*
X210935D01*
X181594Y430941D02*
Y427691D01*
Y429191D02*
X184094Y431191D01*
Y427441*
X181594Y429191*
G74*
X0Y0D02*
M02*
