*
*
G04 PADS VX.1.2 Build Number: 698008 generated Gerber (RS-274-X) file*
G04 PC Version=2.1*
*
%IN "LED drive11.pcb"*%
*
%MOIN*%
*
%FSLAX35Y35*%
*
*
*
*
G04 PC Standard Apertures*
*
*
G04 Thermal Relief Aperture macro.*
%AMTER*
1,1,$1,0,0*
1,0,$1-$2,0,0*
21,0,$3,$4,0,0,45*
21,0,$3,$4,0,0,135*
%
*
*
G04 Annular Aperture macro.*
%AMANN*
1,1,$1,0,0*
1,0,$2,0,0*
%
*
*
G04 Odd Aperture macro.*
%AMODD*
1,1,$1,0,0*
1,0,$1-0.005,0,0*
%
*
*
G04 PC Custom Aperture Macros*
*
*
*
*
*
*
G04 PC Aperture Table*
*
%ADD010C,0.001*%
%ADD031C,0.008*%
%ADD040C,0.00787*%
%ADD045R,0.06206X0.01481*%
%ADD046R,0.113X0.139*%
%ADD047O,0.093X0.073*%
%ADD048C,0.058*%
%ADD049R,0.058X0.058*%
%ADD050R,0.036X0.036*%
%ADD051R,0.043X0.053*%
%ADD052R,0.02072X0.05418*%
%ADD053O,0.06009X0.08174*%
%ADD054O,0.04828X0.07387*%
%ADD055C,0.0345*%
%ADD056R,0.053X0.043*%
%ADD057C,0.23922*%
%ADD058R,0.05812X0.05024*%
%ADD059R,0.05812X0.03056*%
%ADD060R,0.05418X0.05024*%
%ADD061R,0.05418X0.03056*%
%ADD062R,0.098X0.113*%
%ADD063R,0.093X0.093*%
%ADD064C,0.043*%
*
*
*
*
G04 PC Circuitry*
G04 Layer Name LED drive11.pcb - circuitry*
%LPD*%
*
*
G04 PC Custom Flashes*
G04 Layer Name LED drive11.pcb - flashes*
%LPD*%
*
*
G04 PC Circuitry*
G04 Layer Name LED drive11.pcb - circuitry*
%LPD*%
*
G54D10*
G54D31*
G01X366468Y814830D02*
Y810236D01*
X365354Y814830D02*
X367582D01*
X369968D02*
X369650Y814611D01*
X369332Y814174*
X369173Y813736*
X369013Y813080*
Y811986*
X369173Y811330*
X369332Y810892*
X369650Y810455*
X369968Y810236*
X370604*
X370923Y810455*
X371241Y810892*
X371400Y811330*
X371559Y811986*
Y813080*
X371400Y813736*
X371241Y814174*
X370923Y814611*
X370604Y814830*
X369968*
X372991D02*
Y810236D01*
Y814830D02*
X374423D01*
X374900Y814611*
X375059Y814392*
X375218Y813955*
Y813299*
X375059Y812861*
X374900Y812642*
X374423Y812424*
X372991*
X382536Y814174D02*
X382218Y814611D01*
X381741Y814830*
X381104*
X380627Y814611*
X380309Y814174*
Y813736*
X380468Y813299*
X380627Y813080*
X380945Y812861*
X381900Y812424*
X382218Y812205*
X382377Y811986*
X382536Y811549*
Y810892*
X382218Y810455*
X381741Y810236*
X381104*
X380627Y810455*
X380309Y810892*
X384923Y814830D02*
X384604Y814611D01*
X384286Y814174*
X384127Y813736*
X383968Y813080*
Y811986*
X384127Y811330*
X384286Y810892*
X384604Y810455*
X384923Y810236*
X385559*
X385877Y810455*
X386195Y810892*
X386354Y811330*
X386513Y811986*
Y813080*
X386354Y813736*
X386195Y814174*
X385877Y814611*
X385559Y814830*
X384923*
X387945D02*
Y810236D01*
X389854*
X391286Y814830D02*
Y810236D01*
Y814830D02*
X392400D01*
X392877Y814611*
X393195Y814174*
X393354Y813736*
X393513Y813080*
Y811986*
X393354Y811330*
X393195Y810892*
X392877Y810455*
X392400Y810236*
X391286*
X394945Y814830D02*
Y810236D01*
Y814830D02*
X397013D01*
X394945Y812642D02*
X396218D01*
X394945Y810236D02*
X397013D01*
X398445Y814830D02*
Y810236D01*
Y814830D02*
X399877D01*
X400354Y814611*
X400513Y814392*
X400673Y813955*
Y813517*
X400513Y813080*
X400354Y812861*
X399877Y812642*
X398445*
X399559D02*
X400673Y810236D01*
X402104Y814830D02*
Y810236D01*
Y814830D02*
X403377Y810236D01*
X404650Y814830D02*
X403377Y810236D01*
X404650Y814830D02*
Y810236D01*
X407354Y814830D02*
X406082Y810236D01*
X407354Y814830D02*
X408627Y810236D01*
X406559Y811767D02*
X408150D01*
X412286Y814174D02*
X411968Y814611D01*
X411491Y814830*
X410854*
X410377Y814611*
X410059Y814174*
Y813736*
X410218Y813299*
X410377Y813080*
X410695Y812861*
X411650Y812424*
X411968Y812205*
X412127Y811986*
X412286Y811549*
Y810892*
X411968Y810455*
X411491Y810236*
X410854*
X410377Y810455*
X410059Y810892*
X413718Y814830D02*
Y810236D01*
X415945Y814830D02*
X413718Y811767D01*
X414513Y812861D02*
X415945Y810236D01*
G54D40*
X651969Y291339D02*
X236220D01*
Y707087*
X651969*
Y291339*
X677165Y707087D02*
X1092913D01*
Y291339*
X677165*
Y707087*
X236220Y706613D02*
X651969D01*
X236220Y705904D02*
X651969D01*
X236220Y705196D02*
X651969D01*
X236220Y704487D02*
X651969D01*
X236220Y703778D02*
X651969D01*
X236220Y703070D02*
X651969D01*
X236220Y702361D02*
X651969D01*
X236220Y701652D02*
X651969D01*
X236220Y700944D02*
X651969D01*
X236220Y700235D02*
X651969D01*
X236220Y699526D02*
X651969D01*
X236220Y698818D02*
X651969D01*
X236220Y698109D02*
X651969D01*
X236220Y697400D02*
X651969D01*
X236220Y696692D02*
X651969D01*
X236220Y695983D02*
X651969D01*
X236220Y695274D02*
X651969D01*
X236220Y694566D02*
X651969D01*
X236220Y693857D02*
X651969D01*
X236220Y693148D02*
X651969D01*
X236220Y692440D02*
X651969D01*
X236220Y691731D02*
X651969D01*
X236220Y691022D02*
X651969D01*
X236220Y690314D02*
X651969D01*
X236220Y689605D02*
X651969D01*
X236220Y688896D02*
X651969D01*
X236220Y688188D02*
X651969D01*
X236220Y687479D02*
X651969D01*
X236220Y686770D02*
X651969D01*
X236220Y686062D02*
X651969D01*
X236220Y685353D02*
X651969D01*
X236220Y684644D02*
X651969D01*
X236220Y683936D02*
X651969D01*
X236220Y683227D02*
X651969D01*
X236220Y682518D02*
X651969D01*
X236220Y681810D02*
X651969D01*
X236220Y681101D02*
X651969D01*
X236220Y680392D02*
X651969D01*
X236220Y679684D02*
X651969D01*
X236220Y678975D02*
X651969D01*
X236220Y678266D02*
X651969D01*
X236220Y677558D02*
X651969D01*
X236220Y676849D02*
X651969D01*
X236220Y676140D02*
X651969D01*
X236220Y675432D02*
X651969D01*
X236220Y674723D02*
X651969D01*
X236220Y674014D02*
X651969D01*
X236220Y673306D02*
X651969D01*
X236220Y672597D02*
X651969D01*
X236220Y671888D02*
X651969D01*
X236220Y671180D02*
X651969D01*
X236220Y670471D02*
X651969D01*
X236220Y669762D02*
X651969D01*
X236220Y669054D02*
X651969D01*
X236220Y668345D02*
X651969D01*
X236220Y667636D02*
X651969D01*
X236220Y666928D02*
X651969D01*
X236220Y666219D02*
X651969D01*
X236220Y665510D02*
X651969D01*
X236220Y664802D02*
X651969D01*
X236220Y664093D02*
X651969D01*
X236220Y663385D02*
X651969D01*
X236220Y662676D02*
X651969D01*
X236220Y661967D02*
X651969D01*
X236220Y661259D02*
X651969D01*
X236220Y660550D02*
X651969D01*
X236220Y659841D02*
X651969D01*
X236220Y659133D02*
X651969D01*
X236220Y658424D02*
X651969D01*
X236220Y657715D02*
X651969D01*
X236220Y657007D02*
X651969D01*
X236220Y656298D02*
X651969D01*
X236220Y655589D02*
X651969D01*
X236220Y654881D02*
X651969D01*
X236220Y654172D02*
X651969D01*
X236220Y653463D02*
X651969D01*
X236220Y652755D02*
X651969D01*
X236220Y652046D02*
X651969D01*
X236220Y651337D02*
X651969D01*
X236220Y650629D02*
X651969D01*
X236220Y649920D02*
X651969D01*
X236220Y649211D02*
X651969D01*
X236220Y648503D02*
X651969D01*
X236220Y647794D02*
X651969D01*
X236220Y647085D02*
X651969D01*
X236220Y646377D02*
X651969D01*
X236220Y645668D02*
X651969D01*
X236220Y644959D02*
X651969D01*
X236220Y644251D02*
X651969D01*
X236220Y643542D02*
X651969D01*
X236220Y642833D02*
X651969D01*
X236220Y642125D02*
X651969D01*
X236220Y641416D02*
X651969D01*
X236220Y640707D02*
X651969D01*
X236220Y639999D02*
X651969D01*
X236220Y639290D02*
X651969D01*
X236220Y638581D02*
X651969D01*
X236220Y637873D02*
X651969D01*
X236220Y637164D02*
X651969D01*
X236220Y636455D02*
X651969D01*
X236220Y635747D02*
X651969D01*
X236220Y635038D02*
X651969D01*
X236220Y634329D02*
X651969D01*
X236220Y633621D02*
X651969D01*
X236220Y632912D02*
X651969D01*
X236220Y632203D02*
X651969D01*
X236220Y631495D02*
X651969D01*
X236220Y630786D02*
X651969D01*
X236220Y630077D02*
X651969D01*
X236220Y629369D02*
X651969D01*
X236220Y628660D02*
X651969D01*
X236220Y627951D02*
X651969D01*
X236220Y627243D02*
X651969D01*
X236220Y626534D02*
X651969D01*
X236220Y625825D02*
X651969D01*
X236220Y625117D02*
X651969D01*
X236220Y624408D02*
X651969D01*
X236220Y623699D02*
X651969D01*
X236220Y622991D02*
X651969D01*
X236220Y622282D02*
X651969D01*
X236220Y621573D02*
X651969D01*
X236220Y620865D02*
X651969D01*
X236220Y620156D02*
X651969D01*
X236220Y619448D02*
X651969D01*
X236220Y618739D02*
X651969D01*
X236220Y618030D02*
X651969D01*
X236220Y617322D02*
X651969D01*
X236220Y616613D02*
X651969D01*
X236220Y615904D02*
X651969D01*
X236220Y615196D02*
X651969D01*
X236220Y614487D02*
X651969D01*
X236220Y613778D02*
X651969D01*
X236220Y613070D02*
X651969D01*
X236220Y612361D02*
X651969D01*
X236220Y611652D02*
X651969D01*
X236220Y610944D02*
X651969D01*
X236220Y610235D02*
X651969D01*
X236220Y609526D02*
X651969D01*
X236220Y608818D02*
X651969D01*
X236220Y608109D02*
X651969D01*
X236220Y607400D02*
X651969D01*
X236220Y606692D02*
X651969D01*
X236220Y605983D02*
X651969D01*
X236220Y605274D02*
X651969D01*
X236220Y604566D02*
X651969D01*
X236220Y603857D02*
X651969D01*
X236220Y603148D02*
X651969D01*
X236220Y602440D02*
X651969D01*
X236220Y601731D02*
X651969D01*
X236220Y601022D02*
X651969D01*
X236220Y600314D02*
X651969D01*
X236220Y599605D02*
X651969D01*
X236220Y598896D02*
X651969D01*
X236220Y598188D02*
X651969D01*
X236220Y597479D02*
X651969D01*
X236220Y596770D02*
X651969D01*
X236220Y596062D02*
X651969D01*
X236220Y595353D02*
X651969D01*
X236220Y594644D02*
X651969D01*
X236220Y593936D02*
X651969D01*
X236220Y593227D02*
X651969D01*
X236220Y592518D02*
X651969D01*
X236220Y591810D02*
X651969D01*
X236220Y591101D02*
X651969D01*
X236220Y590392D02*
X651969D01*
X236220Y589684D02*
X651969D01*
X236220Y588975D02*
X651969D01*
X236220Y588266D02*
X651969D01*
X236220Y587558D02*
X651969D01*
X236220Y586849D02*
X651969D01*
X236220Y586140D02*
X651969D01*
X236220Y585432D02*
X651969D01*
X236220Y584723D02*
X651969D01*
X236220Y584014D02*
X651969D01*
X236220Y583306D02*
X651969D01*
X236220Y582597D02*
X651969D01*
X236220Y581888D02*
X651969D01*
X236220Y581180D02*
X651969D01*
X236220Y580471D02*
X651969D01*
X236220Y579762D02*
X651969D01*
X236220Y579054D02*
X651969D01*
X236220Y578345D02*
X651969D01*
X236220Y577636D02*
X651969D01*
X236220Y576928D02*
X651969D01*
X236220Y576219D02*
X651969D01*
X236220Y575510D02*
X651969D01*
X236220Y574802D02*
X651969D01*
X236220Y574093D02*
X651969D01*
X236220Y573385D02*
X651969D01*
X236220Y572676D02*
X651969D01*
X236220Y571967D02*
X651969D01*
X236220Y571259D02*
X651969D01*
X236220Y570550D02*
X651969D01*
X236220Y569841D02*
X651969D01*
X236220Y569133D02*
X651969D01*
X236220Y568424D02*
X651969D01*
X236220Y567715D02*
X651969D01*
X236220Y567007D02*
X651969D01*
X236220Y566298D02*
X651969D01*
X236220Y565589D02*
X651969D01*
X236220Y564881D02*
X651969D01*
X236220Y564172D02*
X651969D01*
X236220Y563463D02*
X651969D01*
X236220Y562755D02*
X651969D01*
X236220Y562046D02*
X651969D01*
X236220Y561337D02*
X651969D01*
X236220Y560629D02*
X651969D01*
X236220Y559920D02*
X651969D01*
X236220Y559211D02*
X651969D01*
X236220Y558503D02*
X651969D01*
X236220Y557794D02*
X651969D01*
X236220Y557085D02*
X651969D01*
X236220Y556377D02*
X651969D01*
X236220Y555668D02*
X651969D01*
X236220Y554959D02*
X651969D01*
X236220Y554251D02*
X651969D01*
X236220Y553542D02*
X651969D01*
X236220Y552833D02*
X651969D01*
X236220Y552125D02*
X651969D01*
X236220Y551416D02*
X651969D01*
X236220Y550707D02*
X651969D01*
X236220Y549999D02*
X651969D01*
X236220Y549290D02*
X651969D01*
X236220Y548581D02*
X651969D01*
X236220Y547873D02*
X651969D01*
X236220Y547164D02*
X651969D01*
X236220Y546455D02*
X651969D01*
X236220Y545747D02*
X651969D01*
X236220Y545038D02*
X651969D01*
X236220Y544329D02*
X651969D01*
X236220Y543621D02*
X651969D01*
X236220Y542912D02*
X651969D01*
X236220Y542203D02*
X651969D01*
X236220Y541495D02*
X651969D01*
X236220Y540786D02*
X651969D01*
X236220Y540077D02*
X651969D01*
X236220Y539369D02*
X651969D01*
X236220Y538660D02*
X651969D01*
X236220Y537951D02*
X651969D01*
X236220Y537243D02*
X651969D01*
X236220Y536534D02*
X651969D01*
X236220Y535825D02*
X651969D01*
X236220Y535117D02*
X651969D01*
X236220Y534408D02*
X651969D01*
X236220Y533699D02*
X651969D01*
X236220Y532991D02*
X651969D01*
X236220Y532282D02*
X651969D01*
X236220Y531573D02*
X651969D01*
X236220Y530865D02*
X651969D01*
X236220Y530156D02*
X651969D01*
X236220Y529448D02*
X651969D01*
X236220Y528739D02*
X651969D01*
X236220Y528030D02*
X651969D01*
X236220Y527322D02*
X651969D01*
X236220Y526613D02*
X651969D01*
X236220Y525904D02*
X651969D01*
X236220Y525196D02*
X651969D01*
X236220Y524487D02*
X651969D01*
X236220Y523778D02*
X651969D01*
X236220Y523070D02*
X651969D01*
X236220Y522361D02*
X651969D01*
X236220Y521652D02*
X651969D01*
X236220Y520944D02*
X651969D01*
X236220Y520235D02*
X651969D01*
X236220Y519526D02*
X651969D01*
X236220Y518818D02*
X651969D01*
X236220Y518109D02*
X651969D01*
X236220Y517400D02*
X651969D01*
X236220Y516692D02*
X651969D01*
X236220Y515983D02*
X651969D01*
X236220Y515274D02*
X651969D01*
X236220Y514566D02*
X651969D01*
X236220Y513857D02*
X651969D01*
X236220Y513148D02*
X651969D01*
X236220Y512440D02*
X651969D01*
X236220Y511731D02*
X651969D01*
X236220Y511022D02*
X651969D01*
X236220Y510314D02*
X651969D01*
X236220Y509605D02*
X651969D01*
X236220Y508896D02*
X651969D01*
X236220Y508188D02*
X651969D01*
X236220Y507479D02*
X651969D01*
X236220Y506770D02*
X651969D01*
X236220Y506062D02*
X651969D01*
X236220Y505353D02*
X651969D01*
X236220Y504644D02*
X651969D01*
X236220Y503936D02*
X651969D01*
X236220Y503227D02*
X651969D01*
X236220Y502518D02*
X651969D01*
X236220Y501810D02*
X651969D01*
X236220Y501101D02*
X651969D01*
X236220Y500392D02*
X651969D01*
X236220Y499684D02*
X651969D01*
X236220Y498975D02*
X651969D01*
X236220Y498266D02*
X651969D01*
X236220Y497558D02*
X651969D01*
X236220Y496849D02*
X651969D01*
X236220Y496140D02*
X651969D01*
X236220Y495432D02*
X651969D01*
X236220Y494723D02*
X651969D01*
X236220Y494014D02*
X651969D01*
X236220Y493306D02*
X651969D01*
X236220Y492597D02*
X651969D01*
X236220Y491888D02*
X651969D01*
X236220Y491180D02*
X651969D01*
X236220Y490471D02*
X651969D01*
X236220Y489762D02*
X651969D01*
X236220Y489054D02*
X651969D01*
X236220Y488345D02*
X651969D01*
X236220Y487636D02*
X651969D01*
X236220Y486928D02*
X651969D01*
X236220Y486219D02*
X651969D01*
X236220Y485510D02*
X651969D01*
X236220Y484802D02*
X651969D01*
X236220Y484093D02*
X651969D01*
X236220Y483385D02*
X651969D01*
X236220Y482676D02*
X651969D01*
X236220Y481967D02*
X651969D01*
X236220Y481259D02*
X651969D01*
X236220Y480550D02*
X651969D01*
X236220Y479841D02*
X651969D01*
X236220Y479133D02*
X651969D01*
X236220Y478424D02*
X651969D01*
X236220Y477715D02*
X651969D01*
X236220Y477007D02*
X651969D01*
X236220Y476298D02*
X651969D01*
X236220Y475589D02*
X651969D01*
X236220Y474881D02*
X651969D01*
X236220Y474172D02*
X651969D01*
X236220Y473463D02*
X651969D01*
X236220Y472755D02*
X651969D01*
X236220Y472046D02*
X651969D01*
X236220Y471337D02*
X651969D01*
X236220Y470629D02*
X651969D01*
X236220Y469920D02*
X651969D01*
X236220Y469211D02*
X651969D01*
X236220Y468503D02*
X651969D01*
X236220Y467794D02*
X651969D01*
X236220Y467085D02*
X651969D01*
X236220Y466377D02*
X651969D01*
X236220Y465668D02*
X651969D01*
X236220Y464959D02*
X651969D01*
X236220Y464251D02*
X651969D01*
X236220Y463542D02*
X651969D01*
X236220Y462833D02*
X651969D01*
X236220Y462125D02*
X651969D01*
X236220Y461416D02*
X651969D01*
X236220Y460707D02*
X651969D01*
X236220Y459999D02*
X651969D01*
X236220Y459290D02*
X651969D01*
X236220Y458581D02*
X651969D01*
X236220Y457873D02*
X651969D01*
X236220Y457164D02*
X651969D01*
X236220Y456455D02*
X651969D01*
X236220Y455747D02*
X651969D01*
X236220Y455038D02*
X651969D01*
X236220Y454329D02*
X651969D01*
X236220Y453621D02*
X651969D01*
X236220Y452912D02*
X651969D01*
X236220Y452203D02*
X651969D01*
X236220Y451495D02*
X651969D01*
X236220Y450786D02*
X651969D01*
X236220Y450077D02*
X651969D01*
X236220Y449369D02*
X651969D01*
X236220Y448660D02*
X651969D01*
X236220Y447951D02*
X651969D01*
X236220Y447243D02*
X651969D01*
X236220Y446534D02*
X651969D01*
X236220Y445825D02*
X651969D01*
X236220Y445117D02*
X651969D01*
X236220Y444408D02*
X651969D01*
X236220Y443699D02*
X651969D01*
X236220Y442991D02*
X651969D01*
X236220Y442282D02*
X651969D01*
X236220Y441573D02*
X651969D01*
X236220Y440865D02*
X651969D01*
X236220Y440156D02*
X651969D01*
X236220Y439448D02*
X651969D01*
X236220Y438739D02*
X651969D01*
X236220Y438030D02*
X651969D01*
X236220Y437322D02*
X651969D01*
X236220Y436613D02*
X651969D01*
X236220Y435904D02*
X651969D01*
X236220Y435196D02*
X651969D01*
X236220Y434487D02*
X651969D01*
X236220Y433778D02*
X651969D01*
X236220Y433070D02*
X651969D01*
X236220Y432361D02*
X651969D01*
X236220Y431652D02*
X651969D01*
X236220Y430944D02*
X651969D01*
X236220Y430235D02*
X651969D01*
X236220Y429526D02*
X651969D01*
X236220Y428818D02*
X651969D01*
X236220Y428109D02*
X651969D01*
X236220Y427400D02*
X651969D01*
X236220Y426692D02*
X651969D01*
X236220Y425983D02*
X651969D01*
X236220Y425274D02*
X651969D01*
X236220Y424566D02*
X651969D01*
X236220Y423857D02*
X651969D01*
X236220Y423148D02*
X651969D01*
X236220Y422440D02*
X651969D01*
X236220Y421731D02*
X651969D01*
X236220Y421022D02*
X651969D01*
X236220Y420314D02*
X651969D01*
X236220Y419605D02*
X651969D01*
X236220Y418896D02*
X651969D01*
X236220Y418188D02*
X651969D01*
X236220Y417479D02*
X651969D01*
X236220Y416770D02*
X651969D01*
X236220Y416062D02*
X651969D01*
X236220Y415353D02*
X651969D01*
X236220Y414644D02*
X651969D01*
X236220Y413936D02*
X651969D01*
X236220Y413227D02*
X651969D01*
X236220Y412518D02*
X651969D01*
X236220Y411810D02*
X651969D01*
X236220Y411101D02*
X651969D01*
X236220Y410392D02*
X651969D01*
X236220Y409684D02*
X651969D01*
X236220Y408975D02*
X651969D01*
X236220Y408266D02*
X651969D01*
X236220Y407558D02*
X651969D01*
X236220Y406849D02*
X651969D01*
X236220Y406140D02*
X651969D01*
X236220Y405432D02*
X651969D01*
X236220Y404723D02*
X651969D01*
X236220Y404014D02*
X651969D01*
X236220Y403306D02*
X651969D01*
X236220Y402597D02*
X651969D01*
X236220Y401888D02*
X651969D01*
X236220Y401180D02*
X651969D01*
X236220Y400471D02*
X651969D01*
X236220Y399762D02*
X651969D01*
X236220Y399054D02*
X651969D01*
X236220Y398345D02*
X651969D01*
X236220Y397636D02*
X651969D01*
X236220Y396928D02*
X651969D01*
X236220Y396219D02*
X651969D01*
X236220Y395510D02*
X651969D01*
X236220Y394802D02*
X651969D01*
X236220Y394093D02*
X651969D01*
X236220Y393385D02*
X651969D01*
X236220Y392676D02*
X651969D01*
X236220Y391967D02*
X651969D01*
X236220Y391259D02*
X651969D01*
X236220Y390550D02*
X651969D01*
X236220Y389841D02*
X651969D01*
X236220Y389133D02*
X651969D01*
X236220Y388424D02*
X651969D01*
X236220Y387715D02*
X651969D01*
X236220Y387007D02*
X651969D01*
X236220Y386298D02*
X651969D01*
X236220Y385589D02*
X651969D01*
X236220Y384881D02*
X651969D01*
X236220Y384172D02*
X651969D01*
X236220Y383463D02*
X651969D01*
X236220Y382755D02*
X651969D01*
X236220Y382046D02*
X651969D01*
X236220Y381337D02*
X651969D01*
X236220Y380629D02*
X651969D01*
X236220Y379920D02*
X651969D01*
X236220Y379211D02*
X651969D01*
X236220Y378503D02*
X651969D01*
X236220Y377794D02*
X651969D01*
X236220Y377085D02*
X651969D01*
X236220Y376377D02*
X651969D01*
X236220Y375668D02*
X651969D01*
X236220Y374959D02*
X651969D01*
X236220Y374251D02*
X651969D01*
X236220Y373542D02*
X651969D01*
X236220Y372833D02*
X651969D01*
X236220Y372125D02*
X651969D01*
X236220Y371416D02*
X651969D01*
X236220Y370707D02*
X651969D01*
X236220Y369999D02*
X651969D01*
X236220Y369290D02*
X651969D01*
X236220Y368581D02*
X651969D01*
X236220Y367873D02*
X651969D01*
X236220Y367164D02*
X651969D01*
X236220Y366455D02*
X651969D01*
X236220Y365747D02*
X651969D01*
X236220Y365038D02*
X651969D01*
X236220Y364329D02*
X651969D01*
X236220Y363621D02*
X651969D01*
X236220Y362912D02*
X651969D01*
X236220Y362203D02*
X651969D01*
X236220Y361495D02*
X651969D01*
X236220Y360786D02*
X651969D01*
X236220Y360077D02*
X651969D01*
X236220Y359369D02*
X651969D01*
X236220Y358660D02*
X651969D01*
X236220Y357951D02*
X651969D01*
X236220Y357243D02*
X651969D01*
X236220Y356534D02*
X651969D01*
X236220Y355825D02*
X651969D01*
X236220Y355117D02*
X651969D01*
X236220Y354408D02*
X651969D01*
X236220Y353699D02*
X651969D01*
X236220Y352991D02*
X651969D01*
X236220Y352282D02*
X651969D01*
X236220Y351573D02*
X651969D01*
X236220Y350865D02*
X651969D01*
X236220Y350156D02*
X651969D01*
X236220Y349448D02*
X651969D01*
X236220Y348739D02*
X651969D01*
X236220Y348030D02*
X651969D01*
X236220Y347322D02*
X651969D01*
X236220Y346613D02*
X651969D01*
X236220Y345904D02*
X651969D01*
X236220Y345196D02*
X651969D01*
X236220Y344487D02*
X651969D01*
X236220Y343778D02*
X651969D01*
X236220Y343070D02*
X651969D01*
X236220Y342361D02*
X651969D01*
X236220Y341652D02*
X651969D01*
X236220Y340944D02*
X651969D01*
X236220Y340235D02*
X651969D01*
X236220Y339526D02*
X651969D01*
X236220Y338818D02*
X651969D01*
X236220Y338109D02*
X651969D01*
X236220Y337400D02*
X651969D01*
X236220Y336692D02*
X651969D01*
X236220Y335983D02*
X651969D01*
X236220Y335274D02*
X651969D01*
X236220Y334566D02*
X651969D01*
X236220Y333857D02*
X651969D01*
X236220Y333148D02*
X651969D01*
X236220Y332440D02*
X651969D01*
X236220Y331731D02*
X651969D01*
X236220Y331022D02*
X651969D01*
X236220Y330314D02*
X651969D01*
X236220Y329605D02*
X651969D01*
X236220Y328896D02*
X651969D01*
X236220Y328188D02*
X651969D01*
X236220Y327479D02*
X651969D01*
X236220Y326770D02*
X651969D01*
X236220Y326062D02*
X651969D01*
X236220Y325353D02*
X651969D01*
X236220Y324644D02*
X651969D01*
X236220Y323936D02*
X651969D01*
X236220Y323227D02*
X651969D01*
X236220Y322518D02*
X651969D01*
X236220Y321810D02*
X651969D01*
X236220Y321101D02*
X651969D01*
X236220Y320392D02*
X651969D01*
X236220Y319684D02*
X651969D01*
X236220Y318975D02*
X651969D01*
X236220Y318266D02*
X651969D01*
X236220Y317558D02*
X651969D01*
X236220Y316849D02*
X651969D01*
X236220Y316140D02*
X651969D01*
X236220Y315432D02*
X651969D01*
X236220Y314723D02*
X651969D01*
X236220Y314014D02*
X651969D01*
X236220Y313306D02*
X651969D01*
X236220Y312597D02*
X651969D01*
X236220Y311888D02*
X651969D01*
X236220Y311180D02*
X651969D01*
X236220Y310471D02*
X651969D01*
X236220Y309762D02*
X651969D01*
X236220Y309054D02*
X651969D01*
X236220Y308345D02*
X651969D01*
X236220Y307636D02*
X651969D01*
X236220Y306928D02*
X651969D01*
X236220Y306219D02*
X651969D01*
X236220Y305510D02*
X651969D01*
X236220Y304802D02*
X651969D01*
X236220Y304093D02*
X651969D01*
X236220Y303385D02*
X651969D01*
X236220Y302676D02*
X651969D01*
X236220Y301967D02*
X651969D01*
X236220Y301259D02*
X651969D01*
X236220Y300550D02*
X651969D01*
X236220Y299841D02*
X651969D01*
X236220Y299133D02*
X651969D01*
X236220Y298424D02*
X651969D01*
X236220Y297715D02*
X651969D01*
X236220Y297007D02*
X651969D01*
X236220Y296298D02*
X651969D01*
X236220Y295589D02*
X651969D01*
X236220Y294881D02*
X651969D01*
X236220Y294172D02*
X651969D01*
X236220Y293463D02*
X651969D01*
X236220Y292755D02*
X651969D01*
X236220Y292046D02*
X651969D01*
X677165Y706613D02*
X1092913D01*
X677165Y705904D02*
X1092913D01*
X677165Y705196D02*
X1092913D01*
X677165Y704487D02*
X1092913D01*
X677165Y703778D02*
X1092913D01*
X677165Y703070D02*
X1092913D01*
X677165Y702361D02*
X1092913D01*
X677165Y701652D02*
X1092913D01*
X677165Y700944D02*
X1092913D01*
X677165Y700235D02*
X1092913D01*
X677165Y699526D02*
X1092913D01*
X677165Y698818D02*
X1092913D01*
X677165Y698109D02*
X1092913D01*
X677165Y697400D02*
X1092913D01*
X677165Y696692D02*
X1092913D01*
X677165Y695983D02*
X1092913D01*
X677165Y695274D02*
X1092913D01*
X677165Y694566D02*
X1092913D01*
X677165Y693857D02*
X1092913D01*
X677165Y693148D02*
X1092913D01*
X677165Y692440D02*
X1092913D01*
X677165Y691731D02*
X1092913D01*
X677165Y691022D02*
X1092913D01*
X677165Y690314D02*
X1092913D01*
X677165Y689605D02*
X1092913D01*
X677165Y688896D02*
X1092913D01*
X677165Y688188D02*
X1092913D01*
X677165Y687479D02*
X1092913D01*
X677165Y686770D02*
X1092913D01*
X677165Y686062D02*
X1092913D01*
X677165Y685353D02*
X1092913D01*
X677165Y684644D02*
X1092913D01*
X677165Y683936D02*
X1092913D01*
X677165Y683227D02*
X1092913D01*
X677165Y682518D02*
X1092913D01*
X677165Y681810D02*
X1092913D01*
X677165Y681101D02*
X1092913D01*
X677165Y680392D02*
X1092913D01*
X677165Y679684D02*
X1092913D01*
X677165Y678975D02*
X1092913D01*
X677165Y678266D02*
X1092913D01*
X677165Y677558D02*
X1092913D01*
X677165Y676849D02*
X1092913D01*
X677165Y676140D02*
X1092913D01*
X677165Y675432D02*
X1092913D01*
X677165Y674723D02*
X1092913D01*
X677165Y674014D02*
X1092913D01*
X677165Y673306D02*
X1092913D01*
X677165Y672597D02*
X1092913D01*
X677165Y671888D02*
X1092913D01*
X677165Y671180D02*
X1092913D01*
X677165Y670471D02*
X1092913D01*
X677165Y669762D02*
X1092913D01*
X677165Y669054D02*
X1092913D01*
X677165Y668345D02*
X1092913D01*
X677165Y667636D02*
X1092913D01*
X677165Y666928D02*
X1092913D01*
X677165Y666219D02*
X1092913D01*
X677165Y665510D02*
X1092913D01*
X677165Y664802D02*
X1092913D01*
X677165Y664093D02*
X1092913D01*
X677165Y663385D02*
X1092913D01*
X677165Y662676D02*
X1092913D01*
X677165Y661967D02*
X1092913D01*
X677165Y661259D02*
X1092913D01*
X677165Y660550D02*
X1092913D01*
X677165Y659841D02*
X1092913D01*
X677165Y659133D02*
X1092913D01*
X677165Y658424D02*
X1092913D01*
X677165Y657715D02*
X1092913D01*
X677165Y657007D02*
X1092913D01*
X677165Y656298D02*
X1092913D01*
X677165Y655589D02*
X1092913D01*
X677165Y654881D02*
X1092913D01*
X677165Y654172D02*
X1092913D01*
X677165Y653463D02*
X1092913D01*
X677165Y652755D02*
X1092913D01*
X677165Y652046D02*
X1092913D01*
X677165Y651337D02*
X1092913D01*
X677165Y650629D02*
X1092913D01*
X677165Y649920D02*
X1092913D01*
X677165Y649211D02*
X1092913D01*
X677165Y648503D02*
X1092913D01*
X677165Y647794D02*
X1092913D01*
X677165Y647085D02*
X1092913D01*
X677165Y646377D02*
X1092913D01*
X677165Y645668D02*
X1092913D01*
X677165Y644959D02*
X1092913D01*
X677165Y644251D02*
X1092913D01*
X677165Y643542D02*
X1092913D01*
X677165Y642833D02*
X1092913D01*
X677165Y642125D02*
X1092913D01*
X677165Y641416D02*
X1092913D01*
X677165Y640707D02*
X1092913D01*
X677165Y639999D02*
X1092913D01*
X677165Y639290D02*
X1092913D01*
X677165Y638581D02*
X1092913D01*
X677165Y637873D02*
X1092913D01*
X677165Y637164D02*
X1092913D01*
X677165Y636455D02*
X1092913D01*
X677165Y635747D02*
X1092913D01*
X677165Y635038D02*
X1092913D01*
X677165Y634329D02*
X1092913D01*
X677165Y633621D02*
X1092913D01*
X677165Y632912D02*
X1092913D01*
X677165Y632203D02*
X1092913D01*
X677165Y631495D02*
X1092913D01*
X677165Y630786D02*
X1092913D01*
X677165Y630077D02*
X1092913D01*
X677165Y629369D02*
X1092913D01*
X677165Y628660D02*
X1092913D01*
X677165Y627951D02*
X1092913D01*
X677165Y627243D02*
X1092913D01*
X677165Y626534D02*
X1092913D01*
X677165Y625825D02*
X1092913D01*
X677165Y625117D02*
X1092913D01*
X677165Y624408D02*
X1092913D01*
X677165Y623699D02*
X1092913D01*
X677165Y622991D02*
X1092913D01*
X677165Y622282D02*
X1092913D01*
X677165Y621573D02*
X1092913D01*
X677165Y620865D02*
X1092913D01*
X677165Y620156D02*
X1092913D01*
X677165Y619448D02*
X1092913D01*
X677165Y618739D02*
X1092913D01*
X677165Y618030D02*
X1092913D01*
X677165Y617322D02*
X1092913D01*
X677165Y616613D02*
X1092913D01*
X677165Y615904D02*
X1092913D01*
X677165Y615196D02*
X1092913D01*
X677165Y614487D02*
X1092913D01*
X677165Y613778D02*
X1092913D01*
X677165Y613070D02*
X1092913D01*
X677165Y612361D02*
X1092913D01*
X677165Y611652D02*
X1092913D01*
X677165Y610944D02*
X1092913D01*
X677165Y610235D02*
X1092913D01*
X677165Y609526D02*
X1092913D01*
X677165Y608818D02*
X1092913D01*
X677165Y608109D02*
X1092913D01*
X677165Y607400D02*
X1092913D01*
X677165Y606692D02*
X1092913D01*
X677165Y605983D02*
X1092913D01*
X677165Y605274D02*
X1092913D01*
X677165Y604566D02*
X1092913D01*
X677165Y603857D02*
X1092913D01*
X677165Y603148D02*
X1092913D01*
X677165Y602440D02*
X1092913D01*
X677165Y601731D02*
X1092913D01*
X677165Y601022D02*
X1092913D01*
X677165Y600314D02*
X1092913D01*
X677165Y599605D02*
X1092913D01*
X677165Y598896D02*
X1092913D01*
X677165Y598188D02*
X1092913D01*
X677165Y597479D02*
X1092913D01*
X677165Y596770D02*
X1092913D01*
X677165Y596062D02*
X1092913D01*
X677165Y595353D02*
X1092913D01*
X677165Y594644D02*
X1092913D01*
X677165Y593936D02*
X1092913D01*
X677165Y593227D02*
X1092913D01*
X677165Y592518D02*
X1092913D01*
X677165Y591810D02*
X1092913D01*
X677165Y591101D02*
X1092913D01*
X677165Y590392D02*
X1092913D01*
X677165Y589684D02*
X1092913D01*
X677165Y588975D02*
X1092913D01*
X677165Y588266D02*
X1092913D01*
X677165Y587558D02*
X1092913D01*
X677165Y586849D02*
X1092913D01*
X677165Y586140D02*
X1092913D01*
X677165Y585432D02*
X1092913D01*
X677165Y584723D02*
X1092913D01*
X677165Y584014D02*
X1092913D01*
X677165Y583306D02*
X1092913D01*
X677165Y582597D02*
X1092913D01*
X677165Y581888D02*
X1092913D01*
X677165Y581180D02*
X1092913D01*
X677165Y580471D02*
X1092913D01*
X677165Y579762D02*
X1092913D01*
X677165Y579054D02*
X1092913D01*
X677165Y578345D02*
X1092913D01*
X677165Y577636D02*
X1092913D01*
X677165Y576928D02*
X1092913D01*
X677165Y576219D02*
X1092913D01*
X677165Y575510D02*
X1092913D01*
X677165Y574802D02*
X1092913D01*
X677165Y574093D02*
X1092913D01*
X677165Y573385D02*
X1092913D01*
X677165Y572676D02*
X1092913D01*
X677165Y571967D02*
X1092913D01*
X677165Y571259D02*
X1092913D01*
X677165Y570550D02*
X1092913D01*
X677165Y569841D02*
X1092913D01*
X677165Y569133D02*
X1092913D01*
X677165Y568424D02*
X1092913D01*
X677165Y567715D02*
X1092913D01*
X677165Y567007D02*
X1092913D01*
X677165Y566298D02*
X1092913D01*
X677165Y565589D02*
X1092913D01*
X677165Y564881D02*
X1092913D01*
X677165Y564172D02*
X1092913D01*
X677165Y563463D02*
X1092913D01*
X677165Y562755D02*
X1092913D01*
X677165Y562046D02*
X1092913D01*
X677165Y561337D02*
X1092913D01*
X677165Y560629D02*
X1092913D01*
X677165Y559920D02*
X1092913D01*
X677165Y559211D02*
X1092913D01*
X677165Y558503D02*
X1092913D01*
X677165Y557794D02*
X1092913D01*
X677165Y557085D02*
X1092913D01*
X677165Y556377D02*
X1092913D01*
X677165Y555668D02*
X1092913D01*
X677165Y554959D02*
X1092913D01*
X677165Y554251D02*
X1092913D01*
X677165Y553542D02*
X1092913D01*
X677165Y552833D02*
X1092913D01*
X677165Y552125D02*
X1092913D01*
X677165Y551416D02*
X1092913D01*
X677165Y550707D02*
X1092913D01*
X677165Y549999D02*
X1092913D01*
X677165Y549290D02*
X1092913D01*
X677165Y548581D02*
X1092913D01*
X677165Y547873D02*
X1092913D01*
X677165Y547164D02*
X1092913D01*
X677165Y546455D02*
X1092913D01*
X677165Y545747D02*
X1092913D01*
X677165Y545038D02*
X1092913D01*
X677165Y544329D02*
X1092913D01*
X677165Y543621D02*
X1092913D01*
X677165Y542912D02*
X1092913D01*
X677165Y542203D02*
X1092913D01*
X677165Y541495D02*
X1092913D01*
X677165Y540786D02*
X1092913D01*
X677165Y540077D02*
X1092913D01*
X677165Y539369D02*
X1092913D01*
X677165Y538660D02*
X1092913D01*
X677165Y537951D02*
X1092913D01*
X677165Y537243D02*
X1092913D01*
X677165Y536534D02*
X1092913D01*
X677165Y535825D02*
X1092913D01*
X677165Y535117D02*
X1092913D01*
X677165Y534408D02*
X1092913D01*
X677165Y533699D02*
X1092913D01*
X677165Y532991D02*
X1092913D01*
X677165Y532282D02*
X1092913D01*
X677165Y531573D02*
X1092913D01*
X677165Y530865D02*
X1092913D01*
X677165Y530156D02*
X1092913D01*
X677165Y529448D02*
X1092913D01*
X677165Y528739D02*
X1092913D01*
X677165Y528030D02*
X1092913D01*
X677165Y527322D02*
X1092913D01*
X677165Y526613D02*
X1092913D01*
X677165Y525904D02*
X1092913D01*
X677165Y525196D02*
X1092913D01*
X677165Y524487D02*
X1092913D01*
X677165Y523778D02*
X1092913D01*
X677165Y523070D02*
X1092913D01*
X677165Y522361D02*
X1092913D01*
X677165Y521652D02*
X1092913D01*
X677165Y520944D02*
X1092913D01*
X677165Y520235D02*
X1092913D01*
X677165Y519526D02*
X1092913D01*
X677165Y518818D02*
X1092913D01*
X677165Y518109D02*
X1092913D01*
X677165Y517400D02*
X1092913D01*
X677165Y516692D02*
X1092913D01*
X677165Y515983D02*
X1092913D01*
X677165Y515274D02*
X1092913D01*
X677165Y514566D02*
X1092913D01*
X677165Y513857D02*
X1092913D01*
X677165Y513148D02*
X1092913D01*
X677165Y512440D02*
X1092913D01*
X677165Y511731D02*
X1092913D01*
X677165Y511022D02*
X1092913D01*
X677165Y510314D02*
X1092913D01*
X677165Y509605D02*
X1092913D01*
X677165Y508896D02*
X1092913D01*
X677165Y508188D02*
X1092913D01*
X677165Y507479D02*
X1092913D01*
X677165Y506770D02*
X1092913D01*
X677165Y506062D02*
X1092913D01*
X677165Y505353D02*
X1092913D01*
X677165Y504644D02*
X1092913D01*
X677165Y503936D02*
X1092913D01*
X677165Y503227D02*
X1092913D01*
X677165Y502518D02*
X1092913D01*
X677165Y501810D02*
X1092913D01*
X677165Y501101D02*
X1092913D01*
X677165Y500392D02*
X1092913D01*
X677165Y499684D02*
X1092913D01*
X677165Y498975D02*
X1092913D01*
X677165Y498266D02*
X1092913D01*
X677165Y497558D02*
X1092913D01*
X677165Y496849D02*
X1092913D01*
X677165Y496140D02*
X1092913D01*
X677165Y495432D02*
X1092913D01*
X677165Y494723D02*
X1092913D01*
X677165Y494014D02*
X1092913D01*
X677165Y493306D02*
X1092913D01*
X677165Y492597D02*
X1092913D01*
X677165Y491888D02*
X1092913D01*
X677165Y491180D02*
X1092913D01*
X677165Y490471D02*
X1092913D01*
X677165Y489762D02*
X1092913D01*
X677165Y489054D02*
X1092913D01*
X677165Y488345D02*
X1092913D01*
X677165Y487636D02*
X1092913D01*
X677165Y486928D02*
X1092913D01*
X677165Y486219D02*
X1092913D01*
X677165Y485510D02*
X1092913D01*
X677165Y484802D02*
X1092913D01*
X677165Y484093D02*
X1092913D01*
X677165Y483385D02*
X1092913D01*
X677165Y482676D02*
X1092913D01*
X677165Y481967D02*
X1092913D01*
X677165Y481259D02*
X1092913D01*
X677165Y480550D02*
X1092913D01*
X677165Y479841D02*
X1092913D01*
X677165Y479133D02*
X1092913D01*
X677165Y478424D02*
X1092913D01*
X677165Y477715D02*
X1092913D01*
X677165Y477007D02*
X1092913D01*
X677165Y476298D02*
X1092913D01*
X677165Y475589D02*
X1092913D01*
X677165Y474881D02*
X1092913D01*
X677165Y474172D02*
X1092913D01*
X677165Y473463D02*
X1092913D01*
X677165Y472755D02*
X1092913D01*
X677165Y472046D02*
X1092913D01*
X677165Y471337D02*
X1092913D01*
X677165Y470629D02*
X1092913D01*
X677165Y469920D02*
X1092913D01*
X677165Y469211D02*
X1092913D01*
X677165Y468503D02*
X1092913D01*
X677165Y467794D02*
X1092913D01*
X677165Y467085D02*
X1092913D01*
X677165Y466377D02*
X1092913D01*
X677165Y465668D02*
X1092913D01*
X677165Y464959D02*
X1092913D01*
X677165Y464251D02*
X1092913D01*
X677165Y463542D02*
X1092913D01*
X677165Y462833D02*
X1092913D01*
X677165Y462125D02*
X1092913D01*
X677165Y461416D02*
X1092913D01*
X677165Y460707D02*
X1092913D01*
X677165Y459999D02*
X1092913D01*
X677165Y459290D02*
X1092913D01*
X677165Y458581D02*
X1092913D01*
X677165Y457873D02*
X1092913D01*
X677165Y457164D02*
X1092913D01*
X677165Y456455D02*
X1092913D01*
X677165Y455747D02*
X1092913D01*
X677165Y455038D02*
X1092913D01*
X677165Y454329D02*
X1092913D01*
X677165Y453621D02*
X1092913D01*
X677165Y452912D02*
X1092913D01*
X677165Y452203D02*
X1092913D01*
X677165Y451495D02*
X1092913D01*
X677165Y450786D02*
X1092913D01*
X677165Y450077D02*
X1092913D01*
X677165Y449369D02*
X1092913D01*
X677165Y448660D02*
X1092913D01*
X677165Y447951D02*
X1092913D01*
X677165Y447243D02*
X1092913D01*
X677165Y446534D02*
X1092913D01*
X677165Y445825D02*
X1092913D01*
X677165Y445117D02*
X1092913D01*
X677165Y444408D02*
X1092913D01*
X677165Y443699D02*
X1092913D01*
X677165Y442991D02*
X1092913D01*
X677165Y442282D02*
X1092913D01*
X677165Y441573D02*
X1092913D01*
X677165Y440865D02*
X1092913D01*
X677165Y440156D02*
X1092913D01*
X677165Y439448D02*
X1092913D01*
X677165Y438739D02*
X1092913D01*
X677165Y438030D02*
X1092913D01*
X677165Y437322D02*
X1092913D01*
X677165Y436613D02*
X1092913D01*
X677165Y435904D02*
X1092913D01*
X677165Y435196D02*
X1092913D01*
X677165Y434487D02*
X1092913D01*
X677165Y433778D02*
X1092913D01*
X677165Y433070D02*
X1092913D01*
X677165Y432361D02*
X1092913D01*
X677165Y431652D02*
X1092913D01*
X677165Y430944D02*
X1092913D01*
X677165Y430235D02*
X1092913D01*
X677165Y429526D02*
X1092913D01*
X677165Y428818D02*
X1092913D01*
X677165Y428109D02*
X1092913D01*
X677165Y427400D02*
X1092913D01*
X677165Y426692D02*
X1092913D01*
X677165Y425983D02*
X1092913D01*
X677165Y425274D02*
X1092913D01*
X677165Y424566D02*
X1092913D01*
X677165Y423857D02*
X1092913D01*
X677165Y423148D02*
X1092913D01*
X677165Y422440D02*
X1092913D01*
X677165Y421731D02*
X1092913D01*
X677165Y421022D02*
X1092913D01*
X677165Y420314D02*
X1092913D01*
X677165Y419605D02*
X1092913D01*
X677165Y418896D02*
X1092913D01*
X677165Y418188D02*
X1092913D01*
X677165Y417479D02*
X1092913D01*
X677165Y416770D02*
X1092913D01*
X677165Y416062D02*
X1092913D01*
X677165Y415353D02*
X1092913D01*
X677165Y414644D02*
X1092913D01*
X677165Y413936D02*
X1092913D01*
X677165Y413227D02*
X1092913D01*
X677165Y412518D02*
X1092913D01*
X677165Y411810D02*
X1092913D01*
X677165Y411101D02*
X1092913D01*
X677165Y410392D02*
X1092913D01*
X677165Y409684D02*
X1092913D01*
X677165Y408975D02*
X1092913D01*
X677165Y408266D02*
X1092913D01*
X677165Y407558D02*
X1092913D01*
X677165Y406849D02*
X1092913D01*
X677165Y406140D02*
X1092913D01*
X677165Y405432D02*
X1092913D01*
X677165Y404723D02*
X1092913D01*
X677165Y404014D02*
X1092913D01*
X677165Y403306D02*
X1092913D01*
X677165Y402597D02*
X1092913D01*
X677165Y401888D02*
X1092913D01*
X677165Y401180D02*
X1092913D01*
X677165Y400471D02*
X1092913D01*
X677165Y399762D02*
X1092913D01*
X677165Y399054D02*
X1092913D01*
X677165Y398345D02*
X1092913D01*
X677165Y397636D02*
X1092913D01*
X677165Y396928D02*
X1092913D01*
X677165Y396219D02*
X1092913D01*
X677165Y395510D02*
X1092913D01*
X677165Y394802D02*
X1092913D01*
X677165Y394093D02*
X1092913D01*
X677165Y393385D02*
X1092913D01*
X677165Y392676D02*
X1092913D01*
X677165Y391967D02*
X1092913D01*
X677165Y391259D02*
X1092913D01*
X677165Y390550D02*
X1092913D01*
X677165Y389841D02*
X1092913D01*
X677165Y389133D02*
X1092913D01*
X677165Y388424D02*
X1092913D01*
X677165Y387715D02*
X1092913D01*
X677165Y387007D02*
X1092913D01*
X677165Y386298D02*
X1092913D01*
X677165Y385589D02*
X1092913D01*
X677165Y384881D02*
X1092913D01*
X677165Y384172D02*
X1092913D01*
X677165Y383463D02*
X1092913D01*
X677165Y382755D02*
X1092913D01*
X677165Y382046D02*
X1092913D01*
X677165Y381337D02*
X1092913D01*
X677165Y380629D02*
X1092913D01*
X677165Y379920D02*
X1092913D01*
X677165Y379211D02*
X1092913D01*
X677165Y378503D02*
X1092913D01*
X677165Y377794D02*
X1092913D01*
X677165Y377085D02*
X1092913D01*
X677165Y376377D02*
X1092913D01*
X677165Y375668D02*
X1092913D01*
X677165Y374959D02*
X1092913D01*
X677165Y374251D02*
X1092913D01*
X677165Y373542D02*
X1092913D01*
X677165Y372833D02*
X1092913D01*
X677165Y372125D02*
X1092913D01*
X677165Y371416D02*
X1092913D01*
X677165Y370707D02*
X1092913D01*
X677165Y369999D02*
X1092913D01*
X677165Y369290D02*
X1092913D01*
X677165Y368581D02*
X1092913D01*
X677165Y367873D02*
X1092913D01*
X677165Y367164D02*
X1092913D01*
X677165Y366455D02*
X1092913D01*
X677165Y365747D02*
X1092913D01*
X677165Y365038D02*
X1092913D01*
X677165Y364329D02*
X1092913D01*
X677165Y363621D02*
X1092913D01*
X677165Y362912D02*
X1092913D01*
X677165Y362203D02*
X1092913D01*
X677165Y361495D02*
X1092913D01*
X677165Y360786D02*
X1092913D01*
X677165Y360077D02*
X1092913D01*
X677165Y359369D02*
X1092913D01*
X677165Y358660D02*
X1092913D01*
X677165Y357951D02*
X1092913D01*
X677165Y357243D02*
X1092913D01*
X677165Y356534D02*
X1092913D01*
X677165Y355825D02*
X1092913D01*
X677165Y355117D02*
X1092913D01*
X677165Y354408D02*
X1092913D01*
X677165Y353699D02*
X1092913D01*
X677165Y352991D02*
X1092913D01*
X677165Y352282D02*
X1092913D01*
X677165Y351573D02*
X1092913D01*
X677165Y350865D02*
X1092913D01*
X677165Y350156D02*
X1092913D01*
X677165Y349448D02*
X1092913D01*
X677165Y348739D02*
X1092913D01*
X677165Y348030D02*
X1092913D01*
X677165Y347322D02*
X1092913D01*
X677165Y346613D02*
X1092913D01*
X677165Y345904D02*
X1092913D01*
X677165Y345196D02*
X1092913D01*
X677165Y344487D02*
X1092913D01*
X677165Y343778D02*
X1092913D01*
X677165Y343070D02*
X1092913D01*
X677165Y342361D02*
X1092913D01*
X677165Y341652D02*
X1092913D01*
X677165Y340944D02*
X1092913D01*
X677165Y340235D02*
X1092913D01*
X677165Y339526D02*
X1092913D01*
X677165Y338818D02*
X1092913D01*
X677165Y338109D02*
X1092913D01*
X677165Y337400D02*
X1092913D01*
X677165Y336692D02*
X1092913D01*
X677165Y335983D02*
X1092913D01*
X677165Y335274D02*
X1092913D01*
X677165Y334566D02*
X1092913D01*
X677165Y333857D02*
X1092913D01*
X677165Y333148D02*
X1092913D01*
X677165Y332440D02*
X1092913D01*
X677165Y331731D02*
X1092913D01*
X677165Y331022D02*
X1092913D01*
X677165Y330314D02*
X1092913D01*
X677165Y329605D02*
X1092913D01*
X677165Y328896D02*
X1092913D01*
X677165Y328188D02*
X1092913D01*
X677165Y327479D02*
X1092913D01*
X677165Y326770D02*
X1092913D01*
X677165Y326062D02*
X1092913D01*
X677165Y325353D02*
X1092913D01*
X677165Y324644D02*
X1092913D01*
X677165Y323936D02*
X1092913D01*
X677165Y323227D02*
X1092913D01*
X677165Y322518D02*
X1092913D01*
X677165Y321810D02*
X1092913D01*
X677165Y321101D02*
X1092913D01*
X677165Y320392D02*
X1092913D01*
X677165Y319684D02*
X1092913D01*
X677165Y318975D02*
X1092913D01*
X677165Y318266D02*
X1092913D01*
X677165Y317558D02*
X1092913D01*
X677165Y316849D02*
X1092913D01*
X677165Y316140D02*
X1092913D01*
X677165Y315432D02*
X1092913D01*
X677165Y314723D02*
X1092913D01*
X677165Y314014D02*
X1092913D01*
X677165Y313306D02*
X1092913D01*
X677165Y312597D02*
X1092913D01*
X677165Y311888D02*
X1092913D01*
X677165Y311180D02*
X1092913D01*
X677165Y310471D02*
X1092913D01*
X677165Y309762D02*
X1092913D01*
X677165Y309054D02*
X1092913D01*
X677165Y308345D02*
X1092913D01*
X677165Y307636D02*
X1092913D01*
X677165Y306928D02*
X1092913D01*
X677165Y306219D02*
X1092913D01*
X677165Y305510D02*
X1092913D01*
X677165Y304802D02*
X1092913D01*
X677165Y304093D02*
X1092913D01*
X677165Y303385D02*
X1092913D01*
X677165Y302676D02*
X1092913D01*
X677165Y301967D02*
X1092913D01*
X677165Y301259D02*
X1092913D01*
X677165Y300550D02*
X1092913D01*
X677165Y299841D02*
X1092913D01*
X677165Y299133D02*
X1092913D01*
X677165Y298424D02*
X1092913D01*
X677165Y297715D02*
X1092913D01*
X677165Y297007D02*
X1092913D01*
X677165Y296298D02*
X1092913D01*
X677165Y295589D02*
X1092913D01*
X677165Y294881D02*
X1092913D01*
X677165Y294172D02*
X1092913D01*
X677165Y293463D02*
X1092913D01*
X677165Y292755D02*
X1092913D01*
X677165Y292046D02*
X1092913D01*
G54D45*
X373228Y752854D03*
Y750295D03*
Y747736D03*
Y745177D03*
Y742618D03*
Y740059D03*
Y737500D03*
Y734941D03*
Y732382D03*
Y729823D03*
X396850D03*
Y732382D03*
Y734941D03*
Y737500D03*
Y740059D03*
Y742618D03*
Y745177D03*
Y747736D03*
Y750295D03*
Y752854D03*
X495276D03*
Y750295D03*
Y747736D03*
Y745177D03*
Y742618D03*
Y740059D03*
Y737500D03*
Y734941D03*
Y732382D03*
Y729823D03*
X518898D03*
Y732382D03*
Y734941D03*
Y737500D03*
Y740059D03*
Y742618D03*
Y745177D03*
Y747736D03*
Y750295D03*
Y752854D03*
X810236D03*
Y750295D03*
Y747736D03*
Y745177D03*
Y742618D03*
Y740059D03*
Y737500D03*
Y734941D03*
Y732382D03*
Y729823D03*
X833858D03*
Y732382D03*
Y734941D03*
Y737500D03*
Y740059D03*
Y742618D03*
Y745177D03*
Y747736D03*
Y750295D03*
Y752854D03*
X936220D03*
Y750295D03*
Y747736D03*
Y745177D03*
Y742618D03*
Y740059D03*
Y737500D03*
Y734941D03*
Y732382D03*
Y729823D03*
X959843D03*
Y732382D03*
Y734941D03*
Y737500D03*
Y740059D03*
Y742618D03*
Y745177D03*
Y747736D03*
Y750295D03*
Y752854D03*
Y239665D03*
Y242224D03*
Y244783D03*
Y247343D03*
Y249902D03*
Y252461D03*
Y255020D03*
Y257579D03*
Y260138D03*
Y262697D03*
X936220D03*
Y260138D03*
Y257579D03*
Y255020D03*
Y252461D03*
Y249902D03*
Y247343D03*
Y244783D03*
Y242224D03*
Y239665D03*
X833858D03*
Y242224D03*
Y244783D03*
Y247343D03*
Y249902D03*
Y252461D03*
Y255020D03*
Y257579D03*
Y260138D03*
Y262697D03*
X810236D03*
Y260138D03*
Y257579D03*
Y255020D03*
Y252461D03*
Y249902D03*
Y247343D03*
Y244783D03*
Y242224D03*
Y239665D03*
X518898D03*
Y242224D03*
Y244783D03*
Y247343D03*
Y249902D03*
Y252461D03*
Y255020D03*
Y257579D03*
Y260138D03*
Y262697D03*
X495276D03*
Y260138D03*
Y257579D03*
Y255020D03*
Y252461D03*
Y249902D03*
Y247343D03*
Y244783D03*
Y242224D03*
Y239665D03*
X404724D03*
Y242224D03*
Y244783D03*
Y247343D03*
Y249902D03*
Y252461D03*
Y255020D03*
Y257579D03*
Y260138D03*
Y262697D03*
X381102D03*
Y260138D03*
Y257579D03*
Y255020D03*
Y252461D03*
Y249902D03*
Y247343D03*
Y244783D03*
Y242224D03*
Y239665D03*
G54D46*
X385039Y741339D03*
X507087D03*
X822047D03*
X948031D03*
Y251181D03*
X822047D03*
X507087D03*
X392913D03*
G54D47*
X205000Y405984D03*
Y395984D03*
Y385984D03*
Y285984D03*
Y275984D03*
X145000D03*
Y285984D03*
Y385984D03*
Y395984D03*
Y405984D03*
G54D48*
X307362Y644882D03*
Y613386D03*
X378228Y644882D03*
Y613386D03*
X449094Y644882D03*
Y613386D03*
X519961Y644882D03*
Y613386D03*
X590827Y644882D03*
Y613386D03*
X307362Y558268D03*
Y526772D03*
X378228Y558268D03*
Y526772D03*
X449094Y558268D03*
Y526772D03*
X519961Y558268D03*
Y526772D03*
X590827Y558268D03*
Y526772D03*
X748307Y644882D03*
Y613386D03*
X819173Y644882D03*
Y613386D03*
X890039Y644882D03*
Y613386D03*
X960906Y644882D03*
Y613386D03*
X1031772Y644882D03*
Y613386D03*
X748307Y558268D03*
Y526772D03*
X819173Y558268D03*
Y526772D03*
X890039Y558268D03*
Y526772D03*
X960906Y558268D03*
Y526772D03*
X1031772Y558268D03*
Y526772D03*
X748307Y471654D03*
Y440157D03*
X819173Y471654D03*
Y440157D03*
X890039Y471654D03*
Y440157D03*
X960906Y471654D03*
Y440157D03*
X1031772Y471654D03*
Y440157D03*
X748307Y385039D03*
Y353543D03*
X819173Y385039D03*
Y353543D03*
X890039Y385039D03*
Y353543D03*
X960906Y385039D03*
Y353543D03*
X1031772Y385039D03*
Y353543D03*
X307362Y471654D03*
Y440157D03*
X378228Y471654D03*
Y440157D03*
X449094Y471654D03*
Y440157D03*
X519961Y471654D03*
Y440157D03*
X590827Y471654D03*
Y440157D03*
X307362Y385039D03*
Y353543D03*
X378228Y385039D03*
Y353543D03*
X449094Y385039D03*
Y353543D03*
X519961Y385039D03*
Y353543D03*
X590827Y385039D03*
Y353543D03*
G54D49*
X297362Y644882D03*
Y613386D03*
X368228Y644882D03*
Y613386D03*
X439094Y644882D03*
Y613386D03*
X509961Y644882D03*
Y613386D03*
X580827Y644882D03*
Y613386D03*
X297362Y558268D03*
Y526772D03*
X368228Y558268D03*
Y526772D03*
X439094Y558268D03*
Y526772D03*
X509961Y558268D03*
Y526772D03*
X580827Y558268D03*
Y526772D03*
X738307Y644882D03*
Y613386D03*
X809173Y644882D03*
Y613386D03*
X880039Y644882D03*
Y613386D03*
X950906Y644882D03*
Y613386D03*
X1021772Y644882D03*
Y613386D03*
X738307Y558268D03*
Y526772D03*
X809173Y558268D03*
Y526772D03*
X880039Y558268D03*
Y526772D03*
X950906Y558268D03*
Y526772D03*
X1021772Y558268D03*
Y526772D03*
X738307Y471654D03*
Y440157D03*
X809173Y471654D03*
Y440157D03*
X880039Y471654D03*
Y440157D03*
X950906Y471654D03*
Y440157D03*
X1021772Y471654D03*
Y440157D03*
X738307Y385039D03*
Y353543D03*
X809173Y385039D03*
Y353543D03*
X880039Y385039D03*
Y353543D03*
X950906Y385039D03*
Y353543D03*
X1021772Y385039D03*
Y353543D03*
X297362Y471654D03*
Y440157D03*
X368228Y471654D03*
Y440157D03*
X439094Y471654D03*
Y440157D03*
X509961Y471654D03*
Y440157D03*
X580827Y471654D03*
Y440157D03*
X297362Y385039D03*
Y353543D03*
X368228Y385039D03*
Y353543D03*
X439094Y385039D03*
Y353543D03*
X509961Y385039D03*
Y353543D03*
X580827Y385039D03*
Y353543D03*
G54D50*
X396850Y758224D03*
Y763824D03*
X373228D03*
Y758224D03*
X627909Y783071D03*
X633509D03*
X406693Y750350D03*
Y755950D03*
X518898Y758224D03*
Y763824D03*
X495276D03*
Y758224D03*
X528740Y750350D03*
Y755950D03*
X833858Y758224D03*
Y763824D03*
X810236D03*
Y758224D03*
X843701Y750350D03*
Y755950D03*
X959843Y758224D03*
Y763824D03*
X936220D03*
Y758224D03*
X969685Y750350D03*
Y755950D03*
X936220Y234296D03*
Y228696D03*
X959843D03*
Y234296D03*
X926378Y242170D03*
Y236570D03*
X810236Y234296D03*
Y228696D03*
X833858D03*
Y234296D03*
X800394Y242170D03*
Y236570D03*
X495276Y234296D03*
Y228696D03*
X518898D03*
Y234296D03*
X485433Y242170D03*
Y236570D03*
X381102Y234296D03*
Y228696D03*
X404724D03*
Y234296D03*
X371260Y242170D03*
Y236570D03*
X723272Y222835D03*
X717672D03*
G54D51*
X613323Y746063D03*
X621323D03*
X636677D03*
X628677D03*
X736677Y259449D03*
X728677D03*
X713717D03*
X721717D03*
G54D52*
X177559Y435827D03*
X175000D03*
X172441D03*
X169882D03*
X167323D03*
G54D53*
X187106Y436220D03*
X157776D03*
G54D54*
X187697Y450984D03*
X157185D03*
G54D55*
X182283Y440157D03*
X162598D03*
G54D56*
X1012992Y718835D03*
Y726835D03*
X317717Y719228D03*
Y727228D03*
X317323Y279984D03*
Y271984D03*
X1012992Y280772D03*
Y272772D03*
G54D57*
X215748Y215748D03*
X1113386D03*
Y782677D03*
X215748D03*
X664567D03*
Y215748D03*
G54D58*
X618307Y774606D03*
Y755315D03*
X632087D03*
Y774606D03*
X732087Y230906D03*
Y250197D03*
X718307D03*
Y230906D03*
G54D59*
X618307Y769291D03*
Y764961D03*
Y760630D03*
X632087D03*
Y764961D03*
Y769291D03*
X732087Y236220D03*
Y240551D03*
Y244882D03*
X718307D03*
Y240551D03*
Y236220D03*
G54D60*
X625197Y755315D03*
Y774606D03*
X725197Y250197D03*
Y230906D03*
G54D61*
X625197Y764961D03*
Y760630D03*
X725197Y240551D03*
Y244882D03*
G54D62*
X219685Y449580D03*
Y477980D03*
G54D63*
X185094Y422441D03*
X203094D03*
G54D64*
X1113386Y762992D03*
X215748Y235433D03*
X1113386D03*
X0Y0D02*
M02*
